<svg id="Layer_1" data-name="Layer 1" xmlns="http://www.w3.org/2000/svg" xmlns:xlink="http://www.w3.org/1999/xlink" viewBox="0 0 2189.1 1625.8"><defs><style>.cls-1{fill:none;}.cls-2{fill:#ef9020;}.cls-3{fill:#adcfd8;}.cls-17,.cls-4{fill:#55769f;}.cls-5{fill:#daeef7;}.cls-6{fill:#00ff06;}.cls-7{fill:#33af00;}.cls-8{fill:#02ccc0;}.cls-9{fill:#06bfad;}.cls-10{fill:#e03268;}.cls-11{fill:#feb546;}.cls-12{fill:#ff5b7e;}.cls-13{fill:#284c7a;}.cls-14,.cls-17,.cls-29,.cls-38{isolation:isolate;}.cls-15{clip-path:url(#clip-path);}.cls-16,.cls-47{fill:#fff;}.cls-17{opacity:0.5;}.cls-18{fill:#eddf37;}.cls-19{fill:#d8ba39;}.cls-20{fill:#c4dfe8;}.cls-21{fill:#f4a640;}.cls-22{fill:#ffc0bb;}.cls-23{fill:#f50;}.cls-24{fill:#e0c4aa;}.cls-25,.cls-38{fill:#f99893;}.cls-26{fill:#333;}.cls-27{fill:#7ab9fe;}.cls-28{fill:#161616;}.cls-29{fill:#fc8d84;opacity:0.6;}.cls-30{fill:#9dcbf4;}.cls-31{fill:#07085b;}.cls-32{fill:#515154;}.cls-33{fill:#141414;}.cls-34{fill:#ededed;}.cls-35{fill:#26426e;}.cls-36{fill:#e0e0e0;}.cls-37{fill:#3a5782;}.cls-38{opacity:0.3;}.cls-39{fill:#f5577a;}.cls-40{fill:#de4b6c;}.cls-41{clip-path:url(#clip-path-2);}.cls-42{clip-path:url(#clip-path-3);}.cls-43{clip-path:url(#clip-path-4);}.cls-44{clip-path:url(#clip-path-5);}.cls-45{clip-path:url(#clip-path-6);}.cls-46{fill:red;}.cls-46,.cls-47{fill-rule:evenodd;}</style><clipPath id="clip-path" transform="translate(-232.8 -229.2)"><polygon class="cls-1" points="1012.9 1518.6 1019.9 1464.8 1269.3 1464.8 1262.2 1518.6 1012.9 1518.6"/></clipPath><clipPath id="clip-path-2" transform="translate(-232.8 -229.2)"><polygon class="cls-1" points="1651.3 872.1 1660.9 798.4 1682.3 798.4 1672.7 872.1 1651.3 872.1"/></clipPath><clipPath id="clip-path-3" transform="translate(-232.8 -229.2)"><polygon class="cls-1" points="1124.3 1098.8 1126.2 1022.7 1309.5 1032.3 1307.6 1108.4 1124.3 1098.8"/></clipPath><clipPath id="clip-path-4" transform="translate(-232.8 -229.2)"><polygon class="cls-1" points="1582.4 1294.5 1584.4 1238.4 1742 1238.4 1740 1294.5 1582.4 1294.5"/></clipPath><clipPath id="clip-path-5" transform="translate(-232.8 -229.2)"><polygon class="cls-1" points="2185.2 835.1 2185.8 810.7 2240.2 813.6 2239.6 837.9 2185.2 835.1"/></clipPath><clipPath id="clip-path-6" transform="translate(-232.8 -229.2)"><polygon class="cls-1" points="1632.9 1759.5 1634.9 1701.8 1852.3 1701.8 1850.3 1759.5 1632.9 1759.5"/></clipPath></defs><title>login-page-1</title><g id="Layer_6" data-name="Layer 6"><g id="Layer_1-2" data-name="Layer 1"><path class="cls-2" d="M1282,1460.4l-257.6,103.5-318.9-794,217.8-87.5a43,43,0,0,1,55.9,23.9Z" transform="translate(-232.8 -229.2)"/><rect class="cls-3" x="753.57" y="775.58" width="500.88" height="704.17" transform="translate(-414.27 -36.57) rotate(-10.06)"/><rect class="cls-4" x="843.05" y="849.68" width="223.69" height="5" transform="translate(-366.93 -49.38) rotate(-10.06)"/><rect class="cls-4" x="793.86" y="837.18" width="317.69" height="5" transform="translate(-364.78 -49.95) rotate(-10.06)"/><rect class="cls-4" x="771.36" y="901.57" width="385.39" height="5" transform="translate(-375.85 -46.98) rotate(-10.06)"/><rect class="cls-4" x="775.66" y="925.37" width="385.38" height="5" transform="translate(-379.94 -45.87) rotate(-10.06)"/><rect class="cls-4" x="784.06" y="972.97" width="385.39" height="5" transform="translate(-388.12 -43.67) rotate(-10.06)"/><rect class="cls-4" x="788.26" y="996.77" width="385.38" height="5" transform="translate(-392.21 -42.57) rotate(-10.06)"/><rect class="cls-4" x="792.46" y="1020.57" width="385.39" height="5" transform="translate(-396.3 -41.47) rotate(-10.06)"/><rect class="cls-4" x="811.06" y="1125.17" width="385.39" height="5" transform="translate(-414.28 -36.62) rotate(-10.06)"/><rect class="cls-4" x="815.36" y="1149.76" width="385.39" height="5" transform="translate(-418.51 -35.49) rotate(-10.06)"/><rect class="cls-4" x="819.76" y="1174.46" width="385.38" height="5" transform="translate(-422.75 -34.34) rotate(-10.06)"/><rect class="cls-4" x="824.16" y="1199.16" width="385.38" height="5" transform="translate(-427 -33.19) rotate(-10.06)"/><rect class="cls-4" x="828.56" y="1223.76" width="385.39" height="5" transform="translate(-431.23 -32.05) rotate(-10.06)"/><rect class="cls-4" x="832.86" y="1248.46" width="385.39" height="5" transform="translate(-435.47 -30.92) rotate(-10.06)"/><rect class="cls-4" x="837.26" y="1273.16" width="385.38" height="5" transform="translate(-439.72 -29.77) rotate(-10.06)"/><rect class="cls-5" x="715.21" y="772.23" width="500.91" height="704.32" transform="translate(-487.15 53.58) rotate(-14.74)"/><rect class="cls-4" x="782.32" y="851.43" width="223.71" height="5" transform="translate(-420.68 26.48) rotate(-14.74)"/><rect class="cls-4" x="732.12" y="839.13" width="317.71" height="5" transform="translate(-417.65 25.26) rotate(-14.74)"/><rect class="cls-4" x="714.92" y="902.43" width="385.41" height="5" transform="translate(-433.22 31.58) rotate(-14.74)"/><rect class="cls-4" x="721.02" y="925.73" width="385.41" height="5" transform="translate(-438.94 33.9) rotate(-14.74)"/><rect class="cls-4" x="733.31" y="972.53" width="385.41" height="5" transform="translate(-450.45 38.57) rotate(-14.74)"/><rect class="cls-4" x="739.52" y="995.83" width="385.41" height="5" transform="translate(-456.18 40.91) rotate(-14.74)"/><rect class="cls-4" x="745.62" y="1019.24" width="385.41" height="5" transform="translate(-461.93 43.24) rotate(-14.74)"/><rect class="cls-4" x="772.72" y="1122.02" width="385.41" height="5" transform="translate(-487.2 53.52) rotate(-14.74)"/><rect class="cls-4" x="779.12" y="1146.22" width="385.41" height="5" transform="translate(-493.14 55.94) rotate(-14.74)"/><rect class="cls-4" x="785.44" y="1170.54" width="385.41" height="5" transform="translate(-499.12 58.35) rotate(-14.74)"/><rect class="cls-4" x="791.84" y="1194.74" width="385.41" height="5" transform="translate(-505.07 60.78) rotate(-14.74)"/><rect class="cls-4" x="798.24" y="1219.02" width="385.41" height="5" transform="translate(-511.04 63.21) rotate(-14.74)"/><rect class="cls-4" x="804.64" y="1243.22" width="385.41" height="5" transform="translate(-516.99 65.63) rotate(-14.74)"/><rect class="cls-4" x="810.94" y="1267.44" width="385.41" height="5" transform="translate(-522.95 68.03) rotate(-14.74)"/><path class="cls-2" d="M1184.2,1499.7,665.6,1708,363.1,954.8,798.9,686a46.39,46.39,0,0,1,67.4,22.2Z" transform="translate(-232.8 -229.2)"/><path class="cls-6" d="M498.2,1586.1l-74-1.3c-25.7-46.6-44.5-87-44.5-87,83.6-19.3,154.1-11.4,212.8,11.2l32.4,78.7,6.9-60.6C777.4,1605.7,837.4,1772,837.4,1772s-257.3-27.4-311.9-52.8c-21.1-9.8-47.6-45-72.3-84.6C473,1615.8,498.2,1586.1,498.2,1586.1Z" transform="translate(-232.8 -229.2)"/><path class="cls-7" d="M379.7,1497.7s330.4,139,457.8,274.2c0,0-257.3-27.4-311.9-52.8-21.1-9.8-47.6-45-72.3-84.6,19.7-18.8,44.9-48.5,44.9-48.5l-74-1.3C398.6,1538.2,379.7,1497.7,379.7,1497.7Z" transform="translate(-232.8 -229.2)"/><path class="cls-6" d="M390.3,1719.9c44.5-27.1,89.4-41.6,132.8-47.4,12.7,15.8,28.4,34.4,28.4,34.4l1.6-37.1c166.6-7.6,304.7,104.1,304.7,104.1-96.5,60.8-178.9,77.6-246.3,72.2-4-13-9.7-32.3-9.7-32.3l-11.9,29.8a290.13,290.13,0,0,1-85.5-27.5c6.3-15.5,13-33.1,13-33.1l-35.9,20.4C421.3,1766.6,390.3,1719.9,390.3,1719.9Z" transform="translate(-232.8 -229.2)"/><path class="cls-7" d="M611.5,1846.1c-4-13-9.7-32.3-9.7-32.3l-11.9,29.8a290.13,290.13,0,0,1-85.5-27.5c6.3-15.5,13-33.1,13-33.1l-35.9,20.4c-60.2-36.8-91.2-83.5-91.2-83.5,194.2-22.4,467.5,54,467.5,54C761.3,1834.8,678.9,1851.6,611.5,1846.1Z" transform="translate(-232.8 -229.2)"/><path class="cls-8" d="M1362.6,718.9l59.6-43.8c-5.9-52.8-13.9-96.8-13.9-96.8-79.4,32.5-132.4,79.7-167.3,132l19,82.9-40.6-45.5c-73.6,148.2-26.5,318.7-26.5,318.7s194.3-170.9,224.2-223.1c11.5-20.2,12.9-64.3,10.2-110.8C1400.3,728.6,1362.6,718.9,1362.6,718.9Z" transform="translate(-232.8 -229.2)"/><path class="cls-9" d="M1408.4,578.3s-189.5,304.2-215.5,488.2c0,0,194.3-170.9,224.2-223.1,11.5-20.2,12.9-64.3,10.2-110.8-26.9-3.9-64.6-13.6-64.6-13.6l59.6-43.8C1416.4,622.2,1408.4,578.3,1408.4,578.3Z" transform="translate(-232.8 -229.2)"/><path class="cls-8" d="M1528.1,765.8c-52,3.6-97,17.6-135.8,38-1.3,20.3-3.3,44.5-3.3,44.5L1366.2,819c-140.5,90-188.8,260.9-188.8,260.9,113.9-6,190.8-39.9,242.8-83.2-4.2-12.9-10.8-32-10.8-32l26.9,17.5a290.73,290.73,0,0,0,54-71.8c-14.1-9-29.7-19.6-29.7-19.6l41.1-4.1C1529.7,821.9,1528.1,765.8,1528.1,765.8Z" transform="translate(-232.8 -229.2)"/><path class="cls-9" d="M1420.2,996.6c-4.2-12.9-10.8-32-10.8-32l26.9,17.5a290.73,290.73,0,0,0,54-71.8c-14.1-9-29.7-19.6-29.7-19.6l41.1-4.1c27.9-64.8,26.3-120.8,26.3-120.8-171.5,93.8-350.6,314-350.6,314C1291.4,1073.8,1368.3,1040,1420.2,996.6Z" transform="translate(-232.8 -229.2)"/><path class="cls-10" d="M2004.8,982.6h35.5a36.93,36.93,0,0,0-21-6.3H1130.8c-46.5,0-84.2,33.4-84.2,74.6v47.4c0,41.2,37.7,74.6,84.2,74.6l878.5-.3Z" transform="translate(-232.8 -229.2)"/><path class="cls-11" d="M1121.2,1098.2v-47.4c0-41.2,37.7-74.6,84.2-74.6h-19.1c-46.5,0-84.2,33.4-84.2,74.6v47.4c0,41.2,37.7,74.6,84.2,74.6h18.8C1158.8,1172.7,1121.2,1139.4,1121.2,1098.2Z" transform="translate(-232.8 -229.2)"/><path class="cls-11" d="M1329.3,1098.2v-47.4c0-41.2,37.7-74.6,84.2-74.6h-19.1c-46.5,0-84.2,33.4-84.2,74.6v47.4c0,41.2,37.7,74.6,84.2,74.6h18.8C1366.8,1172.7,1329.3,1139.4,1329.3,1098.2Z" transform="translate(-232.8 -229.2)"/><path class="cls-12" d="M1500.4,976.4c-44.5,0-80.5,31.9-80.5,71.4v53.6c0,39.4,36,71.4,80.5,71.4h553.1v-12h-2.3L1910.6,1149l-28.4-98.8s54.9-54.6,58.4-56,110.6-5.7,110.6-5.7h2.3V976.6H1500.4Z" transform="translate(-232.8 -229.2)"/><path class="cls-5" d="M2017.6,1074.2c0-57.8,33.7-85.8,33.7-85.8H1511.7c-40.8,0-73.9,29.3-73.9,65.5v41.2c0,36.2,33.1,65.5,73.9,65.5h539.6C2051.3,1160.7,2017.6,1146.9,2017.6,1074.2Z" transform="translate(-232.8 -229.2)"/><path class="cls-5" d="M1437.8,1053.9v41.2a58.36,58.36,0,0,0,2.2,15.7c18.2-39.5,53.1-77.5,119.5-89.7,155-28.5,491.9-32.8,491.9-32.8H1511.8C1470.9,988.4,1437.8,1017.7,1437.8,1053.9Z" transform="translate(-232.8 -229.2)"/><path class="cls-13" d="M1990.2,1375.6h40.1a39,39,0,0,0-23.7-7.9H1001c-52.6,0-95.3,41.8-95.3,93.4v59.3c0,51.6,42.6,93.4,95.3,93.4l994.3-.3Z" transform="translate(-232.8 -229.2)"/><path class="cls-4" d="M1419.3,1367.8c-50.3,0-91.1,40-91.1,89.3v67c0,49.3,40.8,89.3,91.1,89.3h626v-15h-2.6l-159.1-14.8-32.2-123.7s62.1-68.4,66.1-70.1,125.2-7.1,125.2-7.1h2.6v-14.9Z" transform="translate(-232.8 -229.2)"/><path class="cls-5" d="M2004.7,1490.2c0-72.3,38.1-107.4,38.1-107.4H1432.1c-46.2,0-83.7,36.7-83.7,82v51.6c0,45.3,37.5,82,83.7,82h610.7C2042.8,1598.5,2004.7,1581.3,2004.7,1490.2Z" transform="translate(-232.8 -229.2)"/><path class="cls-5" d="M1348.4,1464.9v51.6a85,85,0,0,0,2.4,19.7c20.6-49.4,60.1-97,135.2-112.3,175.5-35.7,556.7-41,556.7-41H1432C1385.9,1382.8,1348.4,1419.6,1348.4,1464.9Z" transform="translate(-232.8 -229.2)"/><g class="cls-14"><g class="cls-15"><path class="cls-16" d="M1029.5,1508.7h-1.8c-.7,0-1.3-.1-1.9-.1l4.1-32.3a16.59,16.59,0,0,1,2.4-.2c.8,0,1.6-.1,2.4-.1h.2c5.6,0,9.5,1.4,11.8,4.1s3.1,6.8,2.4,12.1c-.6,5.1-2.5,9.1-5.6,12s-7.5,4.4-13.3,4.4a1.48,1.48,0,0,1-.7.1m6.2-42.5h-.3c-2.1,0-4.5.1-7.4.3a74.23,74.23,0,0,0-8.4,1l-6.2,49.7a51.71,51.71,0,0,0,7.9,1c2.5.1,4.7.2,6.6.2h.6a44.24,44.24,0,0,0,12.4-1.7,28.21,28.21,0,0,0,9.8-4.9,26.25,26.25,0,0,0,6.9-8.2,33.58,33.58,0,0,0,3.5-11.6,28,28,0,0,0-.6-11.8,18.26,18.26,0,0,0-4.8-8.1,21.14,21.14,0,0,0-8.5-4.6,51.19,51.19,0,0,0-11.5-1.3" transform="translate(-232.8 -229.2)"/><path class="cls-16" d="M1091.3,1508.5a12.67,12.67,0,0,1-5.4-1.1,10.13,10.13,0,0,1-3.8-3.3,13.46,13.46,0,0,1-2-5.2,21.87,21.87,0,0,1-.1-6.8,22.73,22.73,0,0,1,1.8-6.7,19.28,19.28,0,0,1,3.3-5.2,13.77,13.77,0,0,1,4.6-3.4,14.14,14.14,0,0,1,5.9-1.2h.1a12,12,0,0,1,5.5,1.2,9.43,9.43,0,0,1,3.8,3.3,13.46,13.46,0,0,1,2,5.2,21.87,21.87,0,0,1,.1,6.8,23.4,23.4,0,0,1-1.8,6.8,19.28,19.28,0,0,1-3.3,5.2,13.2,13.2,0,0,1-4.7,3.4,14,14,0,0,1-5.8,1.2c-.1-.2-.1-.2-.2-.2m5.7-43.2h-.2a29.71,29.71,0,0,0-9.8,1.7,29.29,29.29,0,0,0-8.7,5.1,30.73,30.73,0,0,0-6.6,8.4,33.69,33.69,0,0,0-3.5,11.5,30.67,30.67,0,0,0,.5,11.5,20,20,0,0,0,4.4,8.3,19,19,0,0,0,7.4,5,26.32,26.32,0,0,0,9.5,1.6h.2a31.18,31.18,0,0,0,10.2-1.7,27.3,27.3,0,0,0,8.7-5.1,29.15,29.15,0,0,0,6.4-8.4,36,36,0,0,0,3.4-11.5,30.67,30.67,0,0,0-.5-11.5,20,20,0,0,0-4.4-8.3,19,19,0,0,0-7.4-5,29.73,29.73,0,0,0-9.6-1.6" transform="translate(-232.8 -229.2)"/><path class="cls-16" d="M1159.3,1466.2l-11.4.1-4.2,33.3c-.4,3.2-1.3,5.6-2.7,6.9s-3.5,2.1-6.3,2.1h-.1a13.64,13.64,0,0,1-5.1-.9,28.94,28.94,0,0,1-4.3-2.2l-4.9,8.9a19.48,19.48,0,0,0,5.6,2.8,24.47,24.47,0,0,0,8.2,1.2h.2a25,25,0,0,0,9.2-1.5,17.79,17.79,0,0,0,6.1-3.9,18.53,18.53,0,0,0,3.7-5.8,32,32,0,0,0,1.7-7.1l4.3-33.9" transform="translate(-232.8 -229.2)"/><path class="cls-16" d="M1188,1508a12,12,0,0,1-5.5-1.2,10.13,10.13,0,0,1-3.8-3.3,13.46,13.46,0,0,1-2-5.2,21.87,21.87,0,0,1-.1-6.8,22.73,22.73,0,0,1,1.8-6.7,19.28,19.28,0,0,1,3.3-5.2,13.77,13.77,0,0,1,4.6-3.4,14.14,14.14,0,0,1,5.9-1.2h.1a12,12,0,0,1,5.5,1.2,9.43,9.43,0,0,1,3.8,3.3,13.46,13.46,0,0,1,2,5.2,21.87,21.87,0,0,1,.1,6.8,23.4,23.4,0,0,1-1.8,6.8,19.28,19.28,0,0,1-3.3,5.2,13.2,13.2,0,0,1-4.7,3.4,15.51,15.51,0,0,1-5.9,1.1h0m5.7-43.2h-.2a27.43,27.43,0,0,0-9.8,1.8,25.57,25.57,0,0,0-8.7,5.1,30.73,30.73,0,0,0-6.6,8.4,31.63,31.63,0,0,0-3.5,11.5,30.67,30.67,0,0,0,.5,11.5,20,20,0,0,0,4.4,8.3,19,19,0,0,0,7.4,5,26.14,26.14,0,0,0,9.4,1.6h.2a31.18,31.18,0,0,0,10.2-1.7,25.57,25.57,0,0,0,8.7-5.1,29.15,29.15,0,0,0,6.4-8.4,36,36,0,0,0,3.4-11.5,30.67,30.67,0,0,0-.5-11.5,20,20,0,0,0-4.4-8.3,19,19,0,0,0-7.4-5,27.13,27.13,0,0,0-9.5-1.7" transform="translate(-232.8 -229.2)"/><path class="cls-16" d="M1269,1465.6l-11.4.1-3.9,30.8c-.5,4.1-1.8,7.1-3.7,8.8a10.35,10.35,0,0,1-7.1,2.6h-.1a10.46,10.46,0,0,1-3.6-.6,5.8,5.8,0,0,1-2.7-1.9,8.64,8.64,0,0,1-1.5-3.5,15.57,15.57,0,0,1,0-5.3l3.9-30.8-11.4.1-4,31.8a24.72,24.72,0,0,0,.2,8.2,15,15,0,0,0,2.9,6.4,14.41,14.41,0,0,0,5.9,4.2,23.32,23.32,0,0,0,8.9,1.5h.2a28.45,28.45,0,0,0,9.6-1.5,19.53,19.53,0,0,0,7-4.2,20.19,20.19,0,0,0,4.6-6.5,30.73,30.73,0,0,0,2.3-8.3l3.9-31.9" transform="translate(-232.8 -229.2)"/></g></g><path class="cls-8" d="M872.6,1178.6H832.4a46.73,46.73,0,0,1,23.7-6.3h1006c52.6,0,95.3,33.2,95.3,74.1v47.1c0,40.9-42.7,74.1-95.3,74.1l-994.7-.3Z" transform="translate(-232.8 -229.2)"/><path class="cls-9" d="M1443.7,1172.5c50.3,0,91.1,31.7,91.1,70.9v53.2c0,39.1-40.8,70.9-91.1,70.9H817.5v-11.9h2.6l159.2-11.7,32.2-98.2s-62.1-54.2-66.2-55.6-125.2-5.6-125.2-5.6h-2.6v-11.8h626.2Z" transform="translate(-232.8 -229.2)"/><path class="cls-5" d="M858.1,1269.6c0-57.4-38.1-85.2-38.1-85.2h611c46.2,0,83.7,29.1,83.7,65.1v40.9c0,35.9-37.5,65.1-83.7,65.1H820S858.1,1341.9,858.1,1269.6Z" transform="translate(-232.8 -229.2)"/><path class="cls-5" d="M1514.6,1249.5v40.9a54.09,54.09,0,0,1-2.4,15.6c-20.6-39.2-60.1-77-135.3-89.1-175.5-28.3-556.9-32.5-556.9-32.5h611C1477.1,1184.4,1514.6,1213.6,1514.6,1249.5Z" transform="translate(-232.8 -229.2)"/><path class="cls-17" d="M1773.2,1293.5v-47.1c0-40.9-42.7-74.1-95.3-74.1h95.5c52.6,0,95.3,33.2,95.3,74.1v47.1c0,40.9-42.7,74.1-95.3,74.1h-94.3C1731.2,1367.1,1773.2,1334.1,1773.2,1293.5Z" transform="translate(-232.8 -229.2)"/><path class="cls-18" d="M796.7,1621.3H753.4a48.48,48.48,0,0,1,25.6-7H1863.5c56.7,0,102.7,37.1,102.7,82.8v52.6c0,45.7-46,82.8-102.7,82.8l-1072.3-.3Z" transform="translate(-232.8 -229.2)"/><path class="cls-19" d="M1412.4,1614.4c54.3,0,98.2,35.4,98.2,79.2V1753c0,43.7-44,79.2-98.2,79.2H737.2v-13.3H740l171.6-13.1,34.7-109.7s-67-60.6-71.3-62.2-135-6.3-135-6.3h-2.8v-13.2Z" transform="translate(-232.8 -229.2)"/><path class="cls-5" d="M781,1722.9c0-64.1-41.1-95.2-41.1-95.2h658.6c49.8,0,90.2,32.6,90.2,72.7v45.7c0,40.2-40.4,72.7-90.2,72.7H739.9C739.9,1818.9,781,1803.7,781,1722.9Z" transform="translate(-232.8 -229.2)"/><path class="cls-5" d="M1488.8,1700.4v45.7a59.1,59.1,0,0,1-2.6,17.4c-22.2-43.8-64.8-86-145.8-99.6-189.2-31.7-600.4-36.4-600.4-36.4h658.6C1448.4,1627.7,1488.8,1660.3,1488.8,1700.4Z" transform="translate(-232.8 -229.2)"/><path class="cls-20" d="M2305,1855H476a9.82,9.82,0,0,1-9.8-9.8v-4.5a9.82,9.82,0,0,1,9.8-9.8H2305a9.82,9.82,0,0,1,9.8,9.8v4.5A9.82,9.82,0,0,1,2305,1855Z" transform="translate(-232.8 -229.2)"/><polygon class="cls-21" points="222.2 808.7 575.3 606.8 623 701.3 261.7 892.4 222.2 808.7"/><path class="cls-8" d="M1120.4,462.6s-2.8,27.5-24.5,29.4c21.7,1.9,24.5,29.4,24.5,29.4s2.8-27.5,24.5-29.4C1123.2,490.1,1120.4,462.6,1120.4,462.6Z" transform="translate(-232.8 -229.2)"/><path class="cls-18" d="M746,251.7s-3.7,36.6-32.6,39.1c28.9,2.5,32.6,39.1,32.6,39.1s3.7-36.6,32.6-39.1C749.7,288.3,746,251.7,746,251.7Z" transform="translate(-232.8 -229.2)"/><path class="cls-12" d="M594.7,578.8s-2.5,24.6-21.9,26.3c19.4,1.7,21.9,26.3,21.9,26.3s2.5-24.6,21.9-26.3C597.2,603.4,594.7,578.8,594.7,578.8Z" transform="translate(-232.8 -229.2)"/><path class="cls-12" d="M2312.2,1164.9s-3.7,36.6-32.6,39.1c28.9,2.5,32.6,39.1,32.6,39.1s3.7-36.6,32.6-39.1C2315.9,1201.5,2312.2,1164.9,2312.2,1164.9Z" transform="translate(-232.8 -229.2)"/><path class="cls-8" d="M265.4,842.8s-3.7,36.6-32.6,39.1c28.9,2.5,32.6,39.1,32.6,39.1s3.7-36.6,32.6-39.1C269.1,879.4,265.4,842.8,265.4,842.8Z" transform="translate(-232.8 -229.2)"/><path class="cls-8" d="M2389.3,803.7s-3.7,36.6-32.6,39.1c28.9,2.5,32.6,39.1,32.6,39.1s3.7-36.6,32.6-39.1C2393,840.3,2389.3,803.7,2389.3,803.7Z" transform="translate(-232.8 -229.2)"/><path class="cls-12" d="M1488.8,229.2s-3.7,36.6-32.6,39.1c28.9,2.5,32.6,39.1,32.6,39.1s3.7-36.6,32.6-39.1C1492.5,265.8,1488.8,229.2,1488.8,229.2Z" transform="translate(-232.8 -229.2)"/><path class="cls-18" d="M2107.2,534.7s-2,23.1-17.7,24.7c15.7,1.6,17.7,24.7,17.7,24.7s2-23.1,17.7-24.7C2109.2,557.8,2107.2,534.7,2107.2,534.7Z" transform="translate(-232.8 -229.2)"/><path class="cls-22" d="M808.5,1660.3l-48.8,2.5-6.2,144.6-24.9,12,1.2,5.3,9.3,2.2s30-.5,30.9-.5,7.1-6.8,7.1-6.8l-.9-1.2,5-3.4Z" transform="translate(-232.8 -229.2)"/><path class="cls-22" d="M940.6,1819.4s-24.3-12.2-24.9-12l5.5-147.3-60.4.2,27.4,154.6,3,2c-.7,2.6-1.3,4.8-1.5,5.5-.4,1.9,10.3,2.1,14,2.7s14.5,1.8,21.5,3.7,15.7-3.7,15.7-3.7Z" transform="translate(-232.8 -229.2)"/><path class="cls-23" d="M942.2,1262.8c-7-18.3-13.9-11.1-26.6-33.2a48.68,48.68,0,0,1-4.5-12.3,61.36,61.36,0,0,0-19.4-32.4c-29.8-25.7-63.5-14.3-63.5-14.3s8.7,49.7,10.4,59.8c-7.4,10.1-14.9,20.5-14.9,20.5s-15.7,81.7,8.9,88.6,29.1-4.2,41.1-9.9,23.7,10,41.7-1c13.7-8.4,6.7-29.2,14-33.1S949.8,1282.6,942.2,1262.8Z" transform="translate(-232.8 -229.2)"/><path class="cls-23" d="M815.5,1211.8c-.4-.2-11.7-6.5-22.3-12.5l65.6-73s-19.9-3.9-21.1-4S808,1131,808,1131l-29.4,8c-22.4,81.8-50.3,96.6-50.3,96.6a31,31,0,0,0-9.8,10.4c-11.1,18,.1,29.3,6.5,34.5s-4.3,24.4,7.6,35.1c15.6,14.1,30,.8,40.8,8.7s13.1,19.6,38.5,17.4,25.2-85.4,25.2-85.4S816.3,1212.2,815.5,1211.8Z" transform="translate(-232.8 -229.2)"/><path class="cls-12" d="M926.8,1361s21.6,103.3,15.4,114.5-88.7,14.7-88.7,14.7L850,1357.6l31.4-47.5Z" transform="translate(-232.8 -229.2)"/><path class="cls-24" d="M900.7,1480.6l-15.4-42.2s-50.7-18.5-53.9-18.7-46.1,18.7-46.1,18.7-13.1,26.5-15.7,31.3c-1.4,2.6,1.9,18.9,5.1,32.8l-18.2.9L744.4,1770s26.2,14.1,54.3,2l23.1-232.9,20.1-3L872.1,1767s24.1,18.1,58.4,3l-22.7-256.9A124.24,124.24,0,0,0,900.7,1480.6Z" transform="translate(-232.8 -229.2)"/><path class="cls-22" d="M802.1,1278.7s22.5-4.7,64.3-1.7-19.3,26.5-19.3,26.5-21.5-.7-22.4-.9S802.1,1278.7,802.1,1278.7Z" transform="translate(-232.8 -229.2)"/><rect class="cls-22" x="585.4" y="1025.8" width="37.1" height="65.2"/><path class="cls-25" d="M855.3,1266.2V1244H818.2v18.9C826.2,1267.2,838,1269.6,855.3,1266.2Z" transform="translate(-232.8 -229.2)"/><path class="cls-22" d="M907.3,1182.5c-3.5-1.8-7.7-1.4-11.4.5a60.6,60.6,0,0,0-121.2,0,12.75,12.75,0,0,0-11.4-.5c-6.8,3.4-8.9,13-4.7,21.5s13.1,12.7,19.9,9.3a15.1,15.1,0,0,0,2.6-1.8c3.9,27.8,27.1,48.6,54.2,48.2,27.2.4,50.3-20.4,54.2-48.2a12,12,0,0,0,2.6,1.8c6.8,3.4,15.7-.8,19.9-9.3S914.1,1185.9,907.3,1182.5Z" transform="translate(-232.8 -229.2)"/><path class="cls-26" d="M820,1194.9a5.11,5.11,0,1,1-5.4-4.8A5.13,5.13,0,0,1,820,1194.9Z" transform="translate(-232.8 -229.2)"/><path class="cls-26" d="M863.9,1195.4a5.11,5.11,0,1,1-5.4-4.8A5.13,5.13,0,0,1,863.9,1195.4Z" transform="translate(-232.8 -229.2)"/><path class="cls-23" d="M825.6,1184.5a45.53,45.53,0,0,0-7.4-2,28.39,28.39,0,0,0-7.1-.3,25.14,25.14,0,0,0-6.9,1.8l-.9.3c-.3.1-.5.3-.8.4l-1.7.8c-1.1.6-2.2,1.3-3.5,1.9a25.2,25.2,0,0,1,2.4-3.3,20,20,0,0,1,3.1-2.7,17.21,17.21,0,0,1,7.9-2.9,16.84,16.84,0,0,1,8.3,1.2A15.08,15.08,0,0,1,825.6,1184.5Z" transform="translate(-232.8 -229.2)"/><path class="cls-23" d="M846.1,1184.4a15.38,15.38,0,0,1,6.5-4.8,18.13,18.13,0,0,1,8.3-1.3,17.08,17.08,0,0,1,7.9,2.8,26.92,26.92,0,0,1,3.2,2.7,19.92,19.92,0,0,1,2.4,3.3c-1.3-.6-2.3-1.3-3.5-1.8l-1.7-.8c-.3-.1-.5-.3-.8-.4l-.9-.3a24.06,24.06,0,0,0-6.9-1.7,28.39,28.39,0,0,0-7.1.3A45.53,45.53,0,0,0,846.1,1184.4Z" transform="translate(-232.8 -229.2)"/><path class="cls-25" d="M837.8,1187.9a26.75,26.75,0,0,0,.4,8,34.5,34.5,0,0,0,1.1,4,9.43,9.43,0,0,0,2.4,3.7c1.4,1,1.9,1.4,2.3,2.3a3.72,3.72,0,0,1-.2,2.9c-1,2.1-3.1,3.6-5.5,4.7a9.2,9.2,0,0,0,7.3-3.8,5.8,5.8,0,0,0,.8-4.7,6.5,6.5,0,0,0-2.6-3.2,8.35,8.35,0,0,1-2.2-3,21.3,21.3,0,0,1-1.4-3.5C839.3,1193,838.6,1190.5,837.8,1187.9Z" transform="translate(-232.8 -229.2)"/><path class="cls-25" d="M821.1,1219.9a28.22,28.22,0,0,0,4.4,2.6,32.88,32.88,0,0,0,14.4,3.8,28,28,0,0,0,9.8-1.9,33.27,33.27,0,0,0,8.6-5.3,28.62,28.62,0,0,1-8.2,6.1,28.42,28.42,0,0,1-4.9,1.7,23.06,23.06,0,0,1-5.2.6,27.35,27.35,0,0,1-10.2-2.1A31.33,31.33,0,0,1,821.1,1219.9Z" transform="translate(-232.8 -229.2)"/><path class="cls-27" d="M908.9,1291.7c-20.1-19.5-47.9-15.4-47.9-15.4a41.74,41.74,0,0,1-9.3,7.2,37.49,37.49,0,0,1-16.1,4.3H835a39,39,0,0,1-16.1-4.3,44.93,44.93,0,0,1-9.3-7.2s-27.8-4.1-47.9,15.4-40.2,62.6-40.2,62.6,25.4,23.2,49.7,26.2c0,0,11.8,54.4,14.2,58a128.16,128.16,0,0,0,30,8.7,113.81,113.81,0,0,0,18.9,1.8h2.2a95.84,95.84,0,0,0,18.9-1.8,128.16,128.16,0,0,0,30-8.7c2.4-3.5,14.2-58,14.2-58,24.3-3,49.7-26.2,49.7-26.2S929.1,1311.2,908.9,1291.7Z" transform="translate(-232.8 -229.2)"/><path class="cls-10" d="M837.5,1423.7s7.5-1.2,11.6,4.2l-.3,14.1-9.1,4.3s-11.3-9.6-10.5-9.9S837.5,1423.7,837.5,1423.7Z" transform="translate(-232.8 -229.2)"/><polygon class="cls-10" points="627.9 1286.8 507.6 1321.6 496 1233.6 616.3 1198.8 627.9 1286.8"/><polygon class="cls-5" points="497.7 1307.5 508.2 1316.4 623.4 1283.4 613 1200.4 604.9 1197 497.7 1307.5"/><polygon class="cls-5" points="623.4 1283.4 615.2 1276.2 600.1 1259.7 601.1 1214.3 604.9 1197 613.1 1200.3 623.4 1283.4"/><polygon class="cls-12" points="615.2 1276.2 494.9 1311 484.4 1229.3 604.7 1194.5 615.2 1276.2"/><path class="cls-5" d="M788.9,1333.2a114.54,114.54,0,0,0-7.7,10.6,89.5,89.5,0,0,0-6.1,11.4,52.87,52.87,0,0,0-3.7,12.3,47,47,0,0,0-.3,13,30.9,30.9,0,0,1-1.3-13.2,43.91,43.91,0,0,1,3.4-12.9,60.32,60.32,0,0,1,15.7-21.2Z" transform="translate(-232.8 -229.2)"/><path class="cls-22" d="M764,1481.7c-21.2-35.9-11.4-79.5-3-103.6-16.6-5.4-32-17.5-37.5-22-33.8,76.3,23.4,141.6,23.4,141.6l.1-.1c1.1,2.5,1.9,4.7,1.9,4.7,13.5,24.4,14.1,24,15.1,23.7s-1.7-12-.5-11.9,9.7,14,10.3,12.7-5.7-15.2-4.8-15.4,8.9,13.4,10.7,12.2-7.5-15.8-5.7-16.2,10.9,14.9,12.4,13.5c1.2-1.1-8.6-18.4-11.8-23.9a1,1,0,0,1,1-1.5c12.5.7,13.5.1,13.3-1.3C788.7,1493.2,773.7,1486.2,764,1481.7Z" transform="translate(-232.8 -229.2)"/><path class="cls-10" d="M905.7,1280.1c-26,93.4,5.4,121,5.5,121.7l-4.7,21.7s-63.9-41.6-23.4-152.3a5.5,5.5,0,0,1,7.5-3.3l12.1,5.6A5.56,5.56,0,0,1,905.7,1280.1Z" transform="translate(-232.8 -229.2)"/><path class="cls-22" d="M962.4,1508.3s-.8-2.1-1.6-4.5h0l-1.2-9.1c-.8-20.5-4.2-93.4-15.4-136.2-8.5,6.8-26.7,19.6-44.3,21.9,11,23.1,34.1,76.2,38.1,124.6-4.1,9.2-9.6,22-9.1,22.7.7,1.1,1.9,1,10.3-7.4a.94.94,0,0,1,1.6.5c1.2,5.9,5.1,24.3,6.7,24.3,1.9,0-1.2-16.5.3-17.4s4.1,15.3,6.1,15.1-.9-15-.1-15.4,5,13.4,6.3,13.9-1.5-14.7-.6-15.5,6.2,9.1,7.1,8.8S968.1,1534.1,962.4,1508.3Z" transform="translate(-232.8 -229.2)"/><path class="cls-23" d="M764,1182.2s-3.8-69.5,73.7-74.1c0,0-2.4,68.2-63,74.9l-4.7-9.1Z" transform="translate(-232.8 -229.2)"/><path class="cls-23" d="M837.7,1108.1s62.8-3.5,66.1,73.4c0,0-4.6-.3-8,1.5,0,0-49.7-12.4-62.1-60.6Z" transform="translate(-232.8 -229.2)"/><path class="cls-28" d="M749.8,1824.7c-12.6,1.3-18.6-1.5-21.1-5.3l-8.6,5.6a4,4,0,0,0,2.2,7.4h55.6a3.48,3.48,0,0,0,3.5-3.5v-15C777.8,1817.5,769.4,1822.7,749.8,1824.7Z" transform="translate(-232.8 -229.2)"/><path class="cls-28" d="M919.4,1824.7c12.6,1.3,18.6-1.5,21.1-5.3l8.6,5.6a4,4,0,0,1-2.2,7.4H891.3a3.48,3.48,0,0,1-3.5-3.5v-15C891.4,1817.5,899.8,1822.7,919.4,1824.7Z" transform="translate(-232.8 -229.2)"/><path class="cls-5" d="M2113.6,1327.4l64.2,5.2-20.7,51.9-32.4-2.6-13.5,43.3a61.63,61.63,0,0,1-6.2-3c-1-.7-4.6-22.1-7.7-42.4Z" transform="translate(-232.8 -229.2)"/><path class="cls-28" d="M2150.2,1804.9v22.6a3.37,3.37,0,0,0,3.4,3.4h52.8a3.87,3.87,0,0,0,2.1-7.1l-29.6-18.9C2178.8,1804.9,2167.2,1813.4,2150.2,1804.9Z" transform="translate(-232.8 -229.2)"/><path class="cls-22" d="M2046.5,845.7a1,1,0,0,1-1.4-1.2c1.3-6.3,5.4-26.1,3.8-26.8-1.8-.8-5.8,16.8-7.7,17s2.5-16.9.5-17.4-5.5,15.1-6.5,15.2.8-15.3-.3-16.4-4.8,15.1-6,15.5-2.2-11.7-3.3-11.7-1.7-.2-7.1,27.6c0,0-.3,10.2-2.1,12.6l4,8.2,12.5.4s27.1-24.5,26.9-26C2059.6,841.4,2058.4,841.1,2046.5,845.7Z" transform="translate(-232.8 -229.2)"/><path class="cls-22" d="M2174.8,851.9a1.06,1.06,0,0,0,1.8-.4c1.7-6.2,7.1-25.7,8.8-25.6,2,.1-2.4,17.6-.9,18.6s5.4-16.2,7.5-15.7-2,16-1.1,16.5,6.3-14,7.7-14.5-2.6,15.7-1.8,16.6,7.3-9.4,8.2-8.9,1.6.6-6.3,27.8c0,0-4.4,9.2-3.9,12.2l-7.3,5.5-11.3-5.3s-12.9-34.1-12.1-35.4C2165.1,842.1,2166.3,842.3,2174.8,851.9Z" transform="translate(-232.8 -229.2)"/><polygon class="cls-22" points="1842.9 845.8 1843.1 893.5 1796.9 886.3 1804.6 832.8 1842.9 845.8"/><path class="cls-29" d="M2033.8,1086.6l3.6-24.7,38.4,17.6v9.4C2066.6,1091.2,2049.2,1093.2,2033.8,1086.6Z" transform="translate(-232.8 -229.2)"/><path class="cls-28" d="M1992.1,1802.4v24.8a3.76,3.76,0,0,1-3.7,3.7h-58.1a4.25,4.25,0,0,1-2.3-7.8l32.6-20.8C1960.6,1802.4,1973.4,1811.7,1992.1,1802.4Z" transform="translate(-232.8 -229.2)"/><path class="cls-24" d="M1939.1,1380.7c.1-5.3-13.7,10.3-13.4,6.1,5.4-88.1,177.6-14.2,177.6-14.2l42,30.8,47.5,408.4s-25.8,7.5-42.7,1.4l-105.1-350-12.9-5C2032,1458.2,1974.5,1418.1,1939.1,1380.7Z" transform="translate(-232.8 -229.2)"/><path class="cls-24" d="M1925.4,1390.4c0,1-.1,2.1-.1,3.2C1925.3,1392.5,1925.4,1391.4,1925.4,1390.4Z" transform="translate(-232.8 -229.2)"/><path class="cls-24" d="M1925.3,1393.6c0,1.1-.1,2.2-.1,3.4C1925.2,1395.9,1925.2,1394.7,1925.3,1393.6Z" transform="translate(-232.8 -229.2)"/><path class="cls-24" d="M1925.1,1397.5c0,1.2-.1,2.4-.1,3.7C1925.1,1399.9,1925.1,1398.7,1925.1,1397.5Z" transform="translate(-232.8 -229.2)"/><path class="cls-24" d="M1925.6,1386.8c-.1,1-.1,1.9-.2,3C1925.5,1388.7,1925.6,1387.8,1925.6,1386.8Z" transform="translate(-232.8 -229.2)"/><path class="cls-24" d="M1925.6,1366.8c35.5,37.4,106.4,91.5,106.4,91.5l12.9,5-12.9-5-40,353.6s-28.5,5.4-44.7-3.4C1947.3,1808.5,1923.3,1471.9,1925.6,1366.8Z" transform="translate(-232.8 -229.2)"/><path class="cls-24" d="M2192.7,1811.9a112,112,0,0,1-23.5,3.7,112,112,0,0,0,23.5-3.7Z" transform="translate(-232.8 -229.2)"/><path class="cls-24" d="M2155,1814.6c1.1.2,2.3.4,3.5.6C2157.3,1815,2156.1,1814.8,2155,1814.6Z" transform="translate(-232.8 -229.2)"/><path class="cls-24" d="M2169.2,1815.5a67.62,67.62,0,0,1-9-.2A54.13,54.13,0,0,0,2169.2,1815.5Z" transform="translate(-232.8 -229.2)"/><path class="cls-24" d="M2145.3,1403.4l6.8,58.3c-17.9,6.9-61.6,14.4-94.5-57.6-10.4-22.7-13-39-11.1-50.8a459.65,459.65,0,0,1,56.8,19.3Z" transform="translate(-232.8 -229.2)"/><path class="cls-30" d="M1988.3,1165.5c2,0,31.8-67.6,31.8-67.6,25.5,17.9,60.1,5.5,60.1,5.5s139.3,255,45.9,294.7-181.6-8.6-181.6-8.6-19.9-51.7-19.9-53.7S1986.3,1165.5,1988.3,1165.5Z" transform="translate(-232.8 -229.2)"/><path class="cls-27" d="M2168.9,879.2s6,121-5.3,143.1c-37.6,73.6-84.3,81-84.3,81s-16.1,257.3-2.8,318.9c0,0,44.1,13.6,109-16.9,0,0-49.7-199.5-47.1-224.7,0,0,79.5-70.9,82.2-154.4s-19.2-157.7-19.2-157.7Z" transform="translate(-232.8 -229.2)"/><path class="cls-27" d="M1954.5,1413s5-95.8,26.8-186.6,37.8-128.6,37.8-128.6c-29.3-32.3-24.5-61.5-21.9-99.4,3-43.7,45.7-131.2,45.7-131.2l-28.8-18.9c-138.2,166-61.6,298.2-61.6,298.2s-51.7,182.9-58.7,238.6A400.55,400.55,0,0,0,1954.5,1413Z" transform="translate(-232.8 -229.2)"/><path class="cls-16" d="M2137,1180.4a33.25,33.25,0,0,1-5.6-5.3c-5.9-7.1-8.9-15-11-23.9,1.3,3.8,4.7,14.8,11.8,23.2,3.2,3.7,4.9,4.9,6.5,5.9a1.2,1.2,0,0,0-.4.4v.5c-1.8.4-5.1.5-10.5-2.5a51.79,51.79,0,0,1-8.8-6.3,63.4,63.4,0,0,0,9.2,5.7C2130.6,1179.4,2134.3,1180.6,2137,1180.4Z" transform="translate(-232.8 -229.2)"/><path class="cls-16" d="M1953.5,1146a31.48,31.48,0,0,0,6.3-5.8c5.9-6.9,9.1-15,11.8-23.2-2.1,8.9-5.1,16.8-11,23.9a29.86,29.86,0,0,1-5.6,5.3,11.91,11.91,0,0,0,3.9-.5,23.37,23.37,0,0,0,5-1.9,72.5,72.5,0,0,0,9.2-5.7,47.33,47.33,0,0,1-8.8,6.3,22.82,22.82,0,0,1-5.1,2.1,10.89,10.89,0,0,1-5.7.3l-1.1-.3Z" transform="translate(-232.8 -229.2)"/><polygon class="cls-31" points="1776.6 748.6 1773.8 781.3 1778.9 784.6 1788.5 744.7 1776.6 748.6"/><path class="cls-25" d="M2016.3,1007.1c1.4,7.4-2.2,14.3-8.2,15.5s-11.9-3.9-13.3-11.4,2.2-14.3,8.2-15.5S2014.9,999.7,2016.3,1007.1Z" transform="translate(-232.8 -229.2)"/><path class="cls-22" d="M2007.8,1037.4a110.94,110.94,0,0,1-.5-27.5,48.86,48.86,0,0,0,.3-5.4,58.38,58.38,0,1,1,115.6,12.9,12.46,12.46,0,0,1,11.3,1.4c6.2,4.4,6.7,14.2,1.3,21.9s-14.9,10.4-21.1,6a8.83,8.83,0,0,1-2.2-2.1c-8.5,27.4-35.7,44.5-63.2,38.5C2028.4,1078.5,2011.2,1061.3,2007.8,1037.4Z" transform="translate(-232.8 -229.2)"/><path class="cls-26" d="M2071.1,1011.2a5.11,5.11,0,0,0,4.8,7,5,5,0,0,0,4.6-3.2,5.07,5.07,0,0,0-4.8-7A5,5,0,0,0,2071.1,1011.2Z" transform="translate(-232.8 -229.2)"/><path class="cls-26" d="M2027.8,1004.7a5.11,5.11,0,0,0,4.8,7,5,5,0,0,0,4.6-3.2,5.07,5.07,0,1,0-9.4-3.8Z" transform="translate(-232.8 -229.2)"/><path class="cls-25" d="M2064.3,1046.8a36.22,36.22,0,0,1-8.2,2.8,27,27,0,0,1-8.5.3,23.16,23.16,0,0,1-8-2.8,32.22,32.22,0,0,1-6.7-5.5,24.29,24.29,0,0,0,6.2,6.2,19.36,19.36,0,0,0,8.3,3.1,21.64,21.64,0,0,0,8.8-.6A22.66,22.66,0,0,0,2064.3,1046.8Z" transform="translate(-232.8 -229.2)"/><path class="cls-31" d="M2067,1000.9a41.83,41.83,0,0,1,7.6-.8,28.13,28.13,0,0,1,7.1.8,23.26,23.26,0,0,1,6.5,2.8,56.93,56.93,0,0,1,6.2,4.5,16.89,16.89,0,0,0-4.5-6.8,17,17,0,0,0-15.7-4.2A15.07,15.07,0,0,0,2067,1000.9Z" transform="translate(-232.8 -229.2)"/><path class="cls-31" d="M2046.7,997.5a15.84,15.84,0,0,0-5.7-5.8,17.22,17.22,0,0,0-8-2.6,16.84,16.84,0,0,0-8.3,1.5,16.63,16.63,0,0,0-6.4,5,61.78,61.78,0,0,1,7.3-2.2,24.39,24.39,0,0,1,7.1-.6,22,22,0,0,1,7,1.5A48.79,48.79,0,0,1,2046.7,997.5Z" transform="translate(-232.8 -229.2)"/><path class="cls-25" d="M2055.6,1004a79.76,79.76,0,0,0-12.3,15.2,19.08,19.08,0,0,0-2.5,5.9c-.2,1.1-.1,2.1,1.7,3.9a28,28,0,0,0,3.8,3.2,26.07,26.07,0,0,0,4.3,2.4,43.86,43.86,0,0,1-6.9-6.7,9.91,9.91,0,0,1-1.1-1.7,4.23,4.23,0,0,1,.3-1.8,27.43,27.43,0,0,1,2.1-4.2c1.6-2.7,3.4-5.4,5.2-8.1Z" transform="translate(-232.8 -229.2)"/><path class="cls-32" d="M2015.4,942.9s-17.2-3.3,4-13.7,73-16.4,100.1,6.8c0,0,9.1-11.7,17.3-6.6s-8.5,10.8-8.5,10.8,11.4,2.2,13.7,8.6c1.6,4.7-5.4,3.3-9.1,2.3,6.2,2.6,24.5,19.8.8,67-4.2-2-31.4-40.8-31.4-40.8s-54.7,18-44.7,3.1c0,0-63.7,16-48.3-12.9C2009.2,967.6,1985.8,964.1,2015.4,942.9Z" transform="translate(-232.8 -229.2)"/><path class="cls-32" d="M2133.6,1018.2s-4.1-3.2-10.4-.8-10.3,16.5-10.3,16.5-20.6,16.9-10.6-56.7c9.9-72.3,23.6,12,23.6,12Z" transform="translate(-232.8 -229.2)"/><path class="cls-10" d="M1979.7,773.1l-10.6-1a11.72,11.72,0,0,1,6.5-1.3l265.8,26.1c13.9,1.4,24.2,12.5,23,24.8l-1.4,14.2c-1.2,12.3-13.5,21.2-27.4,19.8l-262.8-25.9Z" transform="translate(-232.8 -229.2)"/><path class="cls-11" d="M2240.6,833.7l1.4-14.2c1.2-12.3-9.1-23.4-23-24.8l5.7.6c13.9,1.4,24.2,12.5,23,24.8l-1.4,14.2c-1.2,12.3-13.5,21.2-27.4,19.8l-5.6-.6C2227.2,854.9,2239.4,846,2240.6,833.7Z" transform="translate(-232.8 -229.2)"/><path class="cls-11" d="M2178.3,827.6l1.4-14.2c1.2-12.3-9.1-23.4-23-24.8l5.7.6c13.9,1.4,24.2,12.5,23,24.8l-1.4,14.2c-1.2,12.3-13.5,21.2-27.4,19.8l-5.6-.6C2164.9,848.8,2177.1,839.9,2178.3,827.6Z" transform="translate(-232.8 -229.2)"/><path class="cls-12" d="M2130.7,786.1c13.3,1.3,23.1,11.9,22,23.7l-1.6,16c-1.2,11.8-12.9,20.3-26.2,19l-165.4-16.3.4-3.6.7.1,42.4.6,11.4-28.7s-14.8-18-15.8-18.5-32.9-5-32.9-5l-.7-.1.4-3.6Z" transform="translate(-232.8 -229.2)"/><path class="cls-5" d="M1973.1,800.1c1.7-17.3-7.6-26.7-7.6-26.7l161.4,15.9c12.2,1.2,21.3,11,20.2,21.8l-1.2,12.3c-1.1,10.8-11.8,18.6-24,17.4L1960.5,825S1971,821.9,1973.1,800.1Z" transform="translate(-232.8 -229.2)"/><path class="cls-5" d="M2147.2,811.1l-1.2,12.3a17.2,17.2,0,0,1-1.1,4.6c-4.3-12.3-13.6-24.7-33.1-30.3-45.5-13.1-146.2-24.3-146.2-24.3L2127,789.3C2139.2,790.6,2148.3,800.3,2147.2,811.1Z" transform="translate(-232.8 -229.2)"/><path class="cls-33" d="M1721.3,1132.8l-9.2,20.6a3.4,3.4,0,0,0,1.7,4.5l48.1,21.6a3.85,3.85,0,0,0,4.8-5.6l-18.6-29C1748,1144.8,1733.3,1147.5,1721.3,1132.8Z" transform="translate(-232.8 -229.2)"/><path class="cls-28" d="M1660.1,1132.8l-9.2,20.6a3.4,3.4,0,0,0,1.7,4.5l48.1,21.6a3.85,3.85,0,0,0,4.8-5.6l-18.6-29C1686.8,1144.8,1672.1,1147.5,1660.1,1132.8Z" transform="translate(-232.8 -229.2)"/><path class="cls-31" d="M1556.1,565.9,1551,598l-10.8-42.8s15.2-7.4,15.8-4.7S1556.1,565.9,1556.1,565.9Z" transform="translate(-232.8 -229.2)"/><polygon class="cls-22" points="1237.3 405.8 1232.6 461.3 1281.6 459 1275.9 409.8 1237.3 405.8"/><path class="cls-25" d="M1511.4,662.4l-2.7-23.4-38.7-4-1.6,19.2C1476.1,661.9,1489.9,669.9,1511.4,662.4Z" transform="translate(-232.8 -229.2)"/><path class="cls-25" d="M1541.4,597.6c-2.9,6.1-1.4,12.9,3.5,15.3s11.2-.7,14.2-6.8,1.4-12.9-3.5-15.3S1544.4,591.5,1541.4,597.6Z" transform="translate(-232.8 -229.2)"/><path class="cls-22" d="M1548.5,602.1c.3-1.6.6-3.2,1-4.7a53.81,53.81,0,0,0,.9-20.1,52.35,52.35,0,0,0-104,4.5c-3.2-2-6.8-2.7-10.1-1.4-6.4,2.4-9.1,10.8-6.2,18.7s10.5,12.5,16.9,10.1a9.21,9.21,0,0,0,2.4-1.3c1,25.7,20.7,46.8,45.8,48a46.82,46.82,0,0,0,32.6-11.2C1540,635.7,1546.1,616.9,1548.5,602.1Z" transform="translate(-232.8 -229.2)"/><path class="cls-25" d="M1510.4,585.3c.1,3,.1,5.9.3,8.8s.5,5.8,1.6,7.8c1.1,1.6,2,2.6,2.1,4.6a5.88,5.88,0,0,1-2.3,4.8,10.27,10.27,0,0,1-9,1.8c2.9-.5,5.7-1.5,7.4-3.4a3.78,3.78,0,0,0,1.1-3c-.1-1.1-.5-1.3-1.8-3.2a12.52,12.52,0,0,1-1.4-4.8,35.29,35.29,0,0,1,0-4.6A28.93,28.93,0,0,1,1510.4,585.3Z" transform="translate(-232.8 -229.2)"/><path class="cls-26" d="M1493,588.5a4.58,4.58,0,1,1-3.6-4A4.8,4.8,0,0,1,1493,588.5Z" transform="translate(-232.8 -229.2)"/><path class="cls-26" d="M1532.1,593a4.58,4.58,0,1,1-3.6-4A4.61,4.61,0,0,1,1532.1,593Z" transform="translate(-232.8 -229.2)"/><path class="cls-25" d="M1485.4,620.2c1.2,1,2.5,2,3.8,2.9a33.76,33.76,0,0,0,4.1,2.4,25.51,25.51,0,0,0,8.9,2.7,23.79,23.79,0,0,0,9.2-.7,31.68,31.68,0,0,0,8.6-3.9,25.44,25.44,0,0,1-8.3,4.8,22.08,22.08,0,0,1-9.6,1,24,24,0,0,1-9.1-3.1A27.22,27.22,0,0,1,1485.4,620.2Z" transform="translate(-232.8 -229.2)"/><path class="cls-31" d="M1498.8,579a43.28,43.28,0,0,0-6.7-1.6,22.27,22.27,0,0,0-6.3-.1,22,22,0,0,0-6.1,1.6c-1.5.5-5.2,2.6-6.2,3.1a14.23,14.23,0,0,1,4.8-5.5,14.66,14.66,0,0,1,7.1-2.7,15.75,15.75,0,0,1,7.5,1A12.89,12.89,0,0,1,1498.8,579Z" transform="translate(-232.8 -229.2)"/><path class="cls-31" d="M1518.9,581.2a14.4,14.4,0,0,1,6.6-3.1,15.15,15.15,0,0,1,7.6.5,15.8,15.8,0,0,1,6.4,4,15,15,0,0,1,3.6,6.4c-.9-.6-4.1-3.4-5.5-4.2a21.57,21.57,0,0,0-5.7-2.8,26,26,0,0,0-6.3-1.1C1523.6,580.9,1521.3,581,1518.9,581.2Z" transform="translate(-232.8 -229.2)"/><path class="cls-24" d="M1497,895.4s-10.2,69.3,56.7,81.4,150.2,8.5,150.2,8.5l11.6,159.2,35,1.8s90-221.1-34.6-255.7L1604,891l-46.1-3.3s-46.6-11.5-47.2-9.3S1498.1,896.5,1497,895.4Z" transform="translate(-232.8 -229.2)"/><path class="cls-24" d="M1435.5,895.8s-10.2,69.3,56.7,81.4,150.2,8.5,150.2,8.5l11.6,159.2,35,1.8s90-221.1-34.6-255.7l-111.9.5-46.1-3.3s-46.6-11.5-47.2-9.3S1436.6,896.9,1435.5,895.8Z" transform="translate(-232.8 -229.2)"/><path class="cls-27" d="M1519.8,668.4s46.1,5.9,57.8,15.4,68,149.3,68,149.3L1598.8,888l-99.5.7s-74.6,40.2-121.5,2.2-22.7-170.5,4.4-199,75.4-27.8,75.4-27.8S1501.5,694.7,1519.8,668.4Z" transform="translate(-232.8 -229.2)"/><path class="cls-16" d="M1430.6,737.9A197.8,197.8,0,0,1,1434,761c.4,3.9.6,7.8.8,11.7s.2,7.8.2,11.7a167.78,167.78,0,0,1-1.9,23.4c-1.3,7.7-3.2,15.4-6.8,22.4a117,117,0,0,0,4.5-22.7c.8-7.7,1.1-15.4,1.2-23.1s0-15.4-.3-23.2S1431,745.7,1430.6,737.9Z" transform="translate(-232.8 -229.2)"/><path class="cls-16" d="M1568.5,732.8q3.15,17,6.6,33.9c2.3,11.3,4.7,22.5,7.4,33.7s5.7,22.2,9.3,33.1a155.48,155.48,0,0,0,6.2,16,61,61,0,0,0,8.8,14.7c-4.2-4-7.4-9-10.2-14a126.13,126.13,0,0,1-7.1-15.9c-2.1-5.4-3.8-10.9-5.5-16.5s-3.1-11.1-4.5-16.7-2.6-11.3-3.7-16.9-2.2-11.3-3.1-17C1570.9,755.7,1569.4,744.3,1568.5,732.8Z" transform="translate(-232.8 -229.2)"/><path class="cls-34" d="M1668.3,758.1c-8.5-13.3-78.3-35.8-78.3-35.8v22.4l71,24.8Z" transform="translate(-232.8 -229.2)"/><polygon class="cls-16" points="1430.5 528 1349.5 490.6 1349.5 505.1 1428.5 533.6 1430.5 528"/><polygon class="cls-34" points="1426 528 1340.5 495.6 1340.5 520.6 1425.1 533.6 1426 528"/><path class="cls-16" d="M1668.3,754.6s16.5-38.5,23.2-46.5c0,25.4-10.3,57.3-10.3,57.3Z" transform="translate(-232.8 -229.2)"/><polygon class="cls-34" points="1442.7 527.1 1462.7 476.6 1462.7 500.7 1449 533.6 1442.7 527.1"/><polygon class="cls-16" points="1449 528 1470.7 478.9 1470.7 496.4 1449 528"/><polygon class="cls-35" points="1449 679.3 1476.4 632 1476.4 480.7 1449 528 1449 679.3"/><polygon class="cls-4" points="1322.4 656.4 1419.7 679.3 1419.7 528 1322.4 505.1 1322.4 656.4"/><path class="cls-36" d="M1652.5,757.2c8.6-4.1,26.5-2.7,29.3,0C1680.3,765.8,1654.6,767.5,1652.5,757.2Z" transform="translate(-232.8 -229.2)"/><path class="cls-37" d="M1652.5,908.5c0,3.7,29.4,3.7,29.4,0V757.2c-3,4.4-26.1,4.3-29.4,0Z" transform="translate(-232.8 -229.2)"/><path class="cls-22" d="M1591.7,856.3c-.3-2.3-17.9-4.9-24.3-5.2-4.9-.3-37.4-1.3-48.4-1.8l.8,2.8-.2,12.5-1.8,8.3c9.7.6,33.4,1.5,38.3,2.5,6.6,1.3,18,6.3,18,6.3s4.8-1.1-1.3-3.7a29.4,29.4,0,0,1-9.7-6.9c-.8-.9.1-2.6.7-2.4,16.4,4.3,18.1,5,18.1,5s19.3-.1.1-4.5c-11.5-2.6-15.6-4.1-16.7-5.4-.4-.5.3-2.4,1-2.5,10-.6,27.9,2.9,23,.6-4-1.9-16.6-4-21.5-4.7-.3,0-.8-1.9.6-2C1577.9,854.4,1591.9,858.4,1591.7,856.3Z" transform="translate(-232.8 -229.2)"/><path class="cls-16" d="M1419.3,828.2c4,1,8,2.1,12.1,3s8.1,1.7,12.2,2.5c8.2,1.5,16.3,2.8,24.5,3.9s16.4,2.1,24.7,2.9,16.6,1.5,24.7,2l1.1.1.2.9a58.94,58.94,0,0,1,1.5,8.2,75.5,75.5,0,0,1,.5,8.3,58.1,58.1,0,0,1-.7,8.3,38.65,38.65,0,0,1-2.4,8l-.1.2-.2.1-9,6.1c-3,2-6,4-9.1,6,2.8-2.3,5.7-4.5,8.6-6.7l8.6-6.6-.3.3a41.26,41.26,0,0,0,1.9-7.7,53,53,0,0,0,.4-8c-.1-2.7-.4-5.3-.7-8a67.37,67.37,0,0,0-1.6-7.8l1.3,1c-4.3-.1-8.4-.4-12.6-.7s-8.3-.6-12.5-1.1c-8.3-.9-16.6-1.9-24.8-3.2s-16.4-2.9-24.5-4.9c-4-1-8.1-2-12.1-3.3C1427.2,831,1423.2,829.6,1419.3,828.2Z" transform="translate(-232.8 -229.2)"/><path class="cls-31" d="M1557.1,535.6s15.4.5-.8-12.5-59.4-28.2-87.2-13.6c0,0-5.5-11.8-13.6-9s5.2,10.9,5.2,10.9-10.2-.3-13.4,4.7c-2.3,3.7,4,3.9,7.4,3.7-5.8,1-28.2,15.1-17,60.2,4-.9,26.7-33.8,26.7-33.8s52,28.9,46.8,5.9c0,0,53.8,33.6,46.2,5.8C1557.6,558,1578.4,559.5,1557.1,535.6Z" transform="translate(-232.8 -229.2)"/><path class="cls-31" d="M1437.8,580.3s4.3-1.5,8.9,2.2,4.1,16.6,4.1,16.6,22.1,14.2,19.8-46c-2.5-64.1-18.4,5.1-18.4,5.1Z" transform="translate(-232.8 -229.2)"/><path class="cls-28" d="M1240,1782.7l9.2,20.6a3.4,3.4,0,0,1-1.7,4.5l-48.1,21.6a3.84,3.84,0,0,1-4.8-5.6l18.6-29C1213.2,1794.7,1228,1797.4,1240,1782.7Z" transform="translate(-232.8 -229.2)"/><path class="cls-28" d="M1302.4,1780.3l9.2,20.6a3.4,3.4,0,0,1-1.7,4.5l-48.1,21.6a3.85,3.85,0,0,1-4.8-5.6l18.6-29C1275.6,1792.3,1290.4,1794.9,1302.4,1780.3Z" transform="translate(-232.8 -229.2)"/><path d="M1358.6,1114.5s-52.5-8.8-70.1,49.8l21.7,32.5s45.6-17.5,45.8-19.2S1358.6,1114.5,1358.6,1114.5Z" transform="translate(-232.8 -229.2)"/><path d="M1443.1,1140.9s15.3,23,23.1,32.1c19.6,23,22.2,15.8,34.4,35.5,13.2,21.3-.2,34.7-7.7,40.8s5.1,28.9-9,41.6c-18.5,16.7-35.6,1-48.3,10.3s-15.5,23.2-45.6,20.6-29.8-101.1-29.8-101.1,24.7-52.2,25.6-52.7S1443.1,1140.9,1443.1,1140.9Z" transform="translate(-232.8 -229.2)"/><path d="M1288.6,1164.2s-1.8,18.1-7.8,28.5c-15,26.2-23.1,17.6-31.5,39.3-9,23.4,6.6,34,15.2,38.7s.3,29.3,16.6,39.2c21.2,13,35.1-5.7,49.4,1.2s19.5,19.9,48.6,11.8,10.6-104.9,10.6-104.9-33.9-46.8-35-47C1353.6,1170.6,1288.6,1164.2,1288.6,1164.2Z" transform="translate(-232.8 -229.2)"/><path class="cls-22" d="M1364.7,1280.9s50.3-9.3,73.4-8.5-14,60.9-14,60.9l-37.8.8s-23.2-25.9-21.6-28.9-.1-22.7-.1-22.7Z" transform="translate(-232.8 -229.2)"/><path class="cls-22" d="M1409.5,1232.9l13.3,40.3s-11.5,23.9-46.9,13.6c0,0,4-8.3-1.4-25.5C1369,1243.7,1409.5,1232.9,1409.5,1232.9Z" transform="translate(-232.8 -229.2)"/><path class="cls-29" d="M1409.5,1232.9l6.2,18.8c-3.7,13.7-15.7,23.1-38.4,26a54.15,54.15,0,0,0-2.8-16.5C1369,1243.7,1409.5,1232.9,1409.5,1232.9Z" transform="translate(-232.8 -229.2)"/><path class="cls-25" d="M1328.6,1203.5c2.9,6.5,1,13.7-4.3,16s-11.8-1.1-14.7-7.7-1-13.7,4.3-16S1325.8,1196.9,1328.6,1203.5Z" transform="translate(-232.8 -229.2)"/><path class="cls-22" d="M1327.2,1233.1a102.57,102.57,0,0,1-6.2-25.3,40.14,40.14,0,0,0-.9-5,54.44,54.44,0,0,1-.1-21.3,55.25,55.25,0,0,1,109.5,8.9c3.4-2,7.3-2.6,10.7-1.1,6.6,2.8,9.2,11.7,5.8,20s-11.6,12.8-18.2,10a10.37,10.37,0,0,1-2.5-1.5c-2,27.1-23.6,48.6-50.2,48.8C1355,1266.8,1335.4,1254.7,1327.2,1233.1Z" transform="translate(-232.8 -229.2)"/><path class="cls-25" d="M1361.8,1191.7a36.48,36.48,0,0,1,1.8,9.3,27.16,27.16,0,0,1-.2,4.9,12.92,12.92,0,0,1-1.7,5c-1.2,1.6-1.8,2.1-2,3.3a4.41,4.41,0,0,0,1.1,3.3c1.7,2.1,4.6,3.2,7.7,3.9a10.87,10.87,0,0,1-9.4-2.2,6.71,6.71,0,0,1-2.2-5.1c.1-2.1,1.1-3.1,2.4-4.7a10.72,10.72,0,0,0,1.4-3.8c.3-1.4.4-2.9.6-4.4C1361.5,1197.9,1361.7,1194.8,1361.8,1191.7Z" transform="translate(-232.8 -229.2)"/><path class="cls-26" d="M1380,1195.8a4.83,4.83,0,0,0,5.6,5.5,4.67,4.67,0,0,0,3.9-4,4.83,4.83,0,0,0-5.6-5.5A4.67,4.67,0,0,0,1380,1195.8Z" transform="translate(-232.8 -229.2)"/><path class="cls-26" d="M1338.7,1198.9a4.83,4.83,0,0,0,5.6,5.5,4.89,4.89,0,0,0,4-4,4.83,4.83,0,0,0-5.6-5.5A4.77,4.77,0,0,0,1338.7,1198.9Z" transform="translate(-232.8 -229.2)"/><path class="cls-38" d="M1380.8,1233.2a16.08,16.08,0,0,0-13.4,1.8s-7-4.4-12.5-.2c0,0,2.6,10.4,14.1,9.7S1380.8,1233.2,1380.8,1233.2Z" transform="translate(-232.8 -229.2)"/><path class="cls-25" d="M1386.9,1229.4a38.07,38.07,0,0,1-4.1,2.9,26.38,26.38,0,0,1-4.4,2.3,28.43,28.43,0,0,1-9.5,2.5,24.62,24.62,0,0,1-9.7-1.1,38.81,38.81,0,0,1-8.9-4.4,30.47,30.47,0,0,0,4,3.1,32.9,32.9,0,0,0,4.6,2.3,28.26,28.26,0,0,0,5,1.3,21.76,21.76,0,0,0,5.1.1,25.85,25.85,0,0,0,9.8-2.9A30.28,30.28,0,0,0,1386.9,1229.4Z" transform="translate(-232.8 -229.2)"/><path d="M1374.4,1185.4a38.68,38.68,0,0,1,7.1-1.4,25,25,0,0,1,6.7.1,24.72,24.72,0,0,1,6.4,1.9c1.6.6,5.4,3,6.4,3.5a16.59,16.59,0,0,0-4.8-6,15.26,15.26,0,0,0-7.4-3.1,16.65,16.65,0,0,0-8,.8A13.33,13.33,0,0,0,1374.4,1185.4Z" transform="translate(-232.8 -229.2)"/><path d="M1353,1187a14.65,14.65,0,0,0-6.9-3.5,16.67,16.67,0,0,0-8,.2,16.24,16.24,0,0,0-11,10.6c.9-.6,4.4-3.5,5.9-4.2a20.7,20.7,0,0,1,6.1-2.7,23.91,23.91,0,0,1,6.6-.9A61.07,61.07,0,0,1,1353,1187Z" transform="translate(-232.8 -229.2)"/><path class="cls-22" d="M1452.2,1526.9s14.8,69.8-52.5,86.4-152.2,18.3-152.2,18.3l-1.6,162.6-35.4,4.1s-105.7-219.1,18.7-262.2l113.9-6.6,46.7-6.3s46.7-14.7,47.4-12.5C1437.8,1512.7,1451.1,1528.1,1452.2,1526.9Z" transform="translate(-232.8 -229.2)"/><path class="cls-22" d="M1514.7,1523.3s14.8,69.8-52.5,86.4S1310,1628,1310,1628l-1.6,162.6-35.4,4.1s-105.7-219.1,18.7-262.2l113.9-6.6,46.7-6.3s46.7-14.7,47.4-12.5C1500.4,1509.1,1513.7,1524.5,1514.7,1523.3Z" transform="translate(-232.8 -229.2)"/><path class="cls-24" d="M1272.8,1515.1c-56.7.9-108.5,33.4-126.9,96.7s-60.4,128.5-56.4,127.9c89,49.8,117-.2,178.5,14.6s83.3,8.1,83.3,8.1c-17.8-89.3-41.2-134.5-41.2-134.5,5.2.9,156.1,3.2,193.4-38.2,10.5-11.6,18.5-26.2,16.9-61.8C1517.4,1461.6,1289.3,1514.8,1272.8,1515.1Z" transform="translate(-232.8 -229.2)"/><path class="cls-5" d="M1289.7,1632.6c1.9-.4,3.9-.7,5.8-1.1s3.8-1,5.7-1.5c.9-.3,1.9-.6,2.8-1a22.88,22.88,0,0,1-2.8-.8,25.67,25.67,0,0,1-5.2-2.7,26.53,26.53,0,0,1-4.3-3.8,30.35,30.35,0,0,1-3.4-4.6l1.9,2.1c.7.6,1.3,1.3,2.1,1.9a28.89,28.89,0,0,0,4.5,3.3,25,25,0,0,0,5,2.3,20,20,0,0,0,5.3,1.1l3.1.1-2.8,1.3a32.29,32.29,0,0,1-5.7,2c-1.9.5-3.9.9-5.9,1.3a59.28,59.28,0,0,1-5.9.7c-2,.1-4,.2-5.9.2C1285.8,1633.2,1287.8,1633,1289.7,1632.6Z" transform="translate(-232.8 -229.2)"/><path class="cls-22" d="M1307.5,1378.9s-4.6,114-17.4,131.9l70.5-16V1370.7Z" transform="translate(-232.8 -229.2)"/><path class="cls-27" d="M1336,1394.5s11.4,28.7,13.2,43.9c4.4,37.9-.4,64.6-8.2,86.1-11,30.2,74.1,18.7,76.1,18.8,89.9,2.1,89-1.5,89-1.5l14.3-11.5c-2-36.9-7.1-68.9-6.3-101.8l.8-34-4.1-34.3-127.2-10Z" transform="translate(-232.8 -229.2)"/><path class="cls-34" d="M1292.5,1419.8c7.8-12.1,71.4-32.6,71.4-32.6v20.5l-64.8,22.6Z" transform="translate(-232.8 -229.2)"/><path class="cls-34" d="M1292.5,1419.8c7.8-12.1,71.4-32.6,71.4-32.6v20.5l-64.8,22.6Z" transform="translate(-232.8 -229.2)"/><polygon class="cls-16" points="1064.3 1189.8 1138.2 1155.7 1138.2 1168.9 1066.1 1195 1064.3 1189.8"/><polygon class="cls-34" points="1068.4 1189.8 1146.4 1160.3 1146.4 1183.1 1069.2 1195 1068.4 1189.8"/><path class="cls-16" d="M1292.5,1416.7s-15-35.2-21.2-42.5c0,23.1,9.4,52.2,9.4,52.2Z" transform="translate(-232.8 -229.2)"/><polygon class="cls-34" points="1053.1 1189 1034.9 1142.9 1034.9 1164.9 1047.4 1195 1053.1 1189"/><polygon class="cls-16" points="1047.4 1189.8 1027.5 1145 1027.5 1161 1047.4 1189.8"/><polygon class="cls-39" points="1047.4 1327.8 1029.2 1285.9 1029.2 1147.8 1047.4 1189.8 1047.4 1327.8"/><polygon class="cls-12" points="1162.9 1307 1074.1 1327.8 1074.1 1189.8 1162.9 1168.9 1162.9 1307"/><path class="cls-36" d="M1306.9,1419c-7.8-3.7-24.2-2.4-26.7,0C1281.6,1426.9,1304.9,1428.4,1306.9,1419Z" transform="translate(-232.8 -229.2)"/><path class="cls-40" d="M1306.9,1557c0,3.4-26.8,3.4-26.8,0V1419c2.7,4,23.8,3.9,26.8,0Z" transform="translate(-232.8 -229.2)"/><path class="cls-22" d="M1541.6,1365.1l-60.4,28s-4.7,77.3-7.6,80.7c-5.3,6.2-58.8,23.9-87,29.1a26.3,26.3,0,0,1-13.6-1.1c-14-4.9-38.7-13.8-42.7-15.2-6.1-2.1-23.4-6.2-24.6-4.1-1,1.9,13.5,3.3,22,7.6,1.2.6.1,2.1-.2,2-4.8-1.1-17.3-3.8-21.7-3.5-5.4.3,12.5,3.7,21.6,7.9.6.3.7,2.3.1,2.7-1.4.8-5.8.7-17.5-1.1-19.5-3.1-1.5,4.2-1.5,4.2s1.8,0,18.7,2c.6.1.8,1.9-.3,2.5a29,29,0,0,1-11.6,2.9c-6.6.2-2.6,3-2.6,3s12.5-.4,19.1.8c4.9.9,27.3,8.8,36.5,11.8l1.1-1.4c12.8,3,130.8,11.6,145.1-23.4C1541,1436.1,1541.6,1365.1,1541.6,1365.1Z" transform="translate(-232.8 -229.2)"/><path class="cls-27" d="M1364.7,1280.9s34.2,39.9,73.4-8.5c0,0,42.9-3.5,74.5,18.9s50.5,72.8,50.5,72.8-45.4,30.2-81.9,30.2l-85.7-30.7-59.4,30.7s-27.6-1.8-50.9-13.7C1285.1,1380.7,1289.1,1300.6,1364.7,1280.9Z" transform="translate(-232.8 -229.2)"/><path class="cls-31" d="M1470.7,1349c1.5,4.9,2.8,9.9,4.1,14.9,2.5,9.8,4.7,19.1,6.4,29.2a52.92,52.92,0,0,0,9.7-.8c16.5-2.9,27.3-7.6,42-13.6,22-10,19-9.1,30.1-14.5a280,280,0,0,1-29.2,16.5c-12.9,6-25.2,11.5-42.5,14.5-7.6,1-9.7.8-12.6.5-1.1-7.4-2.4-14.9-5.9-31.4l-3.3-15.1-3.4-15.1C1467.8,1339.1,1469.3,1344,1470.7,1349Z" transform="translate(-232.8 -229.2)"/><path class="cls-31" d="M1334.9,1358.3a81.48,81.48,0,0,0-1.4,18.3c.1,3,2.3,11.3,4.8,19.7a7.84,7.84,0,0,1-1.4.5c-2.9-8.5-5.4-16.9-5.8-20a67.05,67.05,0,0,1,.8-19,96.84,96.84,0,0,1,5.2-18.2,94.63,94.63,0,0,1,8.3-16.9c-2.2,5.9-4.3,11.7-6.1,17.7A133.64,133.64,0,0,0,1334.9,1358.3Z" transform="translate(-232.8 -229.2)"/><path d="M1429.4,1190.4s-58.7-14.2-86.8-54.1c0,0-.5-36.3,53.4-28.1C1448.5,1116.3,1460.7,1167.2,1429.4,1190.4Z" transform="translate(-232.8 -229.2)"/><g class="cls-14"><g class="cls-41"><path class="cls-16" d="M1667.1,808.6a4.1,4.1,0,0,1-2.8-.9,4.24,4.24,0,0,1-1.1-3.6v-.7a.75.75,0,0,1,.1-.5l9.4-.9v1.4a5.48,5.48,0,0,1-1.4,3.8,6,6,0,0,1-3.6,1.5,1.27,1.27,0,0,0-.6-.1m8.3-10.2-14.5,1.3a20,20,0,0,0-.4,2.4c-.1.8-.1,1.5-.2,2.1a18.27,18.27,0,0,0,.3,3.5,7.07,7.07,0,0,0,1.3,2.6,5.13,5.13,0,0,0,2.3,1.5,8.52,8.52,0,0,0,2.3.3h1a9,9,0,0,0,3.5-.9,6.54,6.54,0,0,0,2.4-1.9,10.62,10.62,0,0,0,1.5-2.8,18.22,18.22,0,0,0,.6-3.5v-2.1a9.82,9.82,0,0,0-.1-2.5" transform="translate(-232.8 -229.2)"/><path class="cls-16" d="M1666.4,825.5a4.87,4.87,0,0,1-1.2-.1,3.39,3.39,0,0,1-1.5-.6,2.73,2.73,0,0,1-.9-1.2,4.15,4.15,0,0,1-.3-1.6,4.71,4.71,0,0,1,.4-1.7,6.42,6.42,0,0,1,1-1.3,4.62,4.62,0,0,1,1.5-.9,11.7,11.7,0,0,1,2-.5h.7a4.48,4.48,0,0,1,1.2.1,3.39,3.39,0,0,1,1.5.6,3.13,3.13,0,0,1,.9,1.1,4.15,4.15,0,0,1,.3,1.6,4.71,4.71,0,0,1-.4,1.7,3.25,3.25,0,0,1-1,1.3,4.17,4.17,0,0,1-1.6.9,6.47,6.47,0,0,1-2,.4c-.1.2-.4.2-.6.2m2.2-11.4h-1a9,9,0,0,0-3.4.9,9.42,9.42,0,0,0-2.5,1.8,8.21,8.21,0,0,0-1.6,2.5,7.17,7.17,0,0,0-.6,2.9,9.25,9.25,0,0,0,.4,2.9,5.31,5.31,0,0,0,3.8,3.5,8,8,0,0,0,2.3.3,4.48,4.48,0,0,0,1.1-.1,9,9,0,0,0,3.4-.9,9.42,9.42,0,0,0,2.5-1.8,8.21,8.21,0,0,0,1.6-2.5,7.17,7.17,0,0,0,.6-2.9,8.63,8.63,0,0,0-.4-2.8,5.55,5.55,0,0,0-1.4-2.2,5.66,5.66,0,0,0-2.4-1.4,19.42,19.42,0,0,0-2.4-.2" transform="translate(-232.8 -229.2)"/><path class="cls-16" d="M1660.4,830.8a15,15,0,0,0-.9,1.8,6.57,6.57,0,0,0-.4,2.5,9.78,9.78,0,0,0,.3,2.6,3,3,0,0,0,1.1,1.5,3.25,3.25,0,0,0,1.7.7,4.87,4.87,0,0,0,1.2.1h.8l9.9-.9.1-3.3-9.7.9h-.6a2,2,0,0,1-1.4-.4,1.77,1.77,0,0,1-.5-1.7,4.15,4.15,0,0,1,.3-1.6,9.14,9.14,0,0,1,.7-1.4l-2.6-.8" transform="translate(-232.8 -229.2)"/><path class="cls-16" d="M1665.3,853.8a4.87,4.87,0,0,1-1.2-.1,3.39,3.39,0,0,1-1.5-.6,2.73,2.73,0,0,1-.9-1.2,4.15,4.15,0,0,1-.3-1.6,4.71,4.71,0,0,1,.4-1.7,6.42,6.42,0,0,1,1-1.3,4.62,4.62,0,0,1,1.5-.9,11.7,11.7,0,0,1,2-.5h.7a4.48,4.48,0,0,1,1.2.1,3.39,3.39,0,0,1,1.5.6,3.13,3.13,0,0,1,.9,1.1,4.15,4.15,0,0,1,.3,1.6,4.71,4.71,0,0,1-.4,1.7,4.49,4.49,0,0,1-1,1.3,4.17,4.17,0,0,1-1.6.9,11.7,11.7,0,0,1-2,.5c-.1,0-.4.1-.6.1m2.2-11.4h-1a9,9,0,0,0-3.4.9,9.42,9.42,0,0,0-2.5,1.8,8.21,8.21,0,0,0-1.6,2.5,7.17,7.17,0,0,0-.6,2.9,9.25,9.25,0,0,0,.4,2.9,5.31,5.31,0,0,0,3.8,3.5,8,8,0,0,0,2.3.3,4.48,4.48,0,0,0,1.1-.1,9,9,0,0,0,3.4-.9,9.42,9.42,0,0,0,2.5-1.8,8.21,8.21,0,0,0,1.6-2.5,7.17,7.17,0,0,0,.6-2.9,8.63,8.63,0,0,0-.4-2.8,5.55,5.55,0,0,0-1.4-2.2,5.66,5.66,0,0,0-2.4-1.4,17.91,17.91,0,0,0-2.4-.2" transform="translate(-232.8 -229.2)"/><path class="cls-16" d="M1673.3,859.1l-9.3.9a8.44,8.44,0,0,0-2.4.6,5,5,0,0,0-1.9,1.3,5.78,5.78,0,0,0-1.3,2,7.63,7.63,0,0,0-.5,2.7,10.06,10.06,0,0,0,.3,2.7,5.44,5.44,0,0,0,1.1,1.8,3.84,3.84,0,0,0,1.8.9,7.77,7.77,0,0,0,1.6.2h.8l9.3-.9.1-3.3-9,.8h-.7a2.55,2.55,0,0,1-1.9-.6,2.49,2.49,0,0,1-.7-1.9,3.59,3.59,0,0,1,.2-1.1,1.8,1.8,0,0,1,.6-.9,3,3,0,0,1,1.1-.7,3.34,3.34,0,0,1,1.5-.3l9-.8.3-3.4" transform="translate(-232.8 -229.2)"/></g></g><g class="cls-14"><g class="cls-42"><path class="cls-16" d="M1196.4,1049.3a7.05,7.05,0,0,1-2.5-.6,6.84,6.84,0,0,1-2.1-1.7,8.56,8.56,0,0,1-1.4-2.7,12.3,12.3,0,0,1-.5-3.5,12.94,12.94,0,0,1,.4-3.5,8.45,8.45,0,0,1,1.3-2.7,6.84,6.84,0,0,1,2.1-1.7,6.39,6.39,0,0,1,2.8-.6h.3a7.05,7.05,0,0,1,2.5.6,6.2,6.2,0,0,1,2.2,1.7,9.81,9.81,0,0,1,1.4,2.7,12.3,12.3,0,0,1,.5,3.5,12.94,12.94,0,0,1-.4,3.5,8.45,8.45,0,0,1-1.3,2.7,6.84,6.84,0,0,1-2.1,1.7,6.39,6.39,0,0,1-2.8.6h-.4m.7-22.1h-.7a15.1,15.1,0,0,0-4.8.8,10.66,10.66,0,0,0-4,2.6,14.31,14.31,0,0,0-2.7,4.3,13.84,13.84,0,0,0-.9,5.9,15.29,15.29,0,0,0,.9,5.4,12.51,12.51,0,0,0,2.3,4.1,11,11,0,0,0,3.4,2.7,12.1,12.1,0,0,0,4.2,1.3,8,8,0,0,0,1.3,2.8,7.81,7.81,0,0,0,2.3,2.1,11.1,11.1,0,0,0,3.5,1.3,28.49,28.49,0,0,0,4.7.6h.2l1.1-4.3q-1.5-.15-2.7-.3a12,12,0,0,1-2.2-.5,6,6,0,0,1-1.6-.8,2,2,0,0,1-.8-1.2,9.71,9.71,0,0,0,3.6-1.6,10.26,10.26,0,0,0,2.8-2.7,11.67,11.67,0,0,0,1.8-3.9,19,19,0,0,0,.6-5,15.51,15.51,0,0,0-1.1-5.9,12.81,12.81,0,0,0-2.8-4.3,9.91,9.91,0,0,0-4.1-2.6,12.6,12.6,0,0,0-4.3-.8" transform="translate(-232.8 -229.2)"/><path class="cls-16" d="M1220.7,1043.8c.4-1.1.8-2.2,1.1-3.2s.7-2,1-2.8.6-1.6.8-2.3.4-1.2.5-1.5a11.64,11.64,0,0,1,.6,1.5c.3.7.6,1.4.9,2.3s.7,1.8,1.1,2.9.8,2.1,1.2,3.3l-7.2-.2m6.1-15.9h-5.4c-.8,1.8-1.6,3.7-2.4,5.6s-1.5,3.9-2.3,6-1.6,4.4-2.4,6.8-1.7,5-2.6,7.8h5.9c.3-.9.5-1.8.9-2.8s.6-1.9.9-2.9l9.9.1c.3,1,.7,1.9,1,2.9s.7,1.9,1,2.8h6.1c-1-2.8-2-5.5-2.9-7.9s-1.8-4.7-2.6-6.8-1.7-4.1-2.6-6c-.7-1.9-1.6-3.7-2.5-5.6" transform="translate(-232.8 -229.2)"/><path class="cls-16" d="M1146.8,1072.8h-5.7l.3,15.5c-.9-1.4-1.9-2.8-2.9-4.3s-2.1-2.9-3.1-4.3-2.1-2.7-3.1-3.9-1.9-2.3-2.7-3.1H1125l.5,26.2h5.6l-.3-17.2a85.28,85.28,0,0,1,6.2,8.3c2,2.9,3.8,5.9,5.5,8.9h4.8l-.5-26.1" transform="translate(-232.8 -229.2)"/><polyline class="cls-16" points="937 843.8 919.9 843.6 920.3 869.9 938.3 870 938.2 865 925.9 865 925.8 858.6 936 858.7 935.9 853.9 925.7 853.8 925.7 848.6 937.1 848.7 937 843.8"/><polyline class="cls-16" points="960.9 843.9 939.9 843.8 940 848.8 947.6 848.9 948 870.1 953.7 870.1 953.3 848.9 961 849 960.9 843.9"/><path class="cls-16" d="M1228.5,1073.4h-5.9c-.2,1.5-.5,3-.7,4.6s-.5,3.2-.8,4.8-.5,3.2-.9,4.7-.6,2.9-.9,4.2c-.4-1.2-.8-2.5-1.3-3.9s-.9-2.8-1.3-4.2-.8-2.7-1.2-4-.7-2.5-1-3.5h-4.9c-.3,1-.5,2.2-.8,3.4s-.6,2.6-1,4-.7,2.8-1.1,4.2-.8,2.7-1.2,3.9c-.4-1.3-.7-2.7-1.1-4.2s-.7-3.1-1.1-4.7-.7-3.2-1-4.8-.6-3.2-.9-4.6h-6.2c.9,4.4,2,8.9,3.2,13.4s2.5,8.8,3.9,12.9h5.2c.8-2.4,1.6-5,2.3-7.6s1.5-5.3,2.2-8c.8,2.7,1.7,5.3,2.5,8s1.7,5.2,2.6,7.6h5.2c1.2-4,2.4-8.3,3.4-12.8s2-9.1,2.8-13.4" transform="translate(-232.8 -229.2)"/><path class="cls-16" d="M1243.7,1095a5.14,5.14,0,0,1-2.5-.6,6.84,6.84,0,0,1-2.1-1.7,8.56,8.56,0,0,1-1.4-2.7,12.3,12.3,0,0,1-.5-3.5,12.94,12.94,0,0,1,.4-3.5,8.45,8.45,0,0,1,1.3-2.7,6.84,6.84,0,0,1,2.1-1.7,6.39,6.39,0,0,1,2.8-.6h.4a7.05,7.05,0,0,1,2.5.6,7.23,7.23,0,0,1,2.2,1.7,8.56,8.56,0,0,1,1.4,2.7,12.3,12.3,0,0,1,.5,3.5,12.94,12.94,0,0,1-.4,3.5,8.45,8.45,0,0,1-1.3,2.7,6.84,6.84,0,0,1-2.1,1.7,6.39,6.39,0,0,1-2.8.6h-.5m.7-22.1h-.7a15.1,15.1,0,0,0-4.8.8,10.66,10.66,0,0,0-4,2.6,14.31,14.31,0,0,0-2.7,4.3,13.84,13.84,0,0,0-.9,5.9,15.51,15.51,0,0,0,1.1,5.9,12.81,12.81,0,0,0,2.8,4.3,11,11,0,0,0,4.1,2.6,15,15,0,0,0,4.2.9h.7a16.36,16.36,0,0,0,5-.8,10.66,10.66,0,0,0,4-2.6,11.52,11.52,0,0,0,2.6-4.3,17.84,17.84,0,0,0,.9-5.9,15.51,15.51,0,0,0-1.1-5.9,12.81,12.81,0,0,0-2.8-4.3,11,11,0,0,0-4.1-2.6,15.69,15.69,0,0,0-4.3-.9" transform="translate(-232.8 -229.2)"/><path class="cls-16" d="M1267,1085.6l-.1-7.1a2.77,2.77,0,0,0,.9-.1h1.9a7.73,7.73,0,0,1,3.4.8,3.2,3.2,0,0,1,1.5,2.8,3,3,0,0,1-1.3,2.8c-.9.6-2.5.8-4.6.8H1267m2.8-12.2h-1.3c-1.1,0-2.2,0-3.6.1s-2.6.3-3.9.5l.5,25.8h5.7l-.2-9.6h2.8c.5.6,1,1.3,1.5,2s1,1.5,1.5,2.4,1,1.7,1.5,2.6,1,1.8,1.5,2.6h6.4c-.5-1-1-1.9-1.5-2.9s-1.1-2-1.6-2.9-1.1-1.8-1.7-2.7-1.1-1.6-1.7-2.3a7.38,7.38,0,0,0,3.5-2.7,6.87,6.87,0,0,0,1.1-4.5,7.22,7.22,0,0,0-3.2-6.5,13.87,13.87,0,0,0-7.3-1.9" transform="translate(-232.8 -229.2)"/><path class="cls-16" d="M1306.7,1073.9l-6.8-.1c-1.3,1.5-2.6,3.1-4.1,4.8l-4.4,5-.2-9.9h-5.7l.5,26.2h5.7l-.2-11.1a20.51,20.51,0,0,1,2.7,2.5,35.84,35.84,0,0,1,2.6,2.9c.8,1,1.6,2,2.3,3s1.3,1.9,1.9,2.8l6.8.1a86.23,86.23,0,0,0-5.6-8,45.24,45.24,0,0,0-6-6.3c1.9-2,3.7-3.9,5.4-5.9s3.4-3.9,5.1-6" transform="translate(-232.8 -229.2)"/></g></g><g class="cls-14"><g class="cls-43"><polyline class="cls-16" points="1395 1009.9 1351.5 1010.2 1351.2 1020.8 1367.1 1020.7 1365.7 1065.3 1377.6 1065.3 1378.9 1020.6 1394.7 1020.5 1395 1009.9"/><path class="cls-16" d="M1646.5,1265.2l.5-15.9c.6-.1,1.3-.1,2.2-.2a20.9,20.9,0,0,1,2.5-.1h.2a31.86,31.86,0,0,1,4.5.3,9.61,9.61,0,0,1,3.6,1.3,5.65,5.65,0,0,1,2.2,2.4,8.61,8.61,0,0,1,.7,3.8q-.15,4.8-3.3,6.6t-9.3,1.8h-3.8m5.1-26.8h-.4a73.15,73.15,0,0,0-7.6.4,52.18,52.18,0,0,0-8.2,1.2l-1.6,54.4,11.8-.1.5-18.5h3.7q11.85,0,18.3-4.5c4.3-3,6.6-7.8,6.8-14.4s-1.8-11.3-5.9-14.2c-3.9-2.9-9.8-4.3-17.4-4.3" transform="translate(-232.8 -229.2)"/><path class="cls-16" d="M1737.5,1238.5l-10.8.1c-1,1.8-2.1,3.9-3.3,6.5s-2.6,5.4-4,8.4-2.7,6.1-4.1,9.2-2.6,6.1-3.8,8.9c-1-2.8-2.1-5.7-3.3-8.8s-2.4-6.2-3.6-9.2-2.4-5.8-3.5-8.4-2.1-4.7-3-6.5l-11.3.1q-.9,5.55-1.8,12.3c-.6,4.5-1.1,9.3-1.6,14.2s-.9,9.8-1.3,14.8-.8,9.6-1.1,14l11.5-.1c.3-5.4.7-11.2,1.1-17.5s1-12.7,1.7-19.1c.9,2.2,1.8,4.7,2.8,7.4s2.1,5.4,3.1,8.1,2,5.3,2.9,7.8,1.7,4.6,2.4,6.3h8.3c.8-1.8,1.7-3.9,2.8-6.3s2.2-5.1,3.4-7.8,2.3-5.4,3.5-8.2,2.3-5.2,3.3-7.4c.3,6.4.5,12.8.6,19.1s.1,12.2.1,17.5l11.5-.1c-.1-4.4-.2-9-.3-13.9s-.3-9.9-.5-14.8-.4-9.6-.7-14.2-.6-8.7-1-12.4" transform="translate(-232.8 -229.2)"/></g></g><g class="cls-14"><g class="cls-44"><path class="cls-16" d="M2208.6,818.5h-.2a1.14,1.14,0,0,1-.8-.3l-.6-.6a6.89,6.89,0,0,1-.3-.8,3.52,3.52,0,0,1,.3-2,1.79,1.79,0,0,1,.5-.7,1.61,1.61,0,0,1,.7-.4,1.48,1.48,0,0,1,.7-.1h.2a1.14,1.14,0,0,1,.8.3l.6.6a6.89,6.89,0,0,1,.3.8,3.52,3.52,0,0,1-.3,2,1.79,1.79,0,0,1-.5.7,1.61,1.61,0,0,1-.7.4,2,2,0,0,1-.7.1m.1-6.6a4.1,4.1,0,0,0-1.1.1,3.1,3.1,0,0,0-1.3.6,5.24,5.24,0,0,0-1,1.1,4.25,4.25,0,0,0-.5,1.7,4.19,4.19,0,0,0,.1,1.6,5,5,0,0,0,.5,1.3,2.58,2.58,0,0,0,.9.9l1.2.6a3.18,3.18,0,0,0,.3.9,1.34,1.34,0,0,0,.6.7,3.13,3.13,0,0,0,1,.5,5.73,5.73,0,0,0,1.4.4l.5-1.2c-.3-.1-.6-.1-.8-.2s-.5-.1-.6-.2a1.38,1.38,0,0,1-.4-.3.52.52,0,0,1-.2-.4,2,2,0,0,0,1.1-.3,2.18,2.18,0,0,0,.9-.7,3,3,0,0,0,.7-1.1,5.73,5.73,0,0,0,.4-1.4,5.15,5.15,0,0,0-.1-1.8,3.69,3.69,0,0,0-.7-1.4,3.13,3.13,0,0,0-1.1-.9,5.78,5.78,0,0,0-1.4-.5h-.4" transform="translate(-232.8 -229.2)"/><path class="cls-16" d="M2217.7,818.1l-2.1-.3a3.55,3.55,0,0,0,.4-.9,3,3,0,0,0,.4-.8l.3-.6c.1-.2.2-.3.2-.4a4.33,4.33,0,0,1,.1.5,6.37,6.37,0,0,1,.2.7c.1.3.1.6.2.9s.2.6.3.9m-1.3-4.9-.9,1.5c-.3.5-.6,1.1-.9,1.7s-.6,1.2-1,1.9-.7,1.4-1.1,2.2l1.7.3a3,3,0,0,1,.4-.8c.1-.3.3-.5.4-.8l2.9.4c.1.3.1.6.2.9s.1.6.2.9l1.8.3c-.2-.9-.4-1.7-.5-2.4s-.3-1.4-.5-2.1a18,18,0,0,1-.5-1.9,15.43,15.43,0,0,1-.5-1.7l-1.7-.4" transform="translate(-232.8 -229.2)"/><path class="cls-16" d="M2186.2,822.4l-.9,7.7,1.7.2.6-5.1c.5.9,1.1,1.8,1.5,2.7s.9,1.9,1.3,2.8l1.4.2.9-7.7-1.7-.2-.5,4.6c-.2-.4-.4-.9-.7-1.4a10,10,0,0,0-.8-1.4,9.13,9.13,0,0,0-.8-1.3c-.3-.4-.5-.7-.7-1l-1.3-.1" transform="translate(-232.8 -229.2)"/><polyline class="cls-16" points="1961.6 594.4 1960.7 602.1 1966 602.8 1966.2 601.4 1962.6 600.9 1962.8 599 1965.8 599.4 1965.9 598 1962.9 597.6 1963.1 596.1 1966.5 596.6 1966.7 595.1 1961.6 594.4"/><polyline class="cls-16" points="1967.5 595.2 1967.3 596.7 1969.6 597 1968.9 603.3 1970.6 603.5 1971.3 597.3 1973.5 597.6 1973.7 596.1 1967.5 595.2"/><path class="cls-16" d="M2206.9,825.4c.1,1.3.3,2.7.4,4.1s.4,2.7.6,3.9l1.5.2c.3-.7.7-1.4,1-2.1s.6-1.5,1-2.3c.1.8.3,1.6.4,2.5s.3,1.6.5,2.3l1.5.2q.75-1.65,1.5-3.6c.5-1.3.9-2.5,1.3-3.8l-1.7-.3a6.47,6.47,0,0,1-.4,1.3c-.1.5-.3.9-.4,1.4s-.3.9-.4,1.3-.3.8-.4,1.2c-.1-.4-.1-.8-.2-1.2a5.85,5.85,0,0,1-.2-1.3c-.1-.4-.1-.8-.2-1.2s-.1-.8-.2-1.1l-1.4-.2a6.89,6.89,0,0,1-.4,1,5.36,5.36,0,0,1-.5,1.1c-.2.4-.3.8-.5,1.2a11.73,11.73,0,0,1-.5,1.1c-.1-.4-.1-.8-.2-1.3s-.1-.9-.1-1.4-.1-1-.1-1.5-.1-.9-.1-1.4l-1.8-.1" transform="translate(-232.8 -229.2)"/><path class="cls-16" d="M2220.7,833.8h-.2a1.14,1.14,0,0,1-.8-.3l-.6-.6a6.89,6.89,0,0,1-.3-.8,3.52,3.52,0,0,1,.3-2,1.79,1.79,0,0,1,.5-.7,1.61,1.61,0,0,1,.7-.4,1.48,1.48,0,0,1,.7-.1h.2a1.14,1.14,0,0,1,.8.3l.6.6a6.89,6.89,0,0,1,.3.8,3.52,3.52,0,0,1-.3,2,1.79,1.79,0,0,1-.5.7,1.61,1.61,0,0,1-.7.4,1.48,1.48,0,0,1-.7.1m.2-6.5a4.1,4.1,0,0,0-1.1.1,3.1,3.1,0,0,0-1.3.6,5.24,5.24,0,0,0-1,1.1,4.25,4.25,0,0,0-.5,1.7,5.15,5.15,0,0,0,.1,1.8,3.69,3.69,0,0,0,.7,1.4,3.13,3.13,0,0,0,1.1.9,5.78,5.78,0,0,0,1.4.5h.4a4.1,4.1,0,0,0,1.1-.1,3.18,3.18,0,0,0,2.2-1.7,6.87,6.87,0,0,0,.5-1.7,5.15,5.15,0,0,0-.1-1.8,3.69,3.69,0,0,0-.7-1.4,3.13,3.13,0,0,0-1.1-.9,5.78,5.78,0,0,0-1.4-.5h-.3" transform="translate(-232.8 -229.2)"/><path class="cls-16" d="M2228.7,832.1a.9.9,0,0,1-.5-.1l-.5-.1.2-2.1h.6a3.37,3.37,0,0,1,1.2.4.76.76,0,0,1,.3.9.79.79,0,0,1-.5.8,1.08,1.08,0,0,1-.8.2m-1.4-3.8h-1l-.9,7.6,1.7.2.3-2.8.8.1a4.35,4.35,0,0,1,.4.7,5.9,5.9,0,0,0,.4.8,3,3,0,0,0,.4.8c.1.3.2.5.3.8l1.9.3-.3-.9a3.55,3.55,0,0,0-.4-.9c-.1-.3-.3-.6-.4-.9a4.35,4.35,0,0,0-.4-.7,1.68,1.68,0,0,0,1.1-.6,1.73,1.73,0,0,0,.5-1.3,2.21,2.21,0,0,0-.7-2.1,5.24,5.24,0,0,0-2.5-1c-.3,0-.7-.1-1.1-.1h-.1" transform="translate(-232.8 -229.2)"/><path class="cls-16" d="M2233.6,829.3l-.9,7.7,1.7.2.4-3.3a5.72,5.72,0,0,1,.7.8c.2.3.4.6.7,1s.4.7.6,1a3.55,3.55,0,0,1,.4.9l2,.3c-.4-.9-.9-1.8-1.3-2.6a19.08,19.08,0,0,0-1.5-2.1l1.8-1.5a12.88,12.88,0,0,0,1.7-1.6l-2-.3a17.41,17.41,0,0,1-1.4,1.2c-.5.4-1,.9-1.5,1.3l.3-2.9-1.7-.1" transform="translate(-232.8 -229.2)"/></g></g><g class="cls-14"><g class="cls-45"><path class="cls-16" d="M1652.4,1736.8c.9-2.4,1.8-4.7,2.6-6.9s1.6-4.2,2.3-6,1.3-3.4,1.9-4.8,1-2.5,1.3-3.3c.3.8.7,1.9,1.1,3.2s1,3,1.6,4.8,1.3,3.8,2,6,1.4,4.5,2.1,6.8l-14.9.2m14.4-33.5-11.2.1c-1.9,3.8-3.7,7.8-5.5,11.8s-3.6,8.3-5.4,12.7-3.7,9.2-5.6,14.3-4,10.6-6.1,16.5l12.3-.1c.6-1.9,1.3-3.9,2-5.9s1.4-4,2.2-6.1l20.5-.1,1.8,6c.6,2,1.2,4,1.7,5.9l12.7-.1q-2.7-8.85-5.1-16.5c-1.6-5-3.2-9.8-4.8-14.2s-3.1-8.7-4.7-12.7c-1.6-3.8-3.2-7.8-4.8-11.6" transform="translate(-232.8 -229.2)"/><path class="cls-16" d="M1711.8,1701.8h-.2a25.54,25.54,0,0,0-8.1,1.2,20.4,20.4,0,0,0-6.2,3.3,14.54,14.54,0,0,0-4,5.2,17.07,17.07,0,0,0-1.6,6.9,14.31,14.31,0,0,0,1.1,6.5,13.59,13.59,0,0,0,3.2,4.5,18,18,0,0,0,4.5,3.1c1.7.8,3.4,1.5,5.1,2.2,3.9,1.4,6.6,2.6,8.2,3.8a5.09,5.09,0,0,1,2.3,4.5,7.88,7.88,0,0,1-.4,2.3,4.89,4.89,0,0,1-1.4,1.8,8.93,8.93,0,0,1-2.6,1.2,21.84,21.84,0,0,1-4.1.5h-.1a28.56,28.56,0,0,1-8.3-1,25.7,25.7,0,0,1-5.7-2.4l-3.6,9.9a20.92,20.92,0,0,0,2.6,1.3,30.71,30.71,0,0,0,3.7,1.3,45.29,45.29,0,0,0,4.9,1.1,37.44,37.44,0,0,0,6.1.4h.2c6.9,0,12.1-1.5,15.7-4.4s5.3-6.9,5.5-12a19.84,19.84,0,0,0-.8-6.8,11.69,11.69,0,0,0-2.9-4.8,18.86,18.86,0,0,0-4.9-3.6,68.71,68.71,0,0,0-7-3.1c-1.3-.5-2.5-.9-3.6-1.4a10.62,10.62,0,0,1-2.8-1.5,8.55,8.55,0,0,1-1.9-1.9,5,5,0,0,1-.6-2.6,4.21,4.21,0,0,1,2-3.8,11.77,11.77,0,0,1,6.1-1.3h.1a20.16,20.16,0,0,1,6.4.9,26.65,26.65,0,0,1,4.8,2.1l3.7-9.8a32.45,32.45,0,0,0-6.3-2.6,41.53,41.53,0,0,0-9.1-1" transform="translate(-232.8 -229.2)"/><path class="cls-16" d="M1753,1748.1h-1.9c-.7,0-1.4-.1-1.9-.1l1-34.9a19.42,19.42,0,0,1,2.4-.2c.9,0,1.7-.1,2.5-.1h.2c5.8,0,10,1.5,12.6,4.4s3.9,7.3,3.7,13.1c-.2,5.5-1.7,9.9-4.7,13s-7.4,4.7-13.3,4.8h-.6m2.2-45.9h-.3c-2.1,0-4.7.1-7.6.3a77.63,77.63,0,0,0-8.6,1.1l-1.6,53.8a57.11,57.11,0,0,0,8.3,1.1c2.7.2,5,.2,7.1.2h.3a41.23,41.23,0,0,0,12.6-1.8,27.54,27.54,0,0,0,9.7-5.3,24,24,0,0,0,6.3-8.9,36,36,0,0,0,2.5-12.5,35.16,35.16,0,0,0-1.7-12.8,19.94,19.94,0,0,0-5.8-8.7,24.56,24.56,0,0,0-9.3-5,44.56,44.56,0,0,0-11.9-1.5" transform="translate(-232.8 -229.2)"/><path class="cls-16" d="M1847.8,1702.4l-10.8.1c-1,1.8-2.1,3.9-3.3,6.5s-2.6,5.4-4,8.4-2.7,6.1-4.1,9.2-2.6,6.1-3.8,8.9c-1-2.8-2.1-5.7-3.3-8.8s-2.4-6.2-3.6-9.2-2.4-5.8-3.5-8.3-2.1-4.7-3-6.5l-11.3.1q-.9,5.55-1.8,12.3c-.6,4.5-1.1,9.3-1.6,14.2s-.9,9.8-1.3,14.8-.8,9.6-1.1,14l11.5-.1c.3-5.4.7-11.2,1.1-17.5s1-12.7,1.7-19.1c.8,2.2,1.8,4.7,2.8,7.4s2.1,5.4,3.1,8.1,2,5.3,2.9,7.8,1.7,4.6,2.4,6.3h8.3c.8-1.8,1.7-3.9,2.8-6.4s2.2-5.1,3.4-7.8,2.3-5.4,3.5-8.1,2.3-5.2,3.3-7.4c.3,6.4.5,12.8.6,19.1s.1,12.2.1,17.5l11.5-.1c-.1-4.3-.2-9-.3-13.9s-.3-9.9-.5-14.8-.4-9.6-.7-14.2c-.2-4.8-.6-8.9-1-12.5" transform="translate(-232.8 -229.2)"/></g></g><path class="cls-46" d="M690.5,977.8a1.23,1.23,0,0,0,.4-1.6l-16-29.2a1.08,1.08,0,0,0-1.5-.5l-5.2,2.9a1.23,1.23,0,0,0-.4,1.6l16.1,29.2a1.08,1.08,0,0,0,1.5.5l5.1-2.9ZM706.9,928l-5,2.8a1.23,1.23,0,0,0-.4,1.6l6.7,12.2-10.6,5.8-6.7-12.2a1.08,1.08,0,0,0-1.5-.5l-5,2.8a1.23,1.23,0,0,0-.4,1.6l16.1,29.2a1.08,1.08,0,0,0,1.5.5l5-2.8a1.23,1.23,0,0,0,.4-1.6l-7.5-13.7,10.6-5.8,7.5,13.7a1.08,1.08,0,0,0,1.5.5l5-2.8a1.23,1.23,0,0,0,.4-1.6l-16.1-29.3a1.39,1.39,0,0,0-1.5-.4Zm-89,48.8-12.5,6.8a1.23,1.23,0,0,0-.4,1.6l16,29.2a1.08,1.08,0,0,0,1.5.5l12.3-6.8c7.3-4,10.5-11.6,4.3-22.9C633.3,974.3,625.2,972.9,617.9,976.8Zm13.6,29-4.7,2.6-13.5-24.7,4.7-2.6c5.6-3.1,9.5-.3,14.2,8.2,4.7,8.7,5.1,13.4-.7,16.5Zm46.9-22.7-26.2-23.7a1.91,1.91,0,0,0-1.9-.4l-5.1,2.8a.87.87,0,0,0-.4.9l6.4,35.8c.1.4.3.5.6.4l3.1-1.7a1,1,0,0,0,.4-1l-1.7-9.1,11-6,6.3,5.9a1.91,1.91,0,0,0,1.9.4l5.6-3c.5-.2.5-.8,0-1.3Zm-25.6.3-3-15.9,11.8,11Zm103.7-43.2-26.2-23.7a1.91,1.91,0,0,0-1.9-.4l-5.1,2.8a.87.87,0,0,0-.4.9l6.4,35.8c.1.4.3.5.6.4l3.1-1.7a1,1,0,0,0,.4-1l-1.7-9.1,11-6,6.3,5.9a1.91,1.91,0,0,0,1.9.4l5.6-3c.5-.2.6-.8,0-1.3Zm-25.5.3-3-15.9,11.8,11.1ZM761.6,898l-23.4,12.9a.63.63,0,0,0-.2.9l1.3,2.3c.2.3.5.5.8.3l8.4-4.6,14.8,26.9a1.08,1.08,0,0,0,1.5.5l5.1-2.8a1.23,1.23,0,0,0,.4-1.6l-14.8-26.9,8.1-4.5a.67.67,0,0,0,.3-.8h0l-1.3-2.3c-.3-.3-.7-.5-1-.3Zm56.7-3.8-11.2-20.5a.52.52,0,0,1,.2-.8l3.1-1.7c.3-.2.6,0,.8.3L821.9,891c1,1.8,1.3,2.3,1.9,3.5,3,6.4.1,10.6-6.3,14.1-7.6,4.2-13.5,1.8-16.3-1.7a29.42,29.42,0,0,1-2.7-4.2l-9.9-18.1a1.14,1.14,0,0,1,.4-1.6l5-2.8a1.08,1.08,0,0,1,1.5.5l11.2,20.4a11.65,11.65,0,0,0,1.6,2.5c1.3,1.5,3.9,3.7,8.4,1.3,3.9-2.2,4.6-5.6,3-8.4l-1.4-2.3Zm-35.2-1.7c.4,0,.4-.4.2-.7l-1.5-2.7c-.2-.4-.4-.4-.9-.4a13.78,13.78,0,0,0-2.6.4,24.4,24.4,0,0,0-5.3,2.1c-4.6,2.5-5.9,5.3-6.3,7.8a9.49,9.49,0,0,0,2.1,7.1c2.9,3.6,7.5,4.3,12.1,5,3.6.5,6.8.6,9,2.6a3.89,3.89,0,0,1,1.2,3.7,5.47,5.47,0,0,1-3,3.2,18,18,0,0,1-7.8,2.2H779a.37.37,0,0,0-.3.6l1.5,2.8a1,1,0,0,0,.9.4,3.75,3.75,0,0,0,.8-.1,25.49,25.49,0,0,0,7.9-2.9c4.6-2.5,6.1-5.5,6.6-7.6.6-2.5-.1-5.3-2.2-8-3.4-4.2-8.7-4.6-13-5.1-3.3-.4-6.5-.7-8.1-2.3a3.48,3.48,0,0,1-1.1-3.1,5.65,5.65,0,0,1,3-3.5,13.65,13.65,0,0,1,5.7-1.6,8.31,8.31,0,0,0,2.4.1ZM507.2,1097.4l101.6-55.8L576,981.9l-101.6,55.8,32.8,59.7Z" transform="translate(-232.8 -229.2)"/><path class="cls-47" d="M514.7,1038.4c19.5-10.6,47.8-23.8,63.7-25.7,1.5-.2,2.7-.3,3.2.6.7,1.2-1.5,3.5-3.6,5.6-7.9,8.3-23.2,21.2-47.3,36.7l-36-10.5q-2.7,1.5-5.4,3.3l37.3,10.9-1.3,13.1c35.5-27.5,49.7-43.3,55.5-51.2,1.2-1.7,4.9-6.5,3.3-9.3-.9-1.7-3.1-1.9-5.7-1.6-9.9,1-24.6,6.1-38.6,12.2-14.5,6.2-33.1,15.9-43.2,21.6l33.6,9.8c4.1-2.7,7.9-5.2,11.5-7.7Z" transform="translate(-232.8 -229.2)"/></g></g></svg>