<?xml version="1.0" encoding="utf-8"?>
<!-- Generator: Adobe Illustrator 24.0.2, SVG Export Plug-In . SVG Version: 6.00 Build 0)  -->
<svg version="1.1" xmlns="http://www.w3.org/2000/svg" xmlns:xlink="http://www.w3.org/1999/xlink" x="0px" y="0px"
	 viewBox="0 0 2700 2000" style="enable-background:new 0 0 2700 2000;" xml:space="preserve">
<style type="text/css">
	.st0{display:none;fill:#FFFFFF;}
	.st1{fill:#EF9020;}
	.st2{fill:#ADCFD8;}
	.st3{fill:#55769F;}
	.st4{fill:#DAEEF7;}
	.st5{fill:#00FF06;}
	.st6{fill:#33AF00;}
	.st7{fill:#02CCC0;}
	.st8{fill:#06BFAD;}
	.st9{fill:#E03268;}
	.st10{fill:#FEB546;}
	.st11{fill:#FF5B7E;}
	.st12{fill:#284C7A;}
	.st13{enable-background:new    ;}
	.st14{clip-path:url(#SVGID_2_);}
	.st15{fill:#FFFFFF;}
	.st16{opacity:0.5;fill:#55769F;enable-background:new    ;}
	.st17{fill:#EDDF37;}
	.st18{fill:#D8BA39;}
	.st19{fill:#C4DFE8;}
	.st20{fill:#F4A640;}
	.st21{fill:#FFC0BB;}
	.st22{fill:#FF5500;}
	.st23{fill:#E0C4AA;}
	.st24{fill:#F99893;}
	.st25{fill:#333333;}
	.st26{fill:#7AB9FE;}
	.st27{fill:#161616;}
	.st28{opacity:0.6;fill:#FC8D84;enable-background:new    ;}
	.st29{fill:#9DCBF4;}
	.st30{fill:#07085B;}
	.st31{fill:#515154;}
	.st32{fill:#141414;}
	.st33{fill:#EDEDED;}
	.st34{fill:#26426E;}
	.st35{fill:#E0E0E0;}
	.st36{fill:#3A5782;}
	.st37{opacity:0.3;fill:#F99893;enable-background:new    ;}
	.st38{fill:#F5577A;}
	.st39{fill:#DE4B6C;}
	.st40{clip-path:url(#SVGID_4_);}
	.st41{clip-path:url(#SVGID_6_);}
	.st42{clip-path:url(#SVGID_8_);}
	.st43{clip-path:url(#SVGID_10_);}
	.st44{clip-path:url(#SVGID_12_);}
	.st45{fill-rule:evenodd;clip-rule:evenodd;fill:#FF0000;}
	.st46{fill-rule:evenodd;clip-rule:evenodd;fill:#FFFFFF;}
</style>
<g id="Layer_6">
	<g id="Layer_1">
		<g>
			<rect class="st0" width="2700" height="2000"/>
			<g>
				<path class="st1" d="M1282,1460.4l-257.6,103.5l-318.9-794l217.8-87.5c22-8.8,47,1.8,55.9,23.9L1282,1460.4z"/>
				<g>
					
						<rect x="753.6" y="775.6" transform="matrix(0.9846 -0.1746 0.1746 0.9846 -181.4764 192.6378)" class="st2" width="500.9" height="704.2"/>
					
						<rect x="843.1" y="849.7" transform="matrix(0.9846 -0.1746 0.1746 0.9846 -134.1376 179.8349)" class="st3" width="223.7" height="5"/>
					
						<rect x="793.9" y="837.2" transform="matrix(0.9846 -0.1746 0.1746 0.9846 -131.989 179.2587)" class="st3" width="317.7" height="5"/>
					
						<rect x="771.4" y="901.6" transform="matrix(0.9846 -0.1746 0.1746 0.9846 -143.0588 182.2297)" class="st3" width="385.4" height="5"/>
					
						<rect x="775.7" y="925.4" transform="matrix(0.9846 -0.1746 0.1746 0.9846 -147.1483 183.3461)" class="st3" width="385.4" height="5"/>
					
						<rect x="784.1" y="973" transform="matrix(0.9846 -0.1746 0.1746 0.9846 -155.3302 185.5439)" class="st3" width="385.4" height="5"/>
					
						<rect x="788.3" y="996.8" transform="matrix(0.9846 -0.1746 0.1746 0.9846 -159.4212 186.6427)" class="st3" width="385.4" height="5"/>
					
						<rect x="792.5" y="1020.6" transform="matrix(0.9846 -0.1746 0.1746 0.9846 -163.5121 187.7416)" class="st3" width="385.4" height="5"/>
					
						<rect x="811.1" y="1125.2" transform="matrix(0.9846 -0.1746 0.1746 0.9846 -181.4879 192.5955)" class="st3" width="385.4" height="5"/>
					
						<rect x="815.4" y="1149.8" transform="matrix(0.9846 -0.1746 0.1746 0.9846 -185.717 193.7242)" class="st3" width="385.4" height="5"/>
					
						<rect x="819.8" y="1174.5" transform="matrix(0.9846 -0.1746 0.1746 0.9846 -189.9621 194.8718)" class="st3" width="385.4" height="5"/>
					
						<rect x="824.2" y="1199.2" transform="matrix(0.9846 -0.1746 0.1746 0.9846 -194.2071 196.0195)" class="st3" width="385.4" height="5"/>
					
						<rect x="828.6" y="1223.8" transform="matrix(0.9846 -0.1746 0.1746 0.9846 -198.4347 197.1657)" class="st3" width="385.4" height="5"/>
					
						<rect x="832.9" y="1248.5" transform="matrix(0.9846 -0.1746 0.1746 0.9846 -202.6812 198.2958)" class="st3" width="385.4" height="5"/>
					
						<rect x="837.3" y="1273.2" transform="matrix(0.9846 -0.1746 0.1746 0.9846 -206.9263 199.4434)" class="st3" width="385.4" height="5"/>
				</g>
				<g>
					
						<rect x="715.2" y="772.2" transform="matrix(0.9671 -0.2545 0.2545 0.9671 -254.3563 282.7875)" class="st4" width="500.9" height="704.3"/>
					
						<rect x="782.3" y="851.4" transform="matrix(0.9671 -0.2545 0.2545 0.9671 -187.8786 255.6848)" class="st3" width="223.7" height="5"/>
					
						<rect x="732.1" y="839.1" transform="matrix(0.9671 -0.2545 0.2545 0.9671 -184.8538 254.4654)" class="st3" width="317.7" height="5"/>
					
						<rect x="714.9" y="902.4" transform="matrix(0.9671 -0.2545 0.2545 0.9671 -200.4154 260.7871)" class="st3" width="385.4" height="5"/>
					
						<rect x="721" y="925.7" transform="matrix(0.9671 -0.2545 0.2545 0.9671 -206.1451 263.1045)" class="st3" width="385.4" height="5"/>
					
						<rect x="733.3" y="972.5" transform="matrix(0.9671 -0.2545 0.2545 0.9671 -217.6523 267.7788)" class="st3" width="385.4" height="5"/>
					
						<rect x="739.5" y="995.8" transform="matrix(0.9671 -0.2545 0.2545 0.9671 -223.3756 270.1233)" class="st3" width="385.4" height="5"/>
					
						<rect x="745.6" y="1019.2" transform="matrix(0.9671 -0.2545 0.2545 0.9671 -229.1324 272.4469)" class="st3" width="385.4" height="5"/>
					
						<rect x="772.7" y="1122" transform="matrix(0.9671 -0.2545 0.2545 0.9671 -254.4028 282.7078)" class="st3" width="385.4" height="5"/>
					
						<rect x="779.1" y="1146.2" transform="matrix(0.9671 -0.2545 0.2545 0.9671 -260.3512 285.1335)" class="st3" width="385.4" height="5"/>
					
						<rect x="785.4" y="1170.5" transform="matrix(0.9671 -0.2545 0.2545 0.9671 -266.3024 287.5545)" class="st3" width="385.4" height="5"/>
					
						<rect x="791.8" y="1194.7" transform="matrix(0.9671 -0.2545 0.2545 0.9671 -272.2505 289.9802)" class="st3" width="385.4" height="5"/>
					
						<rect x="798.2" y="1219" transform="matrix(0.9671 -0.2545 0.2545 0.9671 -278.2268 292.389)" class="st3" width="385.4" height="5"/>
					
						<rect x="804.6" y="1243.2" transform="matrix(0.9671 -0.2545 0.2545 0.9671 -284.1749 294.8148)" class="st3" width="385.4" height="5"/>
					
						<rect x="810.9" y="1267.4" transform="matrix(0.9671 -0.2545 0.2545 0.9671 -290.1238 297.2347)" class="st3" width="385.4" height="5"/>
				</g>
				<path class="st1" d="M1184.2,1499.7L665.6,1708L363.1,954.8L798.9,686c24.5-15.1,56.7-4.5,67.4,22.2L1184.2,1499.7z"/>
			</g>
			<g>
				<path class="st5" d="M498.2,1586.1l-74-1.3c-25.7-46.6-44.5-87-44.5-87c83.6-19.3,154.1-11.4,212.8,11.2l32.4,78.7l6.9-60.6
					c145.6,78.6,205.6,244.9,205.6,244.9s-257.3-27.4-311.9-52.8c-21.1-9.8-47.6-45-72.3-84.6C473,1615.8,498.2,1586.1,498.2,1586.1
					z"/>
				<path class="st6" d="M379.7,1497.7c0,0,330.4,139,457.8,274.2c0,0-257.3-27.4-311.9-52.8c-21.1-9.8-47.6-45-72.3-84.6
					c19.7-18.8,44.9-48.5,44.9-48.5l-74-1.3C398.6,1538.2,379.7,1497.7,379.7,1497.7z"/>
				<path class="st5" d="M390.3,1719.9c44.5-27.1,89.4-41.6,132.8-47.4c12.7,15.8,28.4,34.4,28.4,34.4l1.6-37.1
					c166.6-7.6,304.7,104.1,304.7,104.1c-96.5,60.8-178.9,77.6-246.3,72.2c-4-13-9.7-32.3-9.7-32.3l-11.9,29.8
					c-32.3-5.1-60.9-15.1-85.5-27.5c6.3-15.5,13-33.1,13-33.1l-35.9,20.4C421.3,1766.6,390.3,1719.9,390.3,1719.9z"/>
				<path class="st6" d="M611.5,1846.1c-4-13-9.7-32.3-9.7-32.3l-11.9,29.8c-32.3-5.1-60.9-15.1-85.5-27.5c6.3-15.5,13-33.1,13-33.1
					l-35.9,20.4c-60.2-36.8-91.2-83.5-91.2-83.5c194.2-22.4,467.5,54,467.5,54C761.3,1834.8,678.9,1851.6,611.5,1846.1z"/>
			</g>
			<path class="st7" d="M1362.6,718.9l59.6-43.8c-5.9-52.8-13.9-96.8-13.9-96.8c-79.4,32.5-132.4,79.7-167.3,132l19,82.9l-40.6-45.5
				c-73.6,148.2-26.5,318.7-26.5,318.7s194.3-170.9,224.2-223.1c11.5-20.2,12.9-64.3,10.2-110.8
				C1400.3,728.6,1362.6,718.9,1362.6,718.9z"/>
			<path class="st8" d="M1408.4,578.3c0,0-189.5,304.2-215.5,488.2c0,0,194.3-170.9,224.2-223.1c11.5-20.2,12.9-64.3,10.2-110.8
				c-26.9-3.9-64.6-13.6-64.6-13.6l59.6-43.8C1416.4,622.2,1408.4,578.3,1408.4,578.3z"/>
			<path class="st7" d="M1528.1,765.8c-52,3.6-97,17.6-135.8,38c-1.3,20.3-3.3,44.5-3.3,44.5l-22.8-29.3
				c-140.5,90-188.8,260.9-188.8,260.9c113.9-6,190.8-39.9,242.8-83.2c-4.2-12.9-10.8-32-10.8-32l26.9,17.5
				c23.5-22.8,41-47.5,54-71.8c-14.1-9-29.7-19.6-29.7-19.6l41.1-4.1C1529.7,821.9,1528.1,765.8,1528.1,765.8z"/>
			<path class="st8" d="M1420.2,996.6c-4.2-12.9-10.8-32-10.8-32l26.9,17.5c23.5-22.8,41-47.5,54-71.8c-14.1-9-29.7-19.6-29.7-19.6
				l41.1-4.1c27.9-64.8,26.3-120.8,26.3-120.8c-171.5,93.8-350.6,314-350.6,314C1291.4,1073.8,1368.3,1040,1420.2,996.6z"/>
			<g>
				<path class="st9" d="M2004.8,982.6h35.5c-5.8-4-13.1-6.3-21-6.3h-888.5c-46.5,0-84.2,33.4-84.2,74.6v47.4
					c0,41.2,37.7,74.6,84.2,74.6l878.5-0.3L2004.8,982.6z"/>
				<path class="st10" d="M1121.2,1098.2v-47.4c0-41.2,37.7-74.6,84.2-74.6h-19.1c-46.5,0-84.2,33.4-84.2,74.6v47.4
					c0,41.2,37.7,74.6,84.2,74.6h18.8C1158.8,1172.7,1121.2,1139.4,1121.2,1098.2z"/>
				<path class="st10" d="M1329.3,1098.2v-47.4c0-41.2,37.7-74.6,84.2-74.6h-19.1c-46.5,0-84.2,33.4-84.2,74.6v47.4
					c0,41.2,37.7,74.6,84.2,74.6h18.8C1366.8,1172.7,1329.3,1139.4,1329.3,1098.2z"/>
				<path class="st11" d="M1500.4,976.4c-44.5,0-80.5,31.9-80.5,71.4v53.6c0,39.4,36,71.4,80.5,71.4h553.1v-12h-2.3l-140.6-11.8
					l-28.4-98.8c0,0,54.9-54.6,58.4-56c3.6-1.4,110.6-5.7,110.6-5.7h2.3v-11.9h-553.1V976.4z"/>
				<path class="st4" d="M2017.6,1074.2c0-57.8,33.7-85.8,33.7-85.8h-539.6c-40.8,0-73.9,29.3-73.9,65.5v41.2
					c0,36.2,33.1,65.5,73.9,65.5h539.6C2051.3,1160.7,2017.6,1146.9,2017.6,1074.2z"/>
				<path class="st4" d="M1437.8,1053.9v41.2c0,5.4,0.8,10.7,2.2,15.7c18.2-39.5,53.1-77.5,119.5-89.7
					c155-28.5,491.9-32.8,491.9-32.8h-539.6C1470.9,988.4,1437.8,1017.7,1437.8,1053.9z"/>
			</g>
			<g>
				<path class="st12" d="M1990.2,1375.6h40.1c-6.6-5-14.8-7.9-23.7-7.9H1001c-52.6,0-95.3,41.8-95.3,93.4v59.3
					c0,51.6,42.6,93.4,95.3,93.4l994.3-0.3L1990.2,1375.6z"/>
				<path class="st3" d="M1419.3,1367.8c-50.3,0-91.1,40-91.1,89.3v67c0,49.3,40.8,89.3,91.1,89.3h626v-15h-2.6l-159.1-14.8
					l-32.2-123.7c0,0,62.1-68.4,66.1-70.1c4-1.8,125.2-7.1,125.2-7.1h2.6v-14.9L1419.3,1367.8L1419.3,1367.8z"/>
				<path class="st4" d="M2004.7,1490.2c0-72.3,38.1-107.4,38.1-107.4h-610.7c-46.2,0-83.7,36.7-83.7,82v51.6
					c0,45.3,37.5,82,83.7,82h610.7C2042.8,1598.5,2004.7,1581.3,2004.7,1490.2z"/>
				<path class="st4" d="M1348.4,1464.9v51.6c0,6.8,0.9,13.4,2.4,19.7c20.6-49.4,60.1-97,135.2-112.3c175.5-35.7,556.7-41,556.7-41
					H1432C1385.9,1382.8,1348.4,1419.6,1348.4,1464.9z"/>
			</g>
			<g>
				<g>
					<g class="st13">
						<g>
							<g>
								<g>
									<defs>
										<polygon id="SVGID_1_" points="1012.9,1518.6 1019.9,1464.8 1269.3,1464.8 1262.2,1518.6 										"/>
									</defs>
									<clipPath id="SVGID_2_">
										<use xlink:href="#SVGID_1_"  style="overflow:visible;"/>
									</clipPath>
									<g class="st14">
										<g>
											<g>
												<g>
													<path class="st15" d="M1029.5,1508.7c-0.7,0-1.3,0-1.8,0c-0.7,0-1.3-0.1-1.9-0.1l4.1-32.3c0.7-0.1,1.5-0.2,2.4-0.2
														c0.8,0,1.6-0.1,2.4-0.1c0.1,0,0.1,0,0.2,0c5.6,0,9.5,1.4,11.8,4.1s3.1,6.8,2.4,12.1c-0.6,5.1-2.5,9.1-5.6,12
														s-7.5,4.4-13.3,4.4C1030,1508.7,1029.8,1508.7,1029.5,1508.7 M1035.7,1466.2c-0.1,0-0.2,0-0.3,0
														c-2.1,0-4.5,0.1-7.4,0.3c-2.9,0.2-5.7,0.5-8.4,1l-6.2,49.7c2.6,0.5,5.2,0.9,7.9,1c2.5,0.1,4.7,0.2,6.6,0.2
														c0.2,0,0.4,0,0.6,0c4.5,0,8.6-0.6,12.4-1.7s7-2.7,9.8-4.9c2.8-2.2,5.1-4.9,6.9-8.2c1.8-3.3,2.9-7.2,3.5-11.6
														c0.6-4.6,0.4-8.6-0.6-11.8c-1-3.3-2.6-6-4.8-8.1c-2.3-2.1-5.1-3.6-8.5-4.6C1043.7,1466.7,1039.9,1466.2,1035.7,1466.2"
														/>
													<path class="st15" d="M1091.3,1508.5c-2.1,0-3.9-0.4-5.4-1.1c-1.6-0.8-2.8-1.9-3.8-3.3s-1.6-3.2-2-5.2
														s-0.4-4.3-0.1-6.8s0.9-4.7,1.8-6.7s2-3.8,3.3-5.2c1.3-1.5,2.9-2.6,4.6-3.4c1.8-0.8,3.7-1.2,5.9-1.2c0,0,0,0,0.1,0
														c2.1,0,3.9,0.4,5.5,1.2c1.6,0.8,2.9,1.9,3.8,3.3c1,1.4,1.6,3.2,2,5.2s0.4,4.3,0.1,6.8s-0.9,4.8-1.8,6.8s-2,3.8-3.3,5.2
														c-1.3,1.5-2.9,2.6-4.7,3.4c-1.8,0.8-3.7,1.2-5.8,1.2C1091.4,1508.5,1091.4,1508.5,1091.3,1508.5 M1097,1465.3
														c-0.1,0-0.1,0-0.2,0c-3.4,0-6.6,0.6-9.8,1.7c-3.2,1.2-6.1,2.9-8.7,5.1c-2.6,2.3-4.8,5.1-6.6,8.4
														c-1.8,3.3-2.9,7.2-3.5,11.5c-0.5,4.4-0.4,8.2,0.5,11.5s2.4,6.1,4.4,8.3c2,2.2,4.5,3.9,7.4,5s6,1.6,9.5,1.6
														c0.1,0,0.1,0,0.2,0c3.6,0,7-0.6,10.2-1.7c3.2-1.2,6.1-2.8,8.7-5.1c2.5-2.2,4.6-5,6.4-8.4c1.7-3.3,2.8-7.2,3.4-11.5
														c0.5-4.4,0.4-8.2-0.5-11.5s-2.4-6.1-4.4-8.3c-2-2.2-4.5-3.9-7.4-5C1103.6,1465.9,1100.5,1465.3,1097,1465.3"/>
													<path class="st15" d="M1159.3,1466.2l-11.4,0.1l-4.2,33.3c-0.4,3.2-1.3,5.6-2.7,6.9c-1.4,1.4-3.5,2.1-6.3,2.1h-0.1
														c-1.9,0-3.6-0.3-5.1-0.9s-3-1.4-4.3-2.2l-4.9,8.9c1.4,1.1,3.3,2,5.6,2.8c2.2,0.8,5,1.2,8.2,1.2c0.1,0,0.1,0,0.2,0
														c3.6,0,6.7-0.5,9.2-1.5s4.5-2.3,6.1-3.9c1.6-1.7,2.8-3.6,3.7-5.8c0.8-2.2,1.4-4.6,1.7-7.1L1159.3,1466.2"/>
													<path class="st15" d="M1188,1508c-2.1,0-3.9-0.4-5.5-1.2c-1.6-0.8-2.8-1.9-3.8-3.3s-1.6-3.2-2-5.2s-0.4-4.3-0.1-6.8
														s0.9-4.7,1.8-6.7s2-3.8,3.3-5.2c1.3-1.5,2.9-2.6,4.6-3.4c1.8-0.8,3.7-1.2,5.9-1.2c0,0,0,0,0.1,0c2.1,0,3.9,0.4,5.5,1.2
														c1.6,0.8,2.9,1.9,3.8,3.3c1,1.4,1.6,3.2,2,5.2s0.4,4.3,0.1,6.8s-0.9,4.8-1.8,6.8s-2,3.8-3.3,5.2
														c-1.3,1.5-2.9,2.6-4.7,3.4C1192.2,1507.6,1190.2,1508,1188,1508C1188.1,1508,1188.1,1508,1188,1508 M1193.7,1464.8
														c-0.1,0-0.1,0-0.2,0c-3.4,0-6.6,0.6-9.8,1.8c-3.2,1.1-6.1,2.8-8.7,5.1c-2.6,2.3-4.8,5.1-6.6,8.4
														c-1.8,3.3-3,7.2-3.5,11.5c-0.5,4.4-0.4,8.2,0.5,11.5s2.4,6.1,4.4,8.3c2,2.2,4.5,3.9,7.4,5s6,1.6,9.4,1.6
														c0.1,0,0.2,0,0.2,0c3.6,0,7-0.6,10.2-1.7s6.1-2.8,8.7-5.1c2.5-2.2,4.6-5,6.4-8.4c1.7-3.3,2.8-7.2,3.4-11.5
														c0.5-4.4,0.4-8.2-0.5-11.5s-2.4-6.1-4.4-8.3c-2-2.2-4.5-3.9-7.4-5C1200.2,1465.4,1197.1,1464.8,1193.7,1464.8"/>
													<path class="st15" d="M1269,1465.6l-11.4,0.1l-3.9,30.8c-0.5,4.1-1.8,7.1-3.7,8.8c-1.9,1.7-4.3,2.6-7.1,2.6h-0.1
														c-1.3,0-2.5-0.2-3.6-0.6s-2-1-2.7-1.9s-1.2-2.1-1.5-3.5s-0.3-3.2,0-5.3l3.9-30.8l-11.4,0.1l-4,31.8
														c-0.4,3-0.3,5.7,0.2,8.2s1.5,4.6,2.9,6.4c1.5,1.8,3.4,3.2,5.9,4.2c2.4,1,5.4,1.5,8.9,1.5c0.1,0,0.1,0,0.2,0
														c3.6,0,6.8-0.5,9.6-1.5c2.8-1,5.1-2.4,7-4.2c1.9-1.8,3.5-4,4.6-6.5s1.9-5.3,2.3-8.3L1269,1465.6"/>
												</g>
											</g>
										</g>
									</g>
								</g>
							</g>
						</g>
					</g>
				</g>
			</g>
			<g>
				<path class="st7" d="M872.6,1178.6h-40.2c6.6-3.9,14.8-6.3,23.7-6.3h1006c52.6,0,95.3,33.2,95.3,74.1v47.1
					c0,40.9-42.7,74.1-95.3,74.1l-994.7-0.3L872.6,1178.6z"/>
				<path class="st8" d="M1443.7,1172.5c50.3,0,91.1,31.7,91.1,70.9v53.2c0,39.1-40.8,70.9-91.1,70.9H817.5v-11.9h2.6l159.2-11.7
					l32.2-98.2c0,0-62.1-54.2-66.2-55.6c-4.1-1.4-125.2-5.6-125.2-5.6h-2.6v-11.8h626.2V1172.5z"/>
				<path class="st4" d="M858.1,1269.6c0-57.4-38.1-85.2-38.1-85.2h611c46.2,0,83.7,29.1,83.7,65.1v40.9c0,35.9-37.5,65.1-83.7,65.1
					H820C820,1355.5,858.1,1341.9,858.1,1269.6z"/>
				<path class="st4" d="M1514.6,1249.5v40.9c0,5.4-0.9,10.6-2.4,15.6c-20.6-39.2-60.1-77-135.3-89.1
					c-175.5-28.3-556.9-32.5-556.9-32.5h611C1477.1,1184.4,1514.6,1213.6,1514.6,1249.5z"/>
				<path class="st16" d="M1773.2,1293.5v-47.1c0-40.9-42.7-74.1-95.3-74.1h95.5c52.6,0,95.3,33.2,95.3,74.1v47.1
					c0,40.9-42.7,74.1-95.3,74.1h-94.3C1731.2,1367.1,1773.2,1334.1,1773.2,1293.5z"/>
			</g>
			<path class="st17" d="M796.7,1621.3h-43.3c7.1-4.4,15.9-7,25.6-7h1084.5c56.7,0,102.7,37.1,102.7,82.8v52.6
				c0,45.7-46,82.8-102.7,82.8l-1072.3-0.3L796.7,1621.3z"/>
			<path class="st18" d="M1412.4,1614.4c54.3,0,98.2,35.4,98.2,79.2v59.4c0,43.7-44,79.2-98.2,79.2H737.2v-13.3h2.8l171.6-13.1
				l34.7-109.7c0,0-67-60.6-71.3-62.2c-4.4-1.6-135-6.3-135-6.3h-2.8v-13.2H1412.4z"/>
			<path class="st4" d="M781,1722.9c0-64.1-41.1-95.2-41.1-95.2h658.6c49.8,0,90.2,32.6,90.2,72.7v45.7c0,40.2-40.4,72.7-90.2,72.7
				H739.9C739.9,1818.9,781,1803.7,781,1722.9z"/>
			<path class="st4" d="M1488.8,1700.4v45.7c0,6-0.9,11.9-2.6,17.4c-22.2-43.8-64.8-86-145.8-99.6
				c-189.2-31.7-600.4-36.4-600.4-36.4h658.6C1448.4,1627.7,1488.8,1660.3,1488.8,1700.4z"/>
			<path class="st19" d="M2305,1855H476c-5.4,0-9.8-4.4-9.8-9.8v-4.5c0-5.4,4.4-9.8,9.8-9.8h1829c5.4,0,9.8,4.4,9.8,9.8v4.5
				C2314.8,1850.6,2310.4,1855,2305,1855z"/>
			<polygon class="st20" points="455,1037.9 808.1,836 855.8,930.5 494.5,1121.6 			"/>
			<path class="st7" d="M1120.4,462.6c0,0-2.8,27.5-24.5,29.4c21.7,1.9,24.5,29.4,24.5,29.4s2.8-27.5,24.5-29.4
				C1123.2,490.1,1120.4,462.6,1120.4,462.6z"/>
			<path class="st17" d="M746,251.7c0,0-3.7,36.6-32.6,39.1c28.9,2.5,32.6,39.1,32.6,39.1s3.7-36.6,32.6-39.1
				C749.7,288.3,746,251.7,746,251.7z"/>
			<path class="st11" d="M594.7,578.8c0,0-2.5,24.6-21.9,26.3c19.4,1.7,21.9,26.3,21.9,26.3s2.5-24.6,21.9-26.3
				C597.2,603.4,594.7,578.8,594.7,578.8z"/>
			<path class="st11" d="M2312.2,1164.9c0,0-3.7,36.6-32.6,39.1c28.9,2.5,32.6,39.1,32.6,39.1s3.7-36.6,32.6-39.1
				C2315.9,1201.5,2312.2,1164.9,2312.2,1164.9z"/>
			<path class="st7" d="M265.4,842.8c0,0-3.7,36.6-32.6,39.1c28.9,2.5,32.6,39.1,32.6,39.1s3.7-36.6,32.6-39.1
				C269.1,879.4,265.4,842.8,265.4,842.8z"/>
			<path class="st7" d="M2389.3,803.7c0,0-3.7,36.6-32.6,39.1c28.9,2.5,32.6,39.1,32.6,39.1s3.7-36.6,32.6-39.1
				C2393,840.3,2389.3,803.7,2389.3,803.7z"/>
			<path class="st11" d="M1488.8,229.2c0,0-3.7,36.6-32.6,39.1c28.9,2.5,32.6,39.1,32.6,39.1s3.7-36.6,32.6-39.1
				C1492.5,265.8,1488.8,229.2,1488.8,229.2z"/>
			<path class="st17" d="M2107.2,534.7c0,0-2,23.1-17.7,24.7c15.7,1.6,17.7,24.7,17.7,24.7s2-23.1,17.7-24.7
				C2109.2,557.8,2107.2,534.7,2107.2,534.7z"/>
			<g>
				<path class="st21" d="M808.5,1660.3l-48.8,2.5l-6.2,144.6l-24.9,12l1.2,5.3l9.3,2.2c0,0,30-0.5,30.9-0.5s7.1-6.8,7.1-6.8
					l-0.9-1.2l5-3.4L808.5,1660.3z"/>
				<path class="st21" d="M940.6,1819.4c0,0-24.3-12.2-24.9-12l5.5-147.3l-60.4,0.2l27.4,154.6l3,2c-0.7,2.6-1.3,4.8-1.5,5.5
					c-0.4,1.9,10.3,2.1,14,2.7s14.5,1.8,21.5,3.7c6.9,1.9,15.7-3.7,15.7-3.7L940.6,1819.4z"/>
				<path class="st22" d="M942.2,1262.8c-7-18.3-13.9-11.1-26.6-33.2c-2-3.5-3.5-8.1-4.5-12.3c-3-12.5-9.6-24-19.4-32.4
					c-29.8-25.7-63.5-14.3-63.5-14.3s8.7,49.7,10.4,59.8c-7.4,10.1-14.9,20.5-14.9,20.5s-15.7,81.7,8.9,88.6
					c24.6,6.9,29.1-4.2,41.1-9.9c12-5.8,23.7,10,41.7-1c13.7-8.4,6.7-29.2,14-33.1C936.6,1291.5,949.8,1282.6,942.2,1262.8z"/>
				<path class="st22" d="M815.5,1211.8c-0.4-0.2-11.7-6.5-22.3-12.5l65.6-73c0,0-19.9-3.9-21.1-4c-1.2-0.1-29.7,8.7-29.7,8.7
					l-29.4,8c-22.4,81.8-50.3,96.6-50.3,96.6c-3.4,2.2-6.6,5.2-9.8,10.4c-11.1,18,0.1,29.3,6.5,34.5s-4.3,24.4,7.6,35.1
					c15.6,14.1,30,0.8,40.8,8.7c10.7,7.9,13.1,19.6,38.5,17.4s25.2-85.4,25.2-85.4S816.3,1212.2,815.5,1211.8z"/>
				<path class="st11" d="M926.8,1361c0,0,21.6,103.3,15.4,114.5c-6.3,11.2-88.7,14.7-88.7,14.7l-3.5-132.6l31.4-47.5L926.8,1361z"
					/>
				<path class="st23" d="M900.7,1480.6l-15.4-42.2c0,0-50.7-18.5-53.9-18.7s-46.1,18.7-46.1,18.7s-13.1,26.5-15.7,31.3
					c-1.4,2.6,1.9,18.9,5.1,32.8l-18.2,0.9L744.4,1770c0,0,26.2,14.1,54.3,2l23.1-232.9l20.1-3l30.2,230.9c0,0,24.1,18.1,58.4,3
					l-22.7-256.9C906.9,1502,904.5,1491,900.7,1480.6z"/>
				<path class="st21" d="M802.1,1278.7c0,0,22.5-4.7,64.3-1.7s-19.3,26.5-19.3,26.5s-21.5-0.7-22.4-0.9
					C823.8,1302.4,802.1,1278.7,802.1,1278.7z"/>
				<rect x="818.2" y="1255" class="st21" width="37.1" height="65.2"/>
				<path class="st24" d="M855.3,1266.2V1244h-37.1v18.9C826.2,1267.2,838,1269.6,855.3,1266.2z"/>
				<path class="st21" d="M907.3,1182.5c-3.5-1.8-7.7-1.4-11.4,0.5c1.3-33.6-26.1-61.8-60.6-60.6c-34.5-1.2-61.9,27-60.6,60.6
					c-3.7-1.9-7.8-2.2-11.4-0.5c-6.8,3.4-8.9,13-4.7,21.5s13.1,12.7,19.9,9.3c0.9-0.5,1.8-1.1,2.6-1.8c3.9,27.8,27.1,48.6,54.2,48.2
					c27.2,0.4,50.3-20.4,54.2-48.2c0.8,0.7,1.6,1.3,2.6,1.8c6.8,3.4,15.7-0.8,19.9-9.3S914.1,1185.9,907.3,1182.5z"/>
				<path class="st25" d="M820,1194.9c0.2,2.8-2,5.2-4.8,5.4c-2.8,0.2-5.2-2-5.4-4.8s2-5.2,4.8-5.4
					C817.4,1189.9,819.8,1192.1,820,1194.9z"/>
				<path class="st25" d="M863.9,1195.4c0.2,2.8-2,5.2-4.8,5.4c-2.8,0.2-5.2-2-5.4-4.8s2-5.2,4.8-5.4
					C861.3,1190.4,863.7,1192.6,863.9,1195.4z"/>
				<path class="st22" d="M825.6,1184.5c-2.6-0.9-5-1.6-7.4-2s-4.8-0.5-7.1-0.3c-2.3,0.3-4.6,0.8-6.9,1.8l-0.9,0.3
					c-0.3,0.1-0.5,0.3-0.8,0.4l-1.7,0.8c-1.1,0.6-2.2,1.3-3.5,1.9c0.7-1.1,1.5-2.3,2.4-3.3c1-0.9,1.9-2,3.1-2.7
					c2.3-1.6,5.1-2.6,7.9-2.9c2.8-0.3,5.7,0.1,8.3,1.2C821.6,1180.7,823.9,1182.3,825.6,1184.5z"/>
				<path class="st22" d="M846.1,1184.4c1.7-2.2,4-3.8,6.5-4.8c2.6-1.1,5.5-1.5,8.3-1.3c2.8,0.3,5.6,1.2,7.9,2.8
					c1.2,0.7,2.1,1.8,3.2,2.7c0.9,1,1.7,2.1,2.4,3.3c-1.3-0.6-2.3-1.3-3.5-1.8l-1.7-0.8c-0.3-0.1-0.5-0.3-0.8-0.4l-0.9-0.3
					c-2.2-1-4.6-1.4-6.9-1.7c-2.3-0.2-4.7-0.1-7.1,0.3C851.1,1182.8,848.7,1183.5,846.1,1184.4z"/>
				<path class="st24" d="M837.8,1187.9c-0.3,2.7-0.1,5.4,0.4,8c0.3,1.3,0.6,2.6,1.1,4c0.5,1.3,1.2,2.6,2.4,3.7
					c1.4,1,1.9,1.4,2.3,2.3c0.4,0.8,0.2,1.9-0.2,2.9c-1,2.1-3.1,3.6-5.5,4.7c2.6-0.1,5.5-1.2,7.3-3.8c0.8-1.2,1.3-3,0.8-4.7
					c-0.6-1.7-1.5-2.3-2.6-3.2c-1-0.8-1.6-1.8-2.2-3c-0.6-1.1-1-2.3-1.4-3.5C839.3,1193,838.6,1190.5,837.8,1187.9z"/>
				<path class="st24" d="M821.1,1219.9c1.4,1,2.9,1.9,4.4,2.6c1.5,0.8,3.1,1.5,4.6,2c3.2,1.1,6.5,1.8,9.8,1.8s6.6-0.7,9.8-1.9
					c3.1-1.3,6-3.1,8.6-5.3c-1.2,1.2-2.5,2.4-3.8,3.4c-1.4,1-2.9,1.9-4.4,2.7c-1.6,0.7-3.2,1.3-4.9,1.7c-1.7,0.4-3.5,0.6-5.2,0.6
					c-3.5,0-7-0.8-10.2-2.1C826.6,1224,823.6,1222.2,821.1,1219.9z"/>
				<path class="st26" d="M908.9,1291.7c-20.1-19.5-47.9-15.4-47.9-15.4c-3.1,3.1-6.2,5.5-9.3,7.2c-4.4,2.2-9.9,4.2-16.1,4.3
					c-0.1,0-0.2,0-0.3,0s-0.2,0-0.3,0c-6.2-0.2-11.7-2.1-16.1-4.3c-3.1-1.8-6.2-4.1-9.3-7.2c0,0-27.8-4.1-47.9,15.4
					c-20.1,19.5-40.2,62.6-40.2,62.6s25.4,23.2,49.7,26.2c0,0,11.8,54.4,14.2,58c0,0,12.2,5.7,30,8.7c6.5,1.2,12.8,1.7,18.9,1.8
					c0.4,0,0.8,0,1.1,0c0.4,0,0.8,0,1.1,0c6.1,0,12.4-0.5,18.9-1.8c17.8-3,30-8.7,30-8.7c2.4-3.5,14.2-58,14.2-58
					c24.3-3,49.7-26.2,49.7-26.2S929.1,1311.2,908.9,1291.7z"/>
				<g>
					<path class="st9" d="M837.5,1423.7c0,0,7.5-1.2,11.6,4.2l-0.3,14.1l-9.1,4.3c0,0-11.3-9.6-10.5-9.9
						C830,1436.2,837.5,1423.7,837.5,1423.7z"/>
					<polygon class="st9" points="860.7,1516 740.4,1550.8 728.8,1462.8 849.1,1428 					"/>
					<polygon class="st4" points="730.5,1536.7 741,1545.6 856.2,1512.6 845.8,1429.6 837.7,1426.2 					"/>
					<polygon class="st4" points="856.2,1512.6 848,1505.4 832.9,1488.9 833.9,1443.5 837.7,1426.2 845.9,1429.5 					"/>
					<polygon class="st11" points="848,1505.4 727.7,1540.2 717.2,1458.5 837.5,1423.7 					"/>
				</g>
				<path class="st4" d="M788.9,1333.2c-2.8,3.4-5.3,6.9-7.7,10.6c-2.3,3.7-4.4,7.5-6.1,11.4c-1.7,3.9-3,8.1-3.7,12.3
					c-0.7,4.2-0.8,8.6-0.3,13c-1.4-4.2-1.8-8.7-1.3-13.2c0.4-4.5,1.7-8.8,3.4-12.9c1.8-4.1,4-8,6.7-11.5
					C782.6,1339.3,785.5,1336,788.9,1333.2z"/>
				<path class="st21" d="M764,1481.7c-21.2-35.9-11.4-79.5-3-103.6c-16.6-5.4-32-17.5-37.5-22c-33.8,76.3,23.4,141.6,23.4,141.6
					l0.1-0.1c1.1,2.5,1.9,4.7,1.9,4.7c13.5,24.4,14.1,24,15.1,23.7s-1.7-12-0.5-11.9c1.2,0,9.7,14,10.3,12.7s-5.7-15.2-4.8-15.4
					c0.9-0.2,8.9,13.4,10.7,12.2c1.8-1.2-7.5-15.8-5.7-16.2c1.8-0.4,10.9,14.9,12.4,13.5c1.2-1.1-8.6-18.4-11.8-23.9
					c-0.4-0.7,0.1-1.6,1-1.5c12.5,0.7,13.5,0.1,13.3-1.3C788.7,1493.2,773.7,1486.2,764,1481.7z"/>
				<path class="st9" d="M905.7,1280.1c-26,93.4,5.4,121,5.5,121.7l-4.7,21.7c0,0-63.9-41.6-23.4-152.3c1.1-3.1,4.5-4.7,7.5-3.3
					l12.1,5.6C905.3,1274.7,906.4,1277.5,905.7,1280.1z"/>
				<path class="st21" d="M962.4,1508.3c0,0-0.8-2.1-1.6-4.5l0,0l0,0l-1.2-9.1c-0.8-20.5-4.2-93.4-15.4-136.2
					c-8.5,6.8-26.7,19.6-44.3,21.9c11,23.1,34.1,76.2,38.1,124.6c-4.1,9.2-9.6,22-9.1,22.7c0.7,1.1,1.9,1,10.3-7.4
					c0.5-0.5,1.5-0.3,1.6,0.5c1.2,5.9,5.1,24.3,6.7,24.3c1.9,0-1.2-16.5,0.3-17.4s4.1,15.3,6.1,15.1c2-0.3-0.9-15-0.1-15.4
					c0.8-0.4,5,13.4,6.3,13.9s-1.5-14.7-0.6-15.5c0.8-0.8,6.2,9.1,7.1,8.8C967.5,1534.2,968.1,1534.1,962.4,1508.3z"/>
				<path class="st22" d="M764,1182.2c0,0-3.8-69.5,73.7-74.1c0,0-2.4,68.2-63,74.9l-4.7-9.1L764,1182.2z"/>
				<path class="st22" d="M837.7,1108.1c0,0,62.8-3.5,66.1,73.4c0,0-4.6-0.3-8,1.5c0,0-49.7-12.4-62.1-60.6L837.7,1108.1z"/>
				<path class="st27" d="M749.8,1824.7c-12.6,1.3-18.6-1.5-21.1-5.3l-8.6,5.6c-3.4,2.2-1.9,7.4,2.2,7.4h55.6c2,0,3.5-1.6,3.5-3.5
					v-15C777.8,1817.5,769.4,1822.7,749.8,1824.7z"/>
				<path class="st27" d="M919.4,1824.7c12.6,1.3,18.6-1.5,21.1-5.3l8.6,5.6c3.4,2.2,1.9,7.4-2.2,7.4h-55.6c-2,0-3.5-1.6-3.5-3.5
					v-15C891.4,1817.5,899.8,1822.7,919.4,1824.7z"/>
			</g>
			<g>
				<g>
					<path class="st4" d="M2113.6,1327.4l64.2,5.2l-20.7,51.9l-32.4-2.6l-13.5,43.3c-3.3-1.5-5.7-2.6-6.2-3
						c-1-0.7-4.6-22.1-7.7-42.4L2113.6,1327.4z"/>
					<path class="st27" d="M2150.2,1804.9v22.6c0,1.9,1.5,3.4,3.4,3.4h52.8c3.8,0,5.3-5,2.1-7.1l-29.6-18.9
						C2178.8,1804.9,2167.2,1813.4,2150.2,1804.9z"/>
					<path class="st21" d="M2046.5,845.7c-0.8,0.3-1.6-0.4-1.4-1.2c1.3-6.3,5.4-26.1,3.8-26.8c-1.8-0.8-5.8,16.8-7.7,17
						c-1.8,0.2,2.5-16.9,0.5-17.4c-2.1-0.6-5.5,15.1-6.5,15.2c-1,0.1,0.8-15.3-0.3-16.4c-1-1.1-4.8,15.1-6,15.5
						c-1.1,0.4-2.2-11.7-3.3-11.7c-1,0-1.7-0.2-7.1,27.6c0,0-0.3,10.2-2.1,12.6l4,8.2l12.5,0.4c0,0,27.1-24.5,26.9-26
						C2059.6,841.4,2058.4,841.1,2046.5,845.7z"/>
					<path class="st21" d="M2174.8,851.9c0.5,0.6,1.6,0.4,1.8-0.4c1.7-6.2,7.1-25.7,8.8-25.6c2,0.1-2.4,17.6-0.9,18.6
						s5.4-16.2,7.5-15.7c2.1,0.4-2,16-1.1,16.5c0.8,0.5,6.3-14,7.7-14.5s-2.6,15.7-1.8,16.6c0.8,0.9,7.3-9.4,8.2-8.9
						s1.6,0.6-6.3,27.8c0,0-4.4,9.2-3.9,12.2l-7.3,5.5l-11.3-5.3c0,0-12.9-34.1-12.1-35.4C2165.1,842.1,2166.3,842.3,2174.8,851.9z"
						/>
					<polygon class="st21" points="2075.7,1075 2075.9,1122.7 2029.7,1115.5 2037.4,1062 					"/>
					<path class="st28" d="M2033.8,1086.6l3.6-24.7l38.4,17.6v9.4C2066.6,1091.2,2049.2,1093.2,2033.8,1086.6z"/>
					<path class="st27" d="M1992.1,1802.4v24.8c0,2-1.7,3.7-3.7,3.7h-58.1c-4.2,0-5.8-5.5-2.3-7.8l32.6-20.8
						C1960.6,1802.4,1973.4,1811.7,1992.1,1802.4z"/>
					<g>
						<g>
							<g>
								<path class="st23" d="M1939.1,1380.7c0.1-5.3-13.7,10.3-13.4,6.1c5.4-88.1,177.6-14.2,177.6-14.2l42,30.8l47.5,408.4
									c0,0-25.8,7.5-42.7,1.4l-105.1-350l-12.9-5C2032,1458.2,1974.5,1418.1,1939.1,1380.7z"/>
							</g>
						</g>
					</g>
					<g>
						<g>
							<g>
								<path class="st23" d="M1925.4,1390.4c0,1-0.1,2.1-0.1,3.2C1925.3,1392.5,1925.4,1391.4,1925.4,1390.4z"/>
							</g>
							<g>
								<path class="st23" d="M1925.3,1393.6c0,1.1-0.1,2.2-0.1,3.4C1925.2,1395.9,1925.2,1394.7,1925.3,1393.6z"/>
							</g>
							<g>
								<path class="st23" d="M1925.1,1397.5c0,1.2-0.1,2.4-0.1,3.7C1925.1,1399.9,1925.1,1398.7,1925.1,1397.5z"/>
							</g>
							<g>
								<path class="st23" d="M1925.6,1386.8c-0.1,1-0.1,1.9-0.2,3C1925.5,1388.7,1925.6,1387.8,1925.6,1386.8z"/>
							</g>
							<g>
								<path class="st23" d="M1925.6,1366.8c35.5,37.4,106.4,91.5,106.4,91.5l12.9,5l-12.9-5l-40,353.6c0,0-28.5,5.4-44.7-3.4
									C1947.3,1808.5,1923.3,1471.9,1925.6,1366.8z"/>
							</g>
							<g>
								<path class="st23" d="M2192.7,1811.9c0,0-11.1,3.2-23.5,3.7C2181.6,1815.1,2192.7,1811.9,2192.7,1811.9L2192.7,1811.9z"/>
							</g>
							<g>
								<path class="st23" d="M2155,1814.6c1.1,0.2,2.3,0.4,3.5,0.6C2157.3,1815,2156.1,1814.8,2155,1814.6z"/>
							</g>
							<g>
								<path class="st23" d="M2169.2,1815.5c-3,0.1-6,0.1-9-0.2C2163.2,1815.6,2166.2,1815.7,2169.2,1815.5z"/>
							</g>
						</g>
					</g>
					<path class="st23" d="M2145.3,1403.4l6.8,58.3c-17.9,6.9-61.6,14.4-94.5-57.6c-10.4-22.7-13-39-11.1-50.8
						c31.5,8.4,56.8,19.3,56.8,19.3L2145.3,1403.4z"/>
					<path class="st29" d="M1988.3,1165.5c2,0,31.8-67.6,31.8-67.6c25.5,17.9,60.1,5.5,60.1,5.5s139.3,255,45.9,294.7
						c-93.4,39.8-181.6-8.6-181.6-8.6s-19.9-51.7-19.9-53.7C1924.6,1333.8,1986.3,1165.5,1988.3,1165.5z"/>
					<path class="st26" d="M2168.9,879.2c0,0,6,121-5.3,143.1c-37.6,73.6-84.3,81-84.3,81s-16.1,257.3-2.8,318.9
						c0,0,44.1,13.6,109-16.9c0,0-49.7-199.5-47.1-224.7c0,0,79.5-70.9,82.2-154.4s-19.2-157.7-19.2-157.7L2168.9,879.2z"/>
					<path class="st26" d="M1954.5,1413c0,0,5-95.8,26.8-186.6c21.9-90.8,37.8-128.6,37.8-128.6c-29.3-32.3-24.5-61.5-21.9-99.4
						c3-43.7,45.7-131.2,45.7-131.2l-28.8-18.9c-138.2,166-61.6,298.2-61.6,298.2s-51.7,182.9-58.7,238.6
						C1893.8,1385.2,1921.3,1401.1,1954.5,1413z"/>
					<path class="st15" d="M2137,1180.4c-1.7-1.2-3.6-3-5.6-5.3c-5.9-7.1-8.9-15-11-23.9c1.3,3.8,4.7,14.8,11.8,23.2
						c3.2,3.7,4.9,4.9,6.5,5.9c-0.3,0.2-0.4,0.4-0.4,0.4c0,0.2,0,0.3,0,0.5c-1.8,0.4-5.1,0.5-10.5-2.5c-3.4-1.8-6-4-8.8-6.3
						c1.8,1.3,5.6,4,9.2,5.7C2130.6,1179.4,2134.3,1180.6,2137,1180.4z"/>
					<path class="st15" d="M1953.5,1146c2.4-1.5,4.4-3.7,6.3-5.8c5.9-6.9,9.1-15,11.8-23.2c-2.1,8.9-5.1,16.8-11,23.9
						c-1.9,2.3-3.9,4.1-5.6,5.3c1.3,0.1,2.9-0.2,3.9-0.5c1.7-0.4,3.4-1.1,5-1.9c3.3-1.6,6.6-3.9,9.2-5.7c-2.5,2.1-5.3,4.5-8.8,6.3
						c-1.6,0.9-3.3,1.6-5.1,2.1c-1.8,0.5-3.6,0.8-5.7,0.3l-1.1-0.3L1953.5,1146z"/>
					<polygon class="st30" points="2009.4,977.8 2006.6,1010.5 2011.7,1013.8 2021.3,973.9 					"/>
					<path class="st24" d="M2016.3,1007.1c1.4,7.4-2.2,14.3-8.2,15.5c-5.9,1.1-11.9-3.9-13.3-11.4c-1.4-7.4,2.2-14.3,8.2-15.5
						C2008.9,994.6,2014.9,999.7,2016.3,1007.1z"/>
					<path class="st21" d="M2007.8,1037.4c-1.5-9.5-1.3-19.1-0.5-27.5c0.2-1.8,0.3-3.6,0.3-5.4c0.2-7.2,1.7-14.6,4.9-21.9
						c10.2-23.5,35.1-37.7,60.5-34.6c34.2,4.2,56.8,36.4,50.2,69.4c4-1.3,8.1-0.9,11.3,1.4c6.2,4.4,6.7,14.2,1.3,21.9
						c-5.5,7.7-14.9,10.4-21.1,6c-0.9-0.6-1.6-1.3-2.2-2.1c-8.5,27.4-35.7,44.5-63.2,38.5
						C2028.4,1078.5,2011.2,1061.3,2007.8,1037.4z"/>
					<path class="st25" d="M2071.1,1011.2c-1.3,3.4,1.1,7,4.8,7c2,0,3.9-1.3,4.6-3.2c1.4-3.4-1.1-7-4.8-7
						C2073.7,1008,2071.8,1009.3,2071.1,1011.2z"/>
					<path class="st25" d="M2027.8,1004.7c-1.3,3.4,1.1,7,4.8,7c2,0,3.9-1.3,4.6-3.2c1.3-3.4-1.1-7-4.8-7
						C2030.4,1001.6,2028.5,1002.8,2027.8,1004.7z"/>
					<path class="st24" d="M2064.3,1046.8c-2.7,1.3-5.7,2.3-8.2,2.8c-2.8,0.5-5.7,0.7-8.5,0.3c-2.8-0.4-5.5-1.4-8-2.8
						c-2.5-1.5-4.7-3.4-6.7-5.5c2,2.9,3.9,4.5,6.2,6.2c2.5,1.6,5.1,2.7,8.3,3.1c3,0.4,6,0.2,8.8-0.6
						C2059.2,1049.6,2061.9,1048.5,2064.3,1046.8z"/>
					<path class="st30" d="M2067,1000.9c2.7-0.5,5.2-0.8,7.6-0.8c2.4,0,4.8,0.2,7.1,0.8c2.2,0.6,4.5,1.5,6.5,2.8
						c2.8,1.6,4.8,3.5,6.2,4.5c-0.9-2.3-2.4-5.1-4.5-6.8c-2-2-4.6-3.3-7.3-4.1c-2.8-0.7-5.7-0.8-8.4-0.1
						C2071.5,997.8,2069,999,2067,1000.9z"/>
					<path class="st30" d="M2046.7,997.5c-1.3-2.4-3.3-4.3-5.7-5.8c-2.4-1.5-5.1-2.4-8-2.6c-2.8-0.2-5.8,0.3-8.3,1.5
						c-2.5,0.9-4.8,3.1-6.4,5c1.8-0.5,4.1-1.6,7.3-2.2c2.4-0.6,4.7-0.7,7.1-0.6c2.3,0.1,4.7,0.6,7,1.5
						C2042.1,995.2,2044.4,996.2,2046.7,997.5z"/>
					<path class="st24" d="M2055.6,1004c-2.4,2.2-4.6,4.7-6.6,7.2c-2.1,2.5-4,5.2-5.7,8c-1,1.7-2.2,4-2.5,5.9
						c-0.2,1.1-0.1,2.1,1.7,3.9c1.2,1.2,2.5,2.3,3.8,3.2c1.4,0.9,2.8,1.8,4.3,2.4c-2.5-2.1-5-4.2-6.9-6.7c-0.3-0.4-0.9-1.2-1.1-1.7
						c-0.1-0.4,0.1-1.2,0.3-1.8c0.5-1.4,1.3-2.8,2.1-4.2c1.6-2.7,3.4-5.4,5.2-8.1C2052,1009.4,2053.8,1006.7,2055.6,1004z"/>
					<path class="st31" d="M2015.4,942.9c0,0-17.2-3.3,4-13.7s73-16.4,100.1,6.8c0,0,9.1-11.7,17.3-6.6c8.2,5.1-8.5,10.8-8.5,10.8
						s11.4,2.2,13.7,8.6c1.6,4.7-5.4,3.3-9.1,2.3c6.2,2.6,24.5,19.8,0.8,67c-4.2-2-31.4-40.8-31.4-40.8s-54.7,18-44.7,3.1
						c0,0-63.7,16-48.3-12.9C2009.2,967.6,1985.8,964.1,2015.4,942.9z"/>
					<path class="st31" d="M2133.6,1018.2c0,0-4.1-3.2-10.4-0.8c-6.3,2.3-10.3,16.5-10.3,16.5s-20.6,16.9-10.6-56.7
						c9.9-72.3,23.6,12,23.6,12L2133.6,1018.2z"/>
				</g>
				<g>
					<path class="st9" d="M1979.7,773.1l-10.6-1c1.9-1,4.1-1.5,6.5-1.3l265.8,26.1c13.9,1.4,24.2,12.5,23,24.8l-1.4,14.2
						c-1.2,12.3-13.5,21.2-27.4,19.8l-262.8-25.9L1979.7,773.1z"/>
					<path class="st10" d="M2240.6,833.7l1.4-14.2c1.2-12.3-9.1-23.4-23-24.8l5.7,0.6c13.9,1.4,24.2,12.5,23,24.8l-1.4,14.2
						c-1.2,12.3-13.5,21.2-27.4,19.8l-5.6-0.6C2227.2,854.9,2239.4,846,2240.6,833.7z"/>
					<path class="st10" d="M2178.3,827.6l1.4-14.2c1.2-12.3-9.1-23.4-23-24.8l5.7,0.6c13.9,1.4,24.2,12.5,23,24.8l-1.4,14.2
						c-1.2,12.3-13.5,21.2-27.4,19.8l-5.6-0.6C2164.9,848.8,2177.1,839.9,2178.3,827.6z"/>
					<path class="st11" d="M2130.7,786.1c13.3,1.3,23.1,11.9,22,23.7l-1.6,16c-1.2,11.8-12.9,20.3-26.2,19l-165.4-16.3l0.4-3.6
						l0.7,0.1l42.4,0.6l11.4-28.7c0,0-14.8-18-15.8-18.5s-32.9-5-32.9-5l-0.7-0.1l0.4-3.6L2130.7,786.1z"/>
					<path class="st4" d="M1973.1,800.1c1.7-17.3-7.6-26.7-7.6-26.7l161.4,15.9c12.2,1.2,21.3,11,20.2,21.8l-1.2,12.3
						c-1.1,10.8-11.8,18.6-24,17.4L1960.5,825C1960.5,825,1971,821.9,1973.1,800.1z"/>
					<path class="st4" d="M2147.2,811.1l-1.2,12.3c-0.2,1.6-0.5,3.2-1.1,4.6c-4.3-12.3-13.6-24.7-33.1-30.3
						c-45.5-13.1-146.2-24.3-146.2-24.3l161.4,15.9C2139.2,790.6,2148.3,800.3,2147.2,811.1z"/>
				</g>
			</g>
			<g>
				<path class="st32" d="M1721.3,1132.8l-9.2,20.6c-0.8,1.7,0,3.7,1.7,4.5l48.1,21.6c3.5,1.6,6.8-2.4,4.8-5.6l-18.6-29
					C1748,1144.8,1733.3,1147.5,1721.3,1132.8z"/>
				<path class="st27" d="M1660.1,1132.8l-9.2,20.6c-0.8,1.7,0,3.7,1.7,4.5l48.1,21.6c3.5,1.6,6.8-2.4,4.8-5.6l-18.6-29
					C1686.8,1144.8,1672.1,1147.5,1660.1,1132.8z"/>
				<path class="st30" d="M1556.1,565.9L1551,598l-10.8-42.8c0,0,15.2-7.4,15.8-4.7C1556.7,553.2,1556.1,565.9,1556.1,565.9z"/>
				<polygon class="st21" points="1470.1,635 1465.4,690.5 1514.4,688.2 1508.7,639 				"/>
				<path class="st24" d="M1511.4,662.4l-2.7-23.4l-38.7-4l-1.6,19.2C1476.1,661.9,1489.9,669.9,1511.4,662.4z"/>
				<g>
					<path class="st24" d="M1541.4,597.6c-2.9,6.1-1.4,12.9,3.5,15.3c4.9,2.4,11.2-0.7,14.2-6.8c2.9-6.1,1.4-12.9-3.5-15.3
						C1550.7,588.5,1544.4,591.5,1541.4,597.6z"/>
					<path class="st21" d="M1548.5,602.1c0.3-1.6,0.6-3.2,1-4.7c1.5-6.3,1.9-13.1,0.9-20.1c-3.4-22.7-21.7-40.8-44.4-44
						c-30.6-4.2-57.6,18.5-59.6,48.5c-3.2-2-6.8-2.7-10.1-1.4c-6.4,2.4-9.1,10.8-6.2,18.7c3,8,10.5,12.5,16.9,10.1
						c0.9-0.3,1.7-0.8,2.4-1.3c1,25.7,20.7,46.8,45.8,48c12.3,0.6,23.7-3.7,32.6-11.2C1540,635.7,1546.1,616.9,1548.5,602.1z"/>
					<path class="st24" d="M1510.4,585.3c0.1,3,0.1,5.9,0.3,8.8c0.2,2.8,0.5,5.8,1.6,7.8c1.1,1.6,2,2.6,2.1,4.6s-1,3.8-2.3,4.8
						c-2.7,2.2-6.1,2.5-9,1.8c2.9-0.5,5.7-1.5,7.4-3.4c0.8-1,1.3-2,1.1-3c-0.1-1.1-0.5-1.3-1.8-3.2c-0.9-1.6-1.2-3.2-1.4-4.8
						c-0.1-1.6-0.1-3.1,0-4.6C1508.6,591,1509.3,588.1,1510.4,585.3z"/>
					<path class="st25" d="M1493,588.5c0.3,3.1-2.4,5.6-5.5,5c-1.9-0.4-3.4-2-3.6-4c-0.3-3.1,2.4-5.6,5.5-5
						C1491.3,585,1492.8,586.6,1493,588.5z"/>
					<path class="st25" d="M1532.1,593c0.3,3.1-2.4,5.6-5.5,5c-1.9-0.4-3.4-2-3.6-4c-0.3-3.1,2.4-5.6,5.5-5
						C1530.4,589.4,1531.9,591,1532.1,593z"/>
					<path class="st24" d="M1485.4,620.2c1.2,1,2.5,2,3.8,2.9s2.7,1.7,4.1,2.4c2.8,1.4,5.8,2.4,8.9,2.7c3.1,0.4,6.2,0.1,9.2-0.7
						s5.9-2.2,8.6-3.9c-2.9,2.5-5.4,3.7-8.3,4.8c-3.1,1-6.2,1.4-9.6,1c-3.2-0.4-6.4-1.5-9.1-3.1
						C1490,624.6,1487.4,622.6,1485.4,620.2z"/>
					<path class="st30" d="M1498.8,579c-2.3-0.7-4.5-1.3-6.7-1.6s-4.3-0.4-6.3-0.1c-2.1,0.3-4.1,0.7-6.1,1.6
						c-1.5,0.5-5.2,2.6-6.2,3.1c1.1-2.1,2.8-4.3,4.8-5.5c2-1.5,4.5-2.4,7.1-2.7s5.2,0.1,7.5,1C1495.1,575.6,1497.3,577,1498.8,579z"
						/>
					<path class="st30" d="M1518.9,581.2c1.8-1.6,4.2-2.6,6.6-3.1c2.5-0.5,5.1-0.3,7.6,0.5c2.4,0.8,4.7,2.2,6.4,4
						c1.7,1.6,2.9,4.1,3.6,6.4c-0.9-0.6-4.1-3.4-5.5-4.2c-1.8-1.3-3.7-2.1-5.7-2.8c-2-0.6-4.1-1-6.3-1.1
						C1523.6,580.9,1521.3,581,1518.9,581.2z"/>
				</g>
				<path class="st23" d="M1497,895.4c0,0-10.2,69.3,56.7,81.4c66.9,12.1,150.2,8.5,150.2,8.5l11.6,159.2l35,1.8
					c0,0,90-221.1-34.6-255.7L1604,891l-46.1-3.3c0,0-46.6-11.5-47.2-9.3C1510.2,880.6,1498.1,896.5,1497,895.4z"/>
				<path class="st23" d="M1435.5,895.8c0,0-10.2,69.3,56.7,81.4c66.9,12.1,150.2,8.5,150.2,8.5l11.6,159.2l35,1.8
					c0,0,90-221.1-34.6-255.7l-111.9,0.5l-46.1-3.3c0,0-46.6-11.5-47.2-9.3C1448.7,881,1436.6,896.9,1435.5,895.8z"/>
				<path class="st26" d="M1519.8,668.4c0,0,46.1,5.9,57.8,15.4c11.7,9.5,68,149.3,68,149.3l-46.8,54.9l-99.5,0.7
					c0,0-74.6,40.2-121.5,2.2s-22.7-170.5,4.4-199s75.4-27.8,75.4-27.8S1501.5,694.7,1519.8,668.4z"/>
				<path class="st15" d="M1430.6,737.9c1.6,7.6,2.7,15.3,3.4,23.1c0.4,3.9,0.6,7.8,0.8,11.7c0.1,3.9,0.2,7.8,0.2,11.7
					c-0.2,7.8-0.6,15.6-1.9,23.4c-1.3,7.7-3.2,15.4-6.8,22.4c2.4-7.4,3.6-15,4.5-22.7c0.8-7.7,1.1-15.4,1.2-23.1
					c0.2-7.7,0-15.4-0.3-23.2C1431.3,753.4,1431,745.7,1430.6,737.9z"/>
				<path class="st15" d="M1568.5,732.8c2.1,11.3,4.3,22.6,6.6,33.9c2.3,11.3,4.7,22.5,7.4,33.7c2.7,11.2,5.7,22.2,9.3,33.1
					c1.8,5.4,3.8,10.8,6.2,16c2.3,5.2,5.1,10.3,8.8,14.7c-4.2-4-7.4-9-10.2-14c-2.7-5.1-5.1-10.4-7.1-15.9
					c-2.1-5.4-3.8-10.9-5.5-16.5c-1.6-5.5-3.1-11.1-4.5-16.7c-1.3-5.6-2.6-11.3-3.7-16.9c-1.1-5.7-2.2-11.3-3.1-17
					C1570.9,755.7,1569.4,744.3,1568.5,732.8z"/>
				<g>
					<path class="st33" d="M1668.3,758.1c-8.5-13.3-78.3-35.8-78.3-35.8c0,21.5,0,22.4,0,22.4l71,24.8L1668.3,758.1z"/>
					<polygon class="st15" points="1663.3,757.2 1582.3,719.8 1582.3,734.3 1661.3,762.8 					"/>
					<polygon class="st33" points="1658.8,757.2 1573.3,724.8 1573.3,749.8 1657.9,762.8 					"/>
					<path class="st15" d="M1668.3,754.6c0,0,16.5-38.5,23.2-46.5c0,25.4-10.3,57.3-10.3,57.3L1668.3,754.6z"/>
					<polygon class="st33" points="1675.5,756.3 1695.5,705.8 1695.5,729.9 1681.8,762.8 					"/>
					<polygon class="st15" points="1681.8,757.2 1703.5,708.1 1703.5,725.6 					"/>
					<polygon class="st34" points="1681.8,908.5 1709.2,861.2 1709.2,709.9 1681.8,757.2 					"/>
					<polygon class="st3" points="1555.2,885.6 1652.5,908.5 1652.5,757.2 1555.2,734.3 					"/>
					<path class="st35" d="M1652.5,757.2c8.6-4.1,26.5-2.7,29.3,0C1680.3,765.8,1654.6,767.5,1652.5,757.2z"/>
					<path class="st36" d="M1652.5,908.5c0,3.7,29.4,3.7,29.4,0V757.2c-3,4.4-26.1,4.3-29.4,0V908.5z"/>
				</g>
				<path class="st21" d="M1591.7,856.3c-0.3-2.3-17.9-4.9-24.3-5.2c-4.9-0.3-37.4-1.3-48.4-1.8l0.8,2.8l-0.2,12.5l-1.8,8.3
					c9.7,0.6,33.4,1.5,38.3,2.5c6.6,1.3,18,6.3,18,6.3s4.8-1.1-1.3-3.7c-4.8-2.1-8.3-5.3-9.7-6.9c-0.8-0.9,0.1-2.6,0.7-2.4
					c16.4,4.3,18.1,5,18.1,5s19.3-0.1,0.1-4.5c-11.5-2.6-15.6-4.1-16.7-5.4c-0.4-0.5,0.3-2.4,1-2.5c10-0.6,27.9,2.9,23,0.6
					c-4-1.9-16.6-4-21.5-4.7c-0.3,0-0.8-1.9,0.6-2C1577.9,854.4,1591.9,858.4,1591.7,856.3z"/>
				<path class="st15" d="M1419.3,828.2c4,1,8,2.1,12.1,3c4,1,8.1,1.7,12.2,2.5c8.2,1.5,16.3,2.8,24.5,3.9
					c8.2,1.1,16.4,2.1,24.7,2.9c8.2,0.8,16.6,1.5,24.7,2l1.1,0.1l0.2,0.9c0.7,2.8,1.2,5.4,1.5,8.2c0.3,2.7,0.5,5.5,0.5,8.3
					s-0.3,5.5-0.7,8.3c-0.5,2.7-1.3,5.4-2.4,8l-0.1,0.2l-0.2,0.1l-9,6.1c-3,2-6,4-9.1,6c2.8-2.3,5.7-4.5,8.6-6.7l8.6-6.6l-0.3,0.3
					c0.9-2.5,1.5-5.1,1.9-7.7c0.3-2.6,0.5-5.3,0.4-8s-0.4-5.3-0.7-8c-0.4-2.6-0.9-5.3-1.6-7.8l1.3,1c-4.3-0.1-8.4-0.4-12.6-0.7
					s-8.3-0.6-12.5-1.1c-8.3-0.9-16.6-1.9-24.8-3.2c-8.2-1.3-16.4-2.9-24.5-4.9c-4-1-8.1-2-12.1-3.3
					C1427.2,831,1423.2,829.6,1419.3,828.2z"/>
				<path class="st30" d="M1557.1,535.6c0,0,15.4,0.5-0.8-12.5c-16.1-13-59.4-28.2-87.2-13.6c0,0-5.5-11.8-13.6-9
					c-8,2.8,5.2,10.9,5.2,10.9s-10.2-0.3-13.4,4.7c-2.3,3.7,4,3.9,7.4,3.7c-5.8,1-28.2,15.1-17,60.2c4-0.9,26.7-33.8,26.7-33.8
					s52,28.9,46.8,5.9c0,0,53.8,33.6,46.2,5.8C1557.6,558,1578.4,559.5,1557.1,535.6z"/>
				<path class="st30" d="M1437.8,580.3c0,0,4.3-1.5,8.9,2.2s4.1,16.6,4.1,16.6s22.1,14.2,19.8-46c-2.5-64.1-18.4,5.1-18.4,5.1
					L1437.8,580.3z"/>
			</g>
			<g>
				<path class="st27" d="M1240,1782.7l9.2,20.6c0.8,1.7,0,3.7-1.7,4.5l-48.1,21.6c-3.5,1.6-6.9-2.4-4.8-5.6l18.6-29
					C1213.2,1794.7,1228,1797.4,1240,1782.7z"/>
				<path class="st27" d="M1302.4,1780.3l9.2,20.6c0.8,1.7,0,3.7-1.7,4.5l-48.1,21.6c-3.5,1.6-6.8-2.4-4.8-5.6l18.6-29
					C1275.6,1792.3,1290.4,1794.9,1302.4,1780.3z"/>
				<path d="M1358.6,1114.5c0,0-52.5-8.8-70.1,49.8l21.7,32.5c0,0,45.6-17.5,45.8-19.2C1356.2,1175.8,1358.6,1114.5,1358.6,1114.5z"
					/>
				<path d="M1443.1,1140.9c0,0,15.3,23,23.1,32.1c19.6,23,22.2,15.8,34.4,35.5c13.2,21.3-0.2,34.7-7.7,40.8
					c-7.6,6.1,5.1,28.9-9,41.6c-18.5,16.7-35.6,1-48.3,10.3c-12.7,9.3-15.5,23.2-45.6,20.6s-29.8-101.1-29.8-101.1
					s24.7-52.2,25.6-52.7C1386.7,1167.6,1443.1,1140.9,1443.1,1140.9z"/>
				<path d="M1288.6,1164.2c0,0-1.8,18.1-7.8,28.5c-15,26.2-23.1,17.6-31.5,39.3c-9,23.4,6.6,34,15.2,38.7
					c8.6,4.6,0.3,29.3,16.6,39.2c21.2,13,35.1-5.7,49.4,1.2c14.2,6.8,19.5,19.9,48.6,11.8c29.1-8.2,10.6-104.9,10.6-104.9
					s-33.9-46.8-35-47C1353.6,1170.6,1288.6,1164.2,1288.6,1164.2z"/>
				<path class="st21" d="M1364.7,1280.9c0,0,50.3-9.3,73.4-8.5s-14,60.9-14,60.9l-37.8,0.8c0,0-23.2-25.9-21.6-28.9
					c1.5-3-0.1-22.7-0.1-22.7L1364.7,1280.9z"/>
				<g>
					<path class="st21" d="M1409.5,1232.9l13.3,40.3c0,0-11.5,23.9-46.9,13.6c0,0,4-8.3-1.4-25.5
						C1369,1243.7,1409.5,1232.9,1409.5,1232.9z"/>
					<path class="st28" d="M1409.5,1232.9l6.2,18.8c-3.7,13.7-15.7,23.1-38.4,26c0-4.1-0.6-9.6-2.8-16.5
						C1369,1243.7,1409.5,1232.9,1409.5,1232.9z"/>
					<g>
						<path class="st24" d="M1328.6,1203.5c2.9,6.5,1,13.7-4.3,16c-5.2,2.3-11.8-1.1-14.7-7.7c-2.9-6.5-1-13.7,4.3-16
							C1319.2,1193.5,1325.8,1196.9,1328.6,1203.5z"/>
						<path class="st21" d="M1327.2,1233.1c-3.4-8.4-5.2-17.4-6.2-25.3c-0.2-1.7-0.5-3.4-0.9-5c-1.4-6.7-1.5-13.9-0.1-21.3
							c4.5-23.8,24.4-42.2,48.6-44.6c32.5-3.3,60.1,21.7,60.9,53.5c3.4-2,7.3-2.6,10.7-1.1c6.6,2.8,9.2,11.7,5.8,20
							c-3.4,8.3-11.6,12.8-18.2,10c-0.9-0.4-1.8-0.9-2.5-1.5c-2,27.1-23.6,48.6-50.2,48.8C1355,1266.8,1335.4,1254.7,1327.2,1233.1z
							"/>
						<path class="st24" d="M1361.8,1191.7c1,3,1.6,6.1,1.8,9.3c0.1,1.6,0,3.2-0.2,4.9c-0.3,1.6-0.6,3.3-1.7,5
							c-1.2,1.6-1.8,2.1-2,3.3c-0.2,1.1,0.3,2.2,1.1,3.3c1.7,2.1,4.6,3.2,7.7,3.9c-3.1,0.6-6.7,0.2-9.4-2.2
							c-1.3-1.2-2.3-3.1-2.2-5.1c0.1-2.1,1.1-3.1,2.4-4.7c0.7-1,1.1-2.4,1.4-3.8s0.4-2.9,0.6-4.4
							C1361.5,1197.9,1361.7,1194.8,1361.8,1191.7z"/>
						<path class="st25" d="M1380,1195.8c-0.5,3.3,2.3,6,5.6,5.5c2-0.3,3.7-2,3.9-4c0.5-3.3-2.3-6-5.6-5.5
							C1382,1192,1380.3,1193.7,1380,1195.8z"/>
						<path class="st25" d="M1338.7,1198.9c-0.5,3.3,2.3,6,5.6,5.5c2-0.3,3.7-2,4-4c0.5-3.3-2.3-6-5.6-5.5
							C1340.6,1195.2,1339,1196.9,1338.7,1198.9z"/>
						<path class="st37" d="M1380.8,1233.2c0,0-6.9-2.5-13.4,1.8c0,0-7-4.4-12.5-0.2c0,0,2.6,10.4,14.1,9.7
							C1380.5,1243.8,1380.8,1233.2,1380.8,1233.2z"/>
						<path class="st24" d="M1386.9,1229.4c-1.3,1.1-2.7,2-4.1,2.9s-2.9,1.7-4.4,2.3c-3,1.3-6.2,2.3-9.5,2.5
							c-3.3,0.3-6.5-0.1-9.7-1.1c-3.1-1-6.1-2.6-8.9-4.4c1.2,1.1,2.6,2.2,4,3.1s3,1.6,4.6,2.3c1.6,0.6,3.3,1,5,1.3
							c1.7,0.2,3.4,0.3,5.1,0.1c3.4-0.3,6.8-1.3,9.8-2.9C1381.8,1233.9,1384.6,1231.9,1386.9,1229.4z"/>
						<path d="M1374.4,1185.4c2.5-0.7,4.8-1.2,7.1-1.4c2.3-0.3,4.5-0.2,6.7,0.1c2.2,0.4,4.3,0.9,6.4,1.9c1.6,0.6,5.4,3,6.4,3.5
							c-1.1-2.2-2.8-4.6-4.8-6c-2.1-1.7-4.7-2.7-7.4-3.1c-2.7-0.4-5.5-0.1-8,0.8C1378.3,1182,1376,1183.4,1374.4,1185.4z"/>
						<path d="M1353,1187c-1.9-1.8-4.3-2.9-6.9-3.5s-5.4-0.5-8,0.2c-2.6,0.8-5.1,2.1-6.9,4c-1.9,1.6-3.2,4.2-4.1,6.6
							c0.9-0.6,4.4-3.5,5.9-4.2c1.9-1.3,4-2.1,6.1-2.7s4.3-0.9,6.6-0.9C1348.1,1186.5,1350.5,1186.7,1353,1187z"/>
					</g>
				</g>
				<path class="st21" d="M1452.2,1526.9c0,0,14.8,69.8-52.5,86.4s-152.2,18.3-152.2,18.3l-1.6,162.6l-35.4,4.1
					c0,0-105.7-219.1,18.7-262.2l113.9-6.6l46.7-6.3c0,0,46.7-14.7,47.4-12.5C1437.8,1512.7,1451.1,1528.1,1452.2,1526.9z"/>
				<path class="st21" d="M1514.7,1523.3c0,0,14.8,69.8-52.5,86.4S1310,1628,1310,1628l-1.6,162.6l-35.4,4.1
					c0,0-105.7-219.1,18.7-262.2l113.9-6.6l46.7-6.3c0,0,46.7-14.7,47.4-12.5C1500.4,1509.1,1513.7,1524.5,1514.7,1523.3z"/>
				<path class="st23" d="M1272.8,1515.1c-56.7,0.9-108.5,33.4-126.9,96.7c-18.4,63.3-60.4,128.5-56.4,127.9
					c89,49.8,117-0.2,178.5,14.6c61.5,14.8,83.3,8.1,83.3,8.1c-17.8-89.3-41.2-134.5-41.2-134.5c5.2,0.9,156.1,3.2,193.4-38.2
					c10.5-11.6,18.5-26.2,16.9-61.8C1517.4,1461.6,1289.3,1514.8,1272.8,1515.1z"/>
				<path class="st4" d="M1289.7,1632.6c1.9-0.4,3.9-0.7,5.8-1.1s3.8-1,5.7-1.5c0.9-0.3,1.9-0.6,2.8-1c-1-0.2-1.9-0.5-2.8-0.8
					c-1.8-0.7-3.6-1.6-5.2-2.7c-1.6-1.2-3.1-2.4-4.3-3.8c-1.3-1.4-2.4-3-3.4-4.6l1.9,2.1c0.7,0.6,1.3,1.3,2.1,1.9
					c1.4,1.3,2.9,2.3,4.5,3.3s3.3,1.7,5,2.3c1.7,0.6,3.6,1,5.3,1.1l3.1,0.1l-2.8,1.3c-1.9,0.9-3.8,1.5-5.7,2
					c-1.9,0.5-3.9,0.9-5.9,1.3c-2,0.3-3.9,0.6-5.9,0.7s-4,0.2-5.9,0.2C1285.8,1633.2,1287.8,1633,1289.7,1632.6z"/>
				<path class="st21" d="M1307.5,1378.9c0,0-4.6,114-17.4,131.9l70.5-16v-124.1L1307.5,1378.9z"/>
				<path class="st26" d="M1336,1394.5c0,0,11.4,28.7,13.2,43.9c4.4,37.9-0.4,64.6-8.2,86.1c-11,30.2,74.1,18.7,76.1,18.8
					c89.9,2.1,89-1.5,89-1.5l14.3-11.5c-2-36.9-7.1-68.9-6.3-101.8l0.8-34l-4.1-34.3l-127.2-10L1336,1394.5z"/>
				<g>
					<path class="st33" d="M1292.5,1419.8c7.8-12.1,71.4-32.6,71.4-32.6c0,19.6,0,20.5,0,20.5l-64.8,22.6L1292.5,1419.8z"/>
					<path class="st33" d="M1292.5,1419.8c7.8-12.1,71.4-32.6,71.4-32.6c0,19.6,0,20.5,0,20.5l-64.8,22.6L1292.5,1419.8z"/>
					<polygon class="st15" points="1297.1,1419 1371,1384.9 1371,1398.1 1298.9,1424.2 					"/>
					<polygon class="st33" points="1301.2,1419 1379.2,1389.5 1379.2,1412.3 1302,1424.2 					"/>
					<path class="st15" d="M1292.5,1416.7c0,0-15-35.2-21.2-42.5c0,23.1,9.4,52.2,9.4,52.2L1292.5,1416.7z"/>
					<polygon class="st33" points="1285.9,1418.2 1267.7,1372.1 1267.7,1394.1 1280.2,1424.2 					"/>
					<polygon class="st15" points="1280.2,1419 1260.3,1374.2 1260.3,1390.2 					"/>
					<polygon class="st38" points="1280.2,1557 1262,1515.1 1262,1377 1280.2,1419 					"/>
					<polygon class="st11" points="1395.7,1536.2 1306.9,1557 1306.9,1419 1395.7,1398.1 					"/>
					<path class="st35" d="M1306.9,1419c-7.8-3.7-24.2-2.4-26.7,0C1281.6,1426.9,1304.9,1428.4,1306.9,1419z"/>
					<path class="st39" d="M1306.9,1557c0,3.4-26.8,3.4-26.8,0v-138c2.7,4,23.8,3.9,26.8,0V1557z"/>
				</g>
				<path class="st21" d="M1541.6,1365.1l-60.4,28c0,0-4.7,77.3-7.6,80.7c-5.3,6.2-58.8,23.9-87,29.1c-4.5,0.8-9.2,0.5-13.6-1.1
					c-14-4.9-38.7-13.8-42.7-15.2c-6.1-2.1-23.4-6.2-24.6-4.1c-1,1.9,13.5,3.3,22,7.6c1.2,0.6,0.1,2.1-0.2,2
					c-4.8-1.1-17.3-3.8-21.7-3.5c-5.4,0.3,12.5,3.7,21.6,7.9c0.6,0.3,0.7,2.3,0.1,2.7c-1.4,0.8-5.8,0.7-17.5-1.1
					c-19.5-3.1-1.5,4.2-1.5,4.2s1.8,0,18.7,2c0.6,0.1,0.8,1.9-0.3,2.5c-1.9,1-6.3,2.7-11.6,2.9c-6.6,0.2-2.6,3-2.6,3
					s12.5-0.4,19.1,0.8c4.9,0.9,27.3,8.8,36.5,11.8l1.1-1.4c12.8,3,130.8,11.6,145.1-23.4C1541,1436.1,1541.6,1365.1,1541.6,1365.1z
					"/>
				<path class="st26" d="M1364.7,1280.9c0,0,34.2,39.9,73.4-8.5c0,0,42.9-3.5,74.5,18.9s50.5,72.8,50.5,72.8s-45.4,30.2-81.9,30.2
					l-85.7-30.7l-59.4,30.7c0,0-27.6-1.8-50.9-13.7C1285.1,1380.7,1289.1,1300.6,1364.7,1280.9z"/>
				<path class="st30" d="M1470.7,1349c1.5,4.9,2.8,9.9,4.1,14.9c2.5,9.8,4.7,19.1,6.4,29.2c3.1,0.1,6.6-0.3,9.7-0.8
					c16.5-2.9,27.3-7.6,42-13.6c22-10,19-9.1,30.1-14.5c-12.9,8.2-19.8,11.8-29.2,16.5c-12.9,6-25.2,11.5-42.5,14.5
					c-7.6,1-9.7,0.8-12.6,0.5c-1.1-7.4-2.4-14.9-5.9-31.4l-3.3-15.1l-3.4-15.1C1467.8,1339.1,1469.3,1344,1470.7,1349z"/>
				<path class="st30" d="M1334.9,1358.3c-1,5.2-1.7,12-1.4,18.3c0.1,3,2.3,11.3,4.8,19.7c-0.5,0.2-0.9,0.4-1.4,0.5
					c-2.9-8.5-5.4-16.9-5.8-20c-0.8-6.4-0.2-12.8,0.8-19c1.2-6.3,2.8-12.2,5.2-18.2c2.3-5.9,4.9-11.6,8.3-16.9
					c-2.2,5.9-4.3,11.7-6.1,17.7C1337.5,1346.2,1335.9,1352.2,1334.9,1358.3z"/>
				<path d="M1429.4,1190.4c0,0-58.7-14.2-86.8-54.1c0,0-0.5-36.3,53.4-28.1C1448.5,1116.3,1460.7,1167.2,1429.4,1190.4z"/>
			</g>
		</g>
		<g>
			<g>
				<g class="st13">
					<g>
						<g>
							<g>
								<defs>
									<polygon id="SVGID_3_" points="1651.3,872.1 1660.9,798.4 1682.3,798.4 1672.7,872.1 									"/>
								</defs>
								<clipPath id="SVGID_4_">
									<use xlink:href="#SVGID_3_"  style="overflow:visible;"/>
								</clipPath>
								<g class="st40">
									<g>
										<g>
											<g>
												<path class="st15" d="M1667.1,808.6c-1.2,0-2.1-0.3-2.8-0.9c-0.8-0.7-1.2-1.9-1.1-3.6c0-0.3,0-0.5,0-0.7s0-0.4,0.1-0.5
													l9.4-0.9c0,0.2,0,0.4,0,0.7c0,0.2,0,0.5,0,0.7c-0.1,1.7-0.5,2.9-1.4,3.8c-0.8,0.8-2,1.3-3.6,1.5
													C1667.5,808.6,1667.3,808.6,1667.1,808.6 M1675.4,798.4l-14.5,1.3c-0.2,0.8-0.3,1.6-0.4,2.4s-0.1,1.5-0.2,2.1
													c0,1.3,0.1,2.5,0.3,3.5c0.3,1,0.7,1.9,1.3,2.6c0.6,0.7,1.4,1.2,2.3,1.5c0.7,0.2,1.5,0.3,2.3,0.3c0.3,0,0.7,0,1,0
													c1.4-0.1,2.5-0.4,3.5-0.9s1.8-1.1,2.4-1.9c0.6-0.8,1.1-1.7,1.5-2.8c0.3-1.1,0.5-2.2,0.6-3.5c0-0.6,0-1.3,0-2.1
													C1675.6,799.9,1675.5,799.1,1675.4,798.4"/>
												<path class="st15" d="M1666.4,825.5c-0.4,0-0.8,0-1.2-0.1c-0.6-0.1-1.1-0.3-1.5-0.6s-0.7-0.7-0.9-1.2
													c-0.2-0.5-0.3-1-0.3-1.6s0.2-1.2,0.4-1.7c0.3-0.5,0.6-0.9,1-1.3c0.4-0.4,1-0.7,1.5-0.9c0.6-0.2,1.3-0.4,2-0.5
													c0.2,0,0.5,0,0.7,0c0.4,0,0.9,0,1.2,0.1c0.6,0.1,1.1,0.3,1.5,0.6s0.7,0.7,0.9,1.1c0.2,0.5,0.3,1,0.3,1.6
													s-0.2,1.2-0.4,1.7c-0.2,0.5-0.6,1-1,1.3c-0.4,0.4-1,0.7-1.6,0.9s-1.3,0.4-2,0.4C1666.9,825.5,1666.6,825.5,1666.4,825.5
													 M1668.6,814.1c-0.3,0-0.7,0-1,0c-1.3,0.1-2.4,0.4-3.4,0.9s-1.8,1.1-2.5,1.8s-1.2,1.6-1.6,2.5s-0.6,1.9-0.6,2.9
													s0.1,2,0.4,2.9s0.8,1.6,1.4,2.2c0.6,0.6,1.4,1,2.4,1.3c0.7,0.2,1.4,0.3,2.3,0.3c0.3,0,0.7,0,1.1-0.1
													c1.3-0.1,2.4-0.4,3.4-0.9s1.8-1.1,2.5-1.8s1.2-1.6,1.6-2.5s0.6-1.9,0.6-2.9s-0.1-1.9-0.4-2.8c-0.3-0.9-0.8-1.6-1.4-2.2
													s-1.4-1.1-2.4-1.4C1670.2,814.2,1669.4,814.1,1668.6,814.1"/>
												<path class="st15" d="M1660.4,830.8c-0.3,0.5-0.6,1.1-0.9,1.8s-0.4,1.6-0.4,2.5c0,1,0.1,1.9,0.3,2.6
													c0.3,0.7,0.6,1.2,1.1,1.5c0.5,0.4,1,0.6,1.7,0.7c0.4,0.1,0.8,0.1,1.2,0.1c0.3,0,0.6,0,0.8,0l9.9-0.9l0.1-3.3l-9.7,0.9
													c-0.2,0-0.4,0-0.6,0c-0.6,0-1.1-0.1-1.4-0.4c-0.4-0.3-0.6-0.9-0.5-1.7c0-0.6,0.1-1.1,0.3-1.6c0.2-0.5,0.4-0.9,0.7-1.4
													L1660.4,830.8"/>
												<path class="st15" d="M1665.3,853.8c-0.4,0-0.8,0-1.2-0.1c-0.6-0.1-1.1-0.3-1.5-0.6s-0.7-0.7-0.9-1.2
													c-0.2-0.5-0.3-1-0.3-1.6s0.2-1.2,0.4-1.7c0.3-0.5,0.6-0.9,1-1.3c0.4-0.4,1-0.7,1.5-0.9c0.6-0.2,1.3-0.4,2-0.5
													c0.2,0,0.5,0,0.7,0c0.4,0,0.9,0,1.2,0.1c0.6,0.1,1.1,0.3,1.5,0.6s0.7,0.7,0.9,1.1c0.2,0.5,0.3,1,0.3,1.6
													s-0.2,1.2-0.4,1.7c-0.3,0.5-0.6,1-1,1.3c-0.4,0.4-1,0.7-1.6,0.9s-1.3,0.4-2,0.5C1665.8,853.7,1665.5,853.8,1665.3,853.8
													 M1667.5,842.4c-0.3,0-0.7,0-1,0c-1.3,0.1-2.4,0.4-3.4,0.9s-1.8,1.1-2.5,1.8s-1.2,1.6-1.6,2.5s-0.6,1.9-0.6,2.9
													s0.1,2,0.4,2.9s0.8,1.6,1.4,2.2c0.6,0.6,1.4,1,2.4,1.3c0.7,0.2,1.4,0.3,2.3,0.3c0.3,0,0.7,0,1.1-0.1
													c1.3-0.1,2.4-0.4,3.4-0.9s1.8-1.1,2.5-1.8s1.2-1.6,1.6-2.5s0.6-1.9,0.6-2.9s-0.1-1.9-0.4-2.8c-0.3-0.9-0.8-1.6-1.4-2.2
													s-1.4-1.1-2.4-1.4C1669.1,842.5,1668.4,842.4,1667.5,842.4"/>
												<path class="st15" d="M1673.3,859.1l-9.3,0.9c-0.9,0.1-1.7,0.3-2.4,0.6c-0.7,0.3-1.4,0.7-1.9,1.3c-0.5,0.5-1,1.2-1.3,2
													s-0.5,1.7-0.5,2.7c0,1.1,0.1,2,0.3,2.7c0.3,0.7,0.6,1.3,1.1,1.8c0.5,0.4,1.1,0.8,1.8,0.9c0.5,0.1,1,0.2,1.6,0.2
													c0.3,0,0.5,0,0.8,0l9.3-0.9l0.1-3.3l-9,0.8c-0.2,0-0.4,0-0.7,0c-0.9,0-1.5-0.2-1.9-0.6c-0.5-0.5-0.7-1.1-0.7-1.9
													c0-0.4,0.1-0.8,0.2-1.1s0.3-0.7,0.6-0.9c0.3-0.3,0.6-0.5,1.1-0.7c0.4-0.2,0.9-0.3,1.5-0.3l9-0.8L1673.3,859.1"/>
											</g>
										</g>
									</g>
								</g>
							</g>
						</g>
					</g>
				</g>
			</g>
		</g>
		<g>
			<g>
				<g class="st13">
					<g>
						<g>
							<g>
								<defs>
									<polygon id="SVGID_5_" points="1124.3,1098.8 1126.2,1022.7 1309.5,1032.3 1307.6,1108.4 									"/>
								</defs>
								<clipPath id="SVGID_6_">
									<use xlink:href="#SVGID_5_"  style="overflow:visible;"/>
								</clipPath>
								<g class="st41">
									<g>
										<g>
											<g>
												<path class="st15" d="M1196.4,1049.3c-0.9,0-1.7-0.3-2.5-0.6c-0.8-0.4-1.5-1-2.1-1.7s-1-1.6-1.4-2.7
													c-0.3-1-0.5-2.2-0.5-3.5s0.1-2.4,0.4-3.5c0.3-1,0.7-1.9,1.3-2.7c0.6-0.7,1.3-1.3,2.1-1.7c0.8-0.4,1.8-0.6,2.8-0.6
													c0.1,0,0.2,0,0.3,0c0.9,0,1.7,0.3,2.5,0.6c0.9,0.4,1.6,1,2.2,1.7c0.6,0.8,1,1.6,1.4,2.7c0.3,1,0.5,2.2,0.5,3.5
													s-0.1,2.4-0.4,3.5c-0.3,1-0.7,1.9-1.3,2.7c-0.6,0.7-1.3,1.3-2.1,1.7c-0.8,0.4-1.8,0.6-2.8,0.6
													C1196.7,1049.3,1196.5,1049.3,1196.4,1049.3 M1197.1,1027.2c-0.2,0-0.5,0-0.7,0c-1.7,0-3.3,0.3-4.8,0.8
													c-1.5,0.6-2.9,1.4-4,2.6s-2,2.6-2.7,4.3c-0.7,1.7-1,3.7-0.9,5.9c0,2,0.3,3.8,0.9,5.4s1.3,3,2.3,4.1s2.1,2.1,3.4,2.7
													c1.3,0.7,2.7,1.1,4.2,1.3c0.3,1.1,0.7,2,1.3,2.8c0.6,0.8,1.3,1.5,2.3,2.1s2.1,1,3.5,1.3c1.3,0.3,2.9,0.5,4.7,0.6
													c0.1,0,0.1,0,0.2,0l1.1-4.3c-1-0.1-1.9-0.2-2.7-0.3c-0.8-0.1-1.6-0.3-2.2-0.5s-1.2-0.5-1.6-0.8s-0.7-0.7-0.8-1.2
													c1.3-0.3,2.5-0.8,3.6-1.6c1.1-0.7,2-1.6,2.8-2.7s1.4-2.4,1.8-3.9s0.6-3.1,0.6-5c0-2.2-0.4-4.2-1.1-5.9
													c-0.7-1.7-1.6-3.1-2.8-4.3c-1.2-1.2-2.5-2.1-4.1-2.6C1200,1027.5,1198.6,1027.2,1197.1,1027.2"/>
												<path class="st15" d="M1220.7,1043.8c0.4-1.1,0.8-2.2,1.1-3.2c0.4-1,0.7-2,1-2.8c0.3-0.9,0.6-1.6,0.8-2.3
													c0.2-0.7,0.4-1.2,0.5-1.5c0.2,0.4,0.4,0.9,0.6,1.5c0.3,0.7,0.6,1.4,0.9,2.3s0.7,1.8,1.1,2.9c0.4,1,0.8,2.1,1.2,3.3
													L1220.7,1043.8 M1226.8,1027.9h-5.4c-0.8,1.8-1.6,3.7-2.4,5.6s-1.5,3.9-2.3,6s-1.6,4.4-2.4,6.8s-1.7,5-2.6,7.8h5.9
													c0.3-0.9,0.5-1.8,0.9-2.8c0.3-1,0.6-1.9,0.9-2.9l9.9,0.1c0.3,1,0.7,1.9,1,2.9s0.7,1.9,1,2.8h6.1c-1-2.8-2-5.5-2.9-7.9
													s-1.8-4.7-2.6-6.8c-0.9-2.1-1.7-4.1-2.6-6C1228.6,1031.6,1227.7,1029.8,1226.8,1027.9"/>
												<path class="st15" d="M1146.8,1072.8h-5.7l0.3,15.5c-0.9-1.4-1.9-2.8-2.9-4.3s-2.1-2.9-3.1-4.3s-2.1-2.7-3.1-3.9
													c-1-1.2-1.9-2.3-2.7-3.1h-4.6l0.5,26.2h5.6l-0.3-17.2c2.2,2.6,4.3,5.4,6.2,8.3c2,2.9,3.8,5.9,5.5,8.9h4.8L1146.8,1072.8
													"/>
												<polyline class="st15" points="1169.8,1073 1152.7,1072.8 1153.1,1099.1 1171.1,1099.2 1171,1094.2 1158.7,1094.2 
													1158.6,1087.8 1168.8,1087.9 1168.7,1083.1 1158.5,1083 1158.5,1077.8 1169.9,1077.9 1169.8,1073 												"/>
												<polyline class="st15" points="1193.7,1073.1 1172.7,1073 1172.8,1078 1180.4,1078.1 1180.8,1099.3 1186.5,1099.3 
													1186.1,1078.1 1193.8,1078.2 1193.7,1073.1 												"/>
												<path class="st15" d="M1228.5,1073.4h-5.9c-0.2,1.5-0.5,3-0.7,4.6c-0.3,1.6-0.5,3.2-0.8,4.8c-0.3,1.6-0.5,3.2-0.9,4.7
													c-0.3,1.5-0.6,2.9-0.9,4.2c-0.4-1.2-0.8-2.5-1.3-3.9c-0.4-1.4-0.9-2.8-1.3-4.2c-0.4-1.4-0.8-2.7-1.2-4
													c-0.4-1.3-0.7-2.5-1-3.5h-4.9c-0.3,1-0.5,2.2-0.8,3.4c-0.3,1.3-0.6,2.6-1,4s-0.7,2.8-1.1,4.2c-0.4,1.4-0.8,2.7-1.2,3.9
													c-0.4-1.3-0.7-2.7-1.1-4.2s-0.7-3.1-1.1-4.7s-0.7-3.2-1-4.8c-0.3-1.6-0.6-3.2-0.9-4.6h-6.2c0.9,4.4,2,8.9,3.2,13.4
													s2.5,8.8,3.9,12.9h5.2c0.8-2.4,1.6-5,2.3-7.6c0.7-2.7,1.5-5.3,2.2-8c0.8,2.7,1.7,5.3,2.5,8s1.7,5.2,2.6,7.6h5.2
													c1.2-4,2.4-8.3,3.4-12.8C1226.8,1082.2,1227.7,1077.7,1228.5,1073.4"/>
												<path class="st15" d="M1243.7,1095c-0.9,0-1.8-0.2-2.5-0.6c-0.8-0.4-1.5-1-2.1-1.7s-1-1.6-1.4-2.7
													c-0.3-1-0.5-2.2-0.5-3.5s0.1-2.4,0.4-3.5c0.3-1,0.7-1.9,1.3-2.7c0.6-0.7,1.3-1.3,2.1-1.7c0.8-0.4,1.8-0.6,2.8-0.6
													c0.1,0,0.3,0,0.4,0c0.9,0,1.7,0.3,2.5,0.6c0.8,0.4,1.6,1,2.2,1.7s1,1.6,1.4,2.7c0.3,1,0.5,2.2,0.5,3.5s-0.1,2.4-0.4,3.5
													c-0.3,1-0.7,1.9-1.3,2.7c-0.6,0.7-1.3,1.3-2.1,1.7c-0.8,0.4-1.8,0.6-2.8,0.6C1243.9,1095,1243.8,1095,1243.7,1095
													 M1244.4,1072.9c-0.2,0-0.5,0-0.7,0c-1.7,0-3.3,0.3-4.8,0.8c-1.5,0.6-2.9,1.4-4,2.6s-2,2.6-2.7,4.3
													c-0.7,1.7-1,3.7-0.9,5.9c0,2.2,0.4,4.2,1.1,5.9c0.7,1.7,1.6,3.1,2.8,4.3c1.2,1.2,2.5,2,4.1,2.6c1.3,0.5,2.8,0.8,4.2,0.9
													c0.2,0,0.5,0,0.7,0c1.8,0,3.4-0.3,5-0.8c1.5-0.6,2.9-1.4,4-2.6c1.1-1.1,2-2.6,2.6-4.3c0.6-1.7,0.9-3.7,0.9-5.9
													c0-2.2-0.4-4.2-1.1-5.9c-0.7-1.7-1.6-3.1-2.8-4.3c-1.2-1.2-2.5-2-4.1-2.6C1247.3,1073.3,1245.9,1073,1244.4,1072.9"/>
												<path class="st15" d="M1267,1085.6l-0.1-7.1c0.3,0,0.6,0,0.9-0.1c0.3,0,0.7,0,1.1,0c0.3,0,0.5,0,0.8,0
													c1.4,0.1,2.6,0.3,3.4,0.8c1,0.6,1.4,1.5,1.5,2.8c0,1.3-0.4,2.3-1.3,2.8c-0.9,0.6-2.5,0.8-4.6,0.8L1267,1085.6
													 M1269.8,1073.4c-0.4,0-0.8,0-1.3,0c-1.1,0-2.2,0-3.6,0.1c-1.3,0.1-2.6,0.3-3.9,0.5l0.5,25.8h5.7l-0.2-9.6h2.8
													c0.5,0.6,1,1.3,1.5,2c0.5,0.8,1,1.5,1.5,2.4c0.5,0.8,1,1.7,1.5,2.6s1,1.8,1.5,2.6h6.4c-0.5-1-1-1.9-1.5-2.9
													s-1.1-2-1.6-2.9c-0.6-0.9-1.1-1.8-1.7-2.7c-0.6-0.8-1.1-1.6-1.7-2.3c1.5-0.6,2.7-1.5,3.5-2.7c0.8-1.1,1.2-2.6,1.1-4.5
													c0-3-1.1-5.1-3.2-6.5C1275.5,1074.2,1273,1073.5,1269.8,1073.4"/>
												<path class="st15" d="M1306.7,1073.9l-6.8-0.1c-1.3,1.5-2.6,3.1-4.1,4.8c-1.5,1.7-3,3.4-4.4,5l-0.2-9.9h-5.7l0.5,26.2
													h5.7l-0.2-11.1c0.9,0.7,1.8,1.5,2.7,2.5c0.9,0.9,1.8,1.9,2.6,2.9c0.8,1,1.6,2,2.3,3c0.7,1,1.3,1.9,1.9,2.8l6.8,0.1
													c-1.8-2.9-3.7-5.6-5.6-8s-3.9-4.5-6-6.3c1.9-2,3.7-3.9,5.4-5.9C1303.3,1078,1305,1076,1306.7,1073.9"/>
											</g>
										</g>
									</g>
								</g>
							</g>
						</g>
					</g>
				</g>
			</g>
		</g>
		<g>
			<g>
				<g class="st13">
					<g>
						<g>
							<g>
								<defs>
									<polygon id="SVGID_7_" points="1582.4,1294.5 1584.4,1238.4 1742,1238.4 1740,1294.5 									"/>
								</defs>
								<clipPath id="SVGID_8_">
									<use xlink:href="#SVGID_7_"  style="overflow:visible;"/>
								</clipPath>
								<g class="st42">
									<g>
										<g>
											<g>
												<polyline class="st15" points="1627.8,1239.1 1584.3,1239.4 1584,1250 1599.9,1249.9 1598.5,1294.5 1610.4,1294.5 
													1611.7,1249.8 1627.5,1249.7 1627.8,1239.1 												"/>
												<path class="st15" d="M1646.5,1265.2l0.5-15.9c0.6-0.1,1.3-0.1,2.2-0.2c0.8-0.1,1.7-0.1,2.5-0.1c0.1,0,0.1,0,0.2,0
													c1.6,0,3.1,0.1,4.5,0.3c1.4,0.2,2.6,0.7,3.6,1.3c1,0.6,1.7,1.4,2.2,2.4s0.7,2.3,0.7,3.8c-0.1,3.2-1.2,5.4-3.3,6.6
													c-2.1,1.2-5.2,1.8-9.3,1.8L1646.5,1265.2 M1651.6,1238.4c-0.1,0-0.2,0-0.4,0c-2.2,0-4.7,0.1-7.6,0.4
													c-2.9,0.2-5.6,0.6-8.2,1.2l-1.6,54.4l11.8-0.1l0.5-18.5h3.7c7.9,0,14-1.5,18.3-4.5s6.6-7.8,6.8-14.4
													c0.2-6.6-1.8-11.3-5.9-14.2C1665.1,1239.8,1659.2,1238.4,1651.6,1238.4"/>
												<path class="st15" d="M1737.5,1238.5l-10.8,0.1c-1,1.8-2.1,3.9-3.3,6.5c-1.3,2.6-2.6,5.4-4,8.4s-2.7,6.1-4.1,9.2
													s-2.6,6.1-3.8,8.9c-1-2.8-2.1-5.7-3.3-8.8c-1.2-3.1-2.4-6.2-3.6-9.2s-2.4-5.8-3.5-8.4s-2.1-4.7-3-6.5l-11.3,0.1
													c-0.6,3.7-1.2,7.8-1.8,12.3c-0.6,4.5-1.1,9.3-1.6,14.2c-0.5,4.9-0.9,9.8-1.3,14.8c-0.4,4.9-0.8,9.6-1.1,14l11.5-0.1
													c0.3-5.4,0.7-11.2,1.1-17.5s1-12.7,1.7-19.1c0.9,2.2,1.8,4.7,2.8,7.4c1,2.7,2.1,5.4,3.1,8.1s2,5.3,2.9,7.8
													s1.7,4.6,2.4,6.3h8.3c0.8-1.8,1.7-3.9,2.8-6.3c1.1-2.5,2.2-5.1,3.4-7.8c1.2-2.7,2.3-5.4,3.5-8.2
													c1.2-2.7,2.3-5.2,3.3-7.4c0.3,6.4,0.5,12.8,0.6,19.1c0.1,6.3,0.1,12.2,0.1,17.5l11.5-0.1c-0.1-4.4-0.2-9-0.3-13.9
													c-0.1-4.9-0.3-9.9-0.5-14.8s-0.4-9.6-0.7-14.2C1738.3,1246.3,1737.9,1242.2,1737.5,1238.5"/>
											</g>
										</g>
									</g>
								</g>
							</g>
						</g>
					</g>
				</g>
			</g>
		</g>
		<g>
			<g>
				<g class="st13">
					<g>
						<g>
							<g>
								<defs>
									<polygon id="SVGID_9_" points="2185.2,835.1 2185.8,810.7 2240.2,813.6 2239.6,837.9 									"/>
								</defs>
								<clipPath id="SVGID_10_">
									<use xlink:href="#SVGID_9_"  style="overflow:visible;"/>
								</clipPath>
								<g class="st43">
									<g>
										<g>
											<g>
												<path class="st15" d="M2208.6,818.5c-0.1,0-0.2,0-0.2,0c-0.3,0-0.6-0.1-0.8-0.3s-0.4-0.4-0.6-0.6
													c-0.1-0.2-0.2-0.5-0.3-0.8s-0.1-0.7,0-1c0-0.4,0.1-0.7,0.3-1c0.1-0.3,0.3-0.5,0.5-0.7s0.4-0.3,0.7-0.4
													c0.2-0.1,0.4-0.1,0.7-0.1c0.1,0,0.1,0,0.2,0c0.3,0,0.6,0.1,0.8,0.3s0.4,0.4,0.6,0.6c0.1,0.2,0.2,0.5,0.3,0.8
													s0.1,0.7,0,1c0,0.4-0.1,0.7-0.3,1c-0.1,0.3-0.3,0.5-0.5,0.7s-0.4,0.3-0.7,0.4C2209,818.5,2208.8,818.5,2208.6,818.5
													 M2208.7,811.9c-0.4,0-0.7,0-1.1,0.1c-0.5,0.1-0.9,0.3-1.3,0.6c-0.4,0.3-0.7,0.7-1,1.1c-0.3,0.5-0.4,1-0.5,1.7
													c-0.1,0.6,0,1.1,0.1,1.6s0.3,0.9,0.5,1.3c0.3,0.4,0.5,0.7,0.9,0.9s0.8,0.4,1.2,0.6c0.1,0.3,0.1,0.6,0.3,0.9
													c0.1,0.3,0.3,0.5,0.6,0.7s0.6,0.4,1,0.5c0.4,0.2,0.9,0.3,1.4,0.4l0.5-1.2c-0.3-0.1-0.6-0.1-0.8-0.2
													c-0.3-0.1-0.5-0.1-0.6-0.2c-0.2-0.1-0.3-0.2-0.4-0.3c-0.1-0.1-0.2-0.2-0.2-0.4c0.4,0,0.8-0.1,1.1-0.3
													c0.4-0.2,0.7-0.4,0.9-0.7c0.3-0.3,0.5-0.6,0.7-1.1c0.2-0.4,0.3-0.9,0.4-1.4c0.1-0.7,0-1.3-0.1-1.8s-0.4-1-0.7-1.4
													s-0.7-0.7-1.1-0.9c-0.4-0.2-0.9-0.4-1.4-0.5C2208.9,811.9,2208.8,811.9,2208.7,811.9"/>
												<path class="st15" d="M2217.7,818.1l-2.1-0.3c0.2-0.3,0.3-0.6,0.4-0.9c0.2-0.3,0.3-0.5,0.4-0.8c0.1-0.2,0.2-0.4,0.3-0.6
													c0.1-0.2,0.2-0.3,0.2-0.4c0,0.1,0.1,0.3,0.1,0.5c0.1,0.2,0.1,0.4,0.2,0.7c0.1,0.3,0.1,0.6,0.2,0.9
													C2217.6,817.4,2217.6,817.8,2217.7,818.1 M2216.4,813.2c-0.3,0.5-0.6,1-0.9,1.5c-0.3,0.5-0.6,1.1-0.9,1.7
													c-0.3,0.6-0.6,1.2-1,1.9c-0.3,0.7-0.7,1.4-1.1,2.2l1.7,0.3c0.1-0.3,0.2-0.5,0.4-0.8c0.1-0.3,0.3-0.5,0.4-0.8l2.9,0.4
													c0.1,0.3,0.1,0.6,0.2,0.9c0.1,0.3,0.1,0.6,0.2,0.9l1.8,0.3c-0.2-0.9-0.4-1.7-0.5-2.4c-0.2-0.7-0.3-1.4-0.5-2.1
													c-0.2-0.7-0.4-1.3-0.5-1.9c-0.2-0.6-0.4-1.2-0.5-1.7L2216.4,813.2"/>
												<path class="st15" d="M2186.2,822.4l-0.9,7.7l1.7,0.2l0.6-5.1c0.5,0.9,1.1,1.8,1.5,2.7c0.5,0.9,0.9,1.9,1.3,2.8l1.4,0.2
													l0.9-7.7l-1.7-0.2l-0.5,4.6c-0.2-0.4-0.4-0.9-0.7-1.4c-0.2-0.5-0.5-0.9-0.8-1.4c-0.2-0.4-0.5-0.9-0.8-1.3
													c-0.3-0.4-0.5-0.7-0.7-1L2186.2,822.4"/>
												<polyline class="st15" points="2194.4,823.6 2193.5,831.3 2198.8,832 2199,830.6 2195.4,830.1 2195.6,828.2 
													2198.6,828.6 2198.7,827.2 2195.7,826.8 2195.9,825.3 2199.3,825.8 2199.5,824.3 2194.4,823.6 												"/>
												<polyline class="st15" points="2200.3,824.4 2200.1,825.9 2202.4,826.2 2201.7,832.5 2203.4,832.7 2204.1,826.5 
													2206.3,826.8 2206.5,825.3 2200.3,824.4 												"/>
												<path class="st15" d="M2206.9,825.4c0.1,1.3,0.3,2.7,0.4,4.1c0.2,1.4,0.4,2.7,0.6,3.9l1.5,0.2c0.3-0.7,0.7-1.4,1-2.1
													c0.3-0.7,0.6-1.5,1-2.3c0.1,0.8,0.3,1.6,0.4,2.5c0.2,0.8,0.3,1.6,0.5,2.3l1.5,0.2c0.5-1.1,1-2.3,1.5-3.6
													s0.9-2.5,1.3-3.8l-1.7-0.3c-0.1,0.4-0.2,0.9-0.4,1.3c-0.1,0.5-0.3,0.9-0.4,1.4c-0.1,0.5-0.3,0.9-0.4,1.3
													c-0.1,0.4-0.3,0.8-0.4,1.2c-0.1-0.4-0.1-0.8-0.2-1.2c-0.1-0.4-0.2-0.9-0.2-1.3c-0.1-0.4-0.1-0.8-0.2-1.2
													c-0.1-0.4-0.1-0.8-0.2-1.1l-1.4-0.2c-0.1,0.3-0.2,0.6-0.4,1c-0.1,0.4-0.3,0.7-0.5,1.1c-0.2,0.4-0.3,0.8-0.5,1.2
													s-0.3,0.8-0.5,1.1c-0.1-0.4-0.1-0.8-0.2-1.3c0-0.5-0.1-0.9-0.1-1.4s-0.1-1-0.1-1.5s-0.1-0.9-0.1-1.4L2206.9,825.4"/>
												<path class="st15" d="M2220.7,833.8c-0.1,0-0.2,0-0.2,0c-0.3,0-0.6-0.1-0.8-0.3s-0.4-0.4-0.6-0.6
													c-0.1-0.2-0.2-0.5-0.3-0.8s-0.1-0.7,0-1c0-0.4,0.1-0.7,0.3-1c0.1-0.3,0.3-0.5,0.5-0.7s0.4-0.3,0.7-0.4
													c0.2-0.1,0.4-0.1,0.7-0.1c0.1,0,0.1,0,0.2,0c0.3,0,0.6,0.1,0.8,0.3s0.4,0.4,0.6,0.6c0.1,0.2,0.2,0.5,0.3,0.8
													s0.1,0.7,0,1c0,0.4-0.1,0.7-0.3,1c-0.1,0.3-0.3,0.5-0.5,0.7s-0.4,0.3-0.7,0.4C2221.2,833.8,2221,833.8,2220.7,833.8
													 M2220.9,827.3c-0.4,0-0.7,0-1.1,0.1c-0.5,0.1-0.9,0.3-1.3,0.6c-0.4,0.3-0.7,0.7-1,1.1c-0.3,0.5-0.4,1-0.5,1.7
													s0,1.3,0.1,1.8s0.4,1,0.7,1.4s0.7,0.7,1.1,0.9c0.4,0.2,0.9,0.4,1.4,0.5c0.1,0,0.3,0,0.4,0c0.4,0,0.7,0,1.1-0.1
													c0.5-0.1,0.9-0.3,1.3-0.6c0.4-0.3,0.7-0.7,0.9-1.1c0.2-0.5,0.4-1,0.5-1.7s0-1.3-0.1-1.8s-0.4-1-0.7-1.4
													s-0.7-0.7-1.1-0.9c-0.4-0.2-0.9-0.4-1.4-0.5C2221.1,827.3,2221,827.3,2220.9,827.3"/>
												<path class="st15" d="M2228.7,832.1c-0.2,0-0.3,0-0.5-0.1l-0.5-0.1l0.2-2.1c0.1,0,0.2,0,0.3,0s0.2,0,0.3,0
													c0.5,0.1,0.9,0.2,1.2,0.4s0.4,0.5,0.3,0.9c0,0.4-0.2,0.7-0.5,0.8C2229.3,832.1,2229,832.1,2228.7,832.1 M2227.3,828.3
													c-0.3,0-0.6,0-1,0l-0.9,7.6l1.7,0.2l0.3-2.8l0.8,0.1c0.1,0.2,0.3,0.4,0.4,0.7c0.1,0.2,0.2,0.5,0.4,0.8
													c0.1,0.3,0.2,0.5,0.4,0.8c0.1,0.3,0.2,0.5,0.3,0.8l1.9,0.3c-0.1-0.3-0.2-0.6-0.3-0.9c-0.1-0.3-0.2-0.6-0.4-0.9
													c-0.1-0.3-0.3-0.6-0.4-0.9c-0.1-0.3-0.3-0.5-0.4-0.7c0.5-0.1,0.9-0.3,1.1-0.6c0.3-0.3,0.5-0.7,0.5-1.3
													c0.1-0.9-0.1-1.6-0.7-2.1c-0.6-0.5-1.4-0.8-2.5-1c-0.3,0-0.7-0.1-1.1-0.1C2227.4,828.3,2227.4,828.3,2227.3,828.3"/>
												<path class="st15" d="M2233.6,829.3l-0.9,7.7l1.7,0.2l0.4-3.3c0.2,0.2,0.5,0.5,0.7,0.8s0.4,0.6,0.7,1
													c0.2,0.3,0.4,0.7,0.6,1c0.2,0.3,0.3,0.6,0.4,0.9l2,0.3c-0.4-0.9-0.9-1.8-1.3-2.6c-0.5-0.8-1-1.5-1.5-2.1
													c0.6-0.5,1.2-1,1.8-1.5s1.2-1,1.7-1.6l-2-0.3c-0.4,0.4-0.9,0.8-1.4,1.2s-1,0.9-1.5,1.3l0.3-2.9L2233.6,829.3"/>
											</g>
										</g>
									</g>
								</g>
							</g>
						</g>
					</g>
				</g>
			</g>
		</g>
		<g>
			<g>
				<g class="st13">
					<g>
						<g>
							<g>
								<defs>
									<polygon id="SVGID_11_" points="1632.9,1759.5 1634.9,1701.8 1852.3,1701.8 1850.3,1759.5 									"/>
								</defs>
								<clipPath id="SVGID_12_">
									<use xlink:href="#SVGID_11_"  style="overflow:visible;"/>
								</clipPath>
								<g class="st44">
									<g>
										<g>
											<g>
												<path class="st15" d="M1652.4,1736.8c0.9-2.4,1.8-4.7,2.6-6.9c0.9-2.2,1.6-4.2,2.3-6c0.7-1.8,1.3-3.4,1.9-4.8
													c0.5-1.4,1-2.5,1.3-3.3c0.3,0.8,0.7,1.9,1.1,3.2c0.5,1.4,1,3,1.6,4.8s1.3,3.8,2,6s1.4,4.5,2.1,6.8L1652.4,1736.8
													 M1666.8,1703.3l-11.2,0.1c-1.9,3.8-3.7,7.8-5.5,11.8s-3.6,8.3-5.4,12.7c-1.8,4.5-3.7,9.2-5.6,14.3
													c-1.9,5.1-4,10.6-6.1,16.5l12.3-0.1c0.6-1.9,1.3-3.9,2-5.9s1.4-4,2.2-6.1l20.5-0.1c0.6,2,1.2,4,1.8,6
													c0.6,2,1.2,4,1.7,5.9l12.7-0.1c-1.8-5.9-3.5-11.4-5.1-16.5c-1.6-5-3.2-9.8-4.8-14.2c-1.6-4.5-3.1-8.7-4.7-12.7
													C1670,1711.1,1668.4,1707.1,1666.8,1703.3"/>
												<path class="st15" d="M1711.8,1701.8c-0.1,0-0.2,0-0.2,0c-3,0-5.7,0.4-8.1,1.2c-2.4,0.8-4.4,1.9-6.2,3.3
													c-1.7,1.4-3.1,3.2-4,5.2c-1,2-1.5,4.4-1.6,6.9c-0.1,2.6,0.3,4.7,1.1,6.5c0.8,1.8,1.9,3.3,3.2,4.5
													c1.3,1.2,2.8,2.3,4.5,3.1c1.7,0.8,3.4,1.5,5.1,2.2c3.9,1.4,6.6,2.6,8.2,3.8c1.6,1.2,2.4,2.7,2.3,4.5
													c0,0.9-0.2,1.6-0.4,2.3c-0.3,0.7-0.8,1.3-1.4,1.8c-0.7,0.5-1.6,0.9-2.6,1.2c-1.1,0.3-2.5,0.4-4.1,0.5h-0.1
													c-3.3,0-6-0.3-8.3-1s-4.2-1.5-5.7-2.4l-3.6,9.9c0.7,0.4,1.6,0.9,2.6,1.3s2.2,0.9,3.7,1.3c1.4,0.4,3.1,0.8,4.9,1.1
													c1.8,0.3,3.8,0.4,6.1,0.4c0.1,0,0.1,0,0.2,0c6.9,0,12.1-1.5,15.7-4.4c3.5-2.9,5.3-6.9,5.5-12c0.1-2.7-0.2-4.9-0.8-6.8
													c-0.6-1.9-1.6-3.5-2.9-4.8s-2.9-2.6-4.9-3.6s-4.3-2.1-7-3.1c-1.3-0.5-2.5-0.9-3.6-1.4c-1.1-0.4-2-0.9-2.8-1.5
													s-1.4-1.2-1.9-1.9c-0.4-0.7-0.6-1.5-0.6-2.6c0-1.7,0.7-3,2-3.8s3.3-1.3,6.1-1.3h0.1c2.5,0,4.6,0.3,6.4,0.9
													s3.4,1.3,4.8,2.1l3.7-9.8c-1.6-0.9-3.7-1.8-6.3-2.6C1718.2,1702.2,1715.2,1701.8,1711.8,1701.8"/>
												<path class="st15" d="M1753,1748.1c-0.7,0-1.3,0-1.9,0c-0.7,0-1.4-0.1-1.9-0.1l1-34.9c0.8-0.1,1.6-0.2,2.4-0.2
													c0.9,0,1.7-0.1,2.5-0.1c0.1,0,0.1,0,0.2,0c5.8,0,10,1.5,12.6,4.4c2.6,3,3.9,7.3,3.7,13.1c-0.2,5.5-1.7,9.9-4.7,13
													c-2.9,3.2-7.4,4.7-13.3,4.8C1753.5,1748.1,1753.2,1748.1,1753,1748.1 M1755.2,1702.2c-0.1,0-0.2,0-0.3,0
													c-2.1,0-4.7,0.1-7.6,0.3c-3,0.2-5.8,0.6-8.6,1.1l-1.6,53.8c2.7,0.6,5.5,0.9,8.3,1.1c2.7,0.2,5,0.2,7.1,0.2
													c0.1,0,0.2,0,0.3,0c4.6,0,8.9-0.6,12.6-1.8c3.8-1.2,7-3,9.7-5.3c2.7-2.4,4.8-5.3,6.3-8.9s2.3-7.7,2.5-12.5
													c0.1-5-0.4-9.3-1.7-12.8c-1.3-3.6-3.2-6.5-5.8-8.7c-2.6-2.3-5.7-3.9-9.3-5C1763.5,1702.7,1759.5,1702.2,1755.2,1702.2"
													/>
												<path class="st15" d="M1847.8,1702.4l-10.8,0.1c-1,1.8-2.1,3.9-3.3,6.5c-1.3,2.6-2.6,5.4-4,8.4s-2.7,6.1-4.1,9.2
													c-1.4,3.2-2.6,6.1-3.8,8.9c-1-2.8-2.1-5.7-3.3-8.8c-1.2-3.1-2.4-6.2-3.6-9.2s-2.4-5.8-3.5-8.3c-1.1-2.6-2.1-4.7-3-6.5
													l-11.3,0.1c-0.6,3.7-1.2,7.8-1.8,12.3c-0.6,4.5-1.1,9.3-1.6,14.2c-0.5,4.9-0.9,9.8-1.3,14.8c-0.4,4.9-0.8,9.6-1.1,14
													l11.5-0.1c0.3-5.4,0.7-11.2,1.1-17.5s1-12.7,1.7-19.1c0.8,2.2,1.8,4.7,2.8,7.4c1,2.7,2.1,5.4,3.1,8.1s2,5.3,2.9,7.8
													s1.7,4.6,2.4,6.3h8.3c0.8-1.8,1.7-3.9,2.8-6.4c1.1-2.5,2.2-5.1,3.4-7.8c1.2-2.7,2.3-5.4,3.5-8.1s2.3-5.2,3.3-7.4
													c0.3,6.4,0.5,12.8,0.6,19.1c0.1,6.3,0.1,12.2,0.1,17.5l11.5-0.1c-0.1-4.3-0.2-9-0.3-13.9c-0.1-4.9-0.3-9.9-0.5-14.8
													s-0.4-9.6-0.7-14.2C1848.6,1710.1,1848.2,1706,1847.8,1702.4"/>
											</g>
										</g>
									</g>
								</g>
							</g>
						</g>
					</g>
				</g>
			</g>
		</g>
		<g>
			<path class="st45" d="M690.5,977.8c0.5-0.3,0.7-1,0.4-1.6L674.9,947c-0.3-0.6-1-0.8-1.5-0.5l-5.2,2.9c-0.5,0.3-0.7,1-0.4,1.6
				l16.1,29.2c0.3,0.6,1,0.8,1.5,0.5L690.5,977.8L690.5,977.8z M706.9,928l-5,2.8c-0.5,0.3-0.7,1-0.4,1.6l6.7,12.2l-10.6,5.8
				l-6.7-12.2c-0.3-0.6-1-0.8-1.5-0.5l-5,2.8c-0.5,0.3-0.7,1-0.4,1.6l16.1,29.2c0.3,0.6,1,0.8,1.5,0.5l5-2.8c0.5-0.3,0.7-1,0.4-1.6
				l-7.5-13.7l10.6-5.8l7.5,13.7c0.3,0.6,1,0.8,1.5,0.5l5-2.8c0.5-0.3,0.7-1,0.4-1.6l-16.1-29.3C708.1,928,707.4,927.8,706.9,928
				L706.9,928z M617.9,976.8l-12.5,6.8c-0.5,0.3-0.7,1-0.4,1.6l16,29.2c0.3,0.6,1,0.8,1.5,0.5l12.3-6.8c7.3-4,10.5-11.6,4.3-22.9
				C633.3,974.3,625.2,972.9,617.9,976.8z M631.5,1005.8l-4.7,2.6l-13.5-24.7l4.7-2.6c5.6-3.1,9.5-0.3,14.2,8.2
				C636.9,998,637.3,1002.7,631.5,1005.8L631.5,1005.8z M678.4,983.1l-26.2-23.7c-0.5-0.5-1.3-0.6-1.9-0.4l-5.1,2.8
				c-0.3,0.2-0.5,0.6-0.4,0.9l6.4,35.8c0.1,0.4,0.3,0.5,0.6,0.4l3.1-1.7c0.3-0.2,0.5-0.6,0.4-1l-1.7-9.1l11-6l6.3,5.9
				c0.5,0.5,1.3,0.6,1.9,0.4l5.6-3C678.9,984.2,678.9,983.6,678.4,983.1L678.4,983.1z M652.8,983.4l-3-15.9l11.8,11L652.8,983.4z
				 M756.5,940.2l-26.2-23.7c-0.5-0.5-1.3-0.6-1.9-0.4l-5.1,2.8c-0.3,0.2-0.5,0.6-0.4,0.9l6.4,35.8c0.1,0.4,0.3,0.5,0.6,0.4l3.1-1.7
				c0.3-0.2,0.5-0.6,0.4-1l-1.7-9.1l11-6l6.3,5.9c0.5,0.5,1.3,0.6,1.9,0.4l5.6-3C757,941.3,757.1,940.7,756.5,940.2L756.5,940.2z
				 M731,940.5l-3-15.9l11.8,11.1L731,940.5z M761.6,898l-23.4,12.9c-0.3,0.2-0.4,0.5-0.2,0.9l1.3,2.3c0.2,0.3,0.5,0.5,0.8,0.3
				l8.4-4.6l14.8,26.9c0.3,0.6,1,0.8,1.5,0.5l5.1-2.8c0.5-0.3,0.7-1,0.4-1.6l-14.8-26.9l8.1-4.5c0.3-0.2,0.4-0.5,0.3-0.8
				c0,0,0,0,0,0l-1.3-2.3C762.3,898,761.9,897.8,761.6,898C761.6,898,761.6,898,761.6,898z M818.3,894.2l-11.2-20.5
				c-0.2-0.3-0.1-0.7,0.2-0.8l3.1-1.7c0.3-0.2,0.6,0,0.8,0.3l10.7,19.5c1,1.8,1.3,2.3,1.9,3.5c3,6.4,0.1,10.6-6.3,14.1
				c-7.6,4.2-13.5,1.8-16.3-1.7c-1.1-1.4-2-2.9-2.7-4.2l-9.9-18.1c-0.3-0.6-0.2-1.3,0.4-1.6l5-2.8c0.5-0.3,1.2-0.1,1.5,0.5
				l11.2,20.4c0.4,0.8,0.9,1.7,1.6,2.5c1.3,1.5,3.9,3.7,8.4,1.3c3.9-2.2,4.6-5.6,3-8.4L818.3,894.2L818.3,894.2z M783.1,892.5
				c0.4,0,0.4-0.4,0.2-0.7l-1.5-2.7c-0.2-0.4-0.4-0.4-0.9-0.4c0,0-0.8,0-2.6,0.4c-1.9,0.5-3.6,1.2-5.3,2.1c-4.6,2.5-5.9,5.3-6.3,7.8
				c-0.3,2.5,0.4,4.9,2.1,7.1c2.9,3.6,7.5,4.3,12.1,5c3.6,0.5,6.8,0.6,9,2.6c0.9,0.8,1.6,2.4,1.2,3.7c-0.5,1.4-1.3,2.3-3,3.2
				c-1.9,1.1-4.6,2-7.8,2.2c-0.6,0-1.3,0-1.3,0c-0.3,0-0.5,0.3-0.3,0.6l1.5,2.8c0.2,0.3,0.5,0.4,0.9,0.4c0,0,0.4,0,0.8-0.1
				c2.5-0.4,5.1-1.4,7.9-2.9c4.6-2.5,6.1-5.5,6.6-7.6c0.6-2.5-0.1-5.3-2.2-8c-3.4-4.2-8.7-4.6-13-5.1c-3.3-0.4-6.5-0.7-8.1-2.3
				c-1.2-1.2-1.2-2.4-1.1-3.1c0.2-1.1,1.2-2.5,3-3.5c1.6-0.9,3.4-1.4,5.7-1.6C781.1,892.6,782.1,892.5,783.1,892.5L783.1,892.5z
				 M507.2,1097.4l101.6-55.8L576,981.9l-101.6,55.8L507.2,1097.4L507.2,1097.4z"/>
			<path class="st46" d="M514.7,1038.4c19.5-10.6,47.8-23.8,63.7-25.7c1.5-0.2,2.7-0.3,3.2,0.6c0.7,1.2-1.5,3.5-3.6,5.6
				c-7.9,8.3-23.2,21.2-47.3,36.7l-36-10.5c-1.8,1-3.6,2.1-5.4,3.3l37.3,10.9l-1.3,13.1c35.5-27.5,49.7-43.3,55.5-51.2
				c1.2-1.7,4.9-6.5,3.3-9.3c-0.9-1.7-3.1-1.9-5.7-1.6c-9.9,1-24.6,6.1-38.6,12.2c-14.5,6.2-33.1,15.9-43.2,21.6l33.6,9.8
				c4.1-2.7,7.9-5.2,11.5-7.7L514.7,1038.4z"/>
		</g>
	</g>
</g>
<g id="Layer_2">
</g>
</svg>
